<ttFont>
<head>
    <!-- Most of this table will be recalculated by the compiler -->
    <tableVersion value="1.0"/>
    <fontRevision value="5.0"/>
    <checkSumAdjustment value="0xfaf20dc4"/>
    <magicNumber value="0x5f0f3cf5"/>
    <flags value="00000000 00001011"/>
    <unitsPerEm value="2048"/>
    <created value="Sun May 15 08:57:39 2005"/>
    <modified value="Fri Apr 15 04:06:39 2011"/>
    <xMin value="-23"/>
    <yMin value="-1268"/>
    <xMax value="6255"/>
    <yMax value="2336"/>
    <macStyle value="00000000 00000000"/>
    <lowestRecPPEM value="8"/>
    <fontDirectionHint value="2"/>
    <indexToLocFormat value="1"/>
    <glyphDataFormat value="0"/>
  </head>
    <TTGlyph name=".notdef" xMin="142" yMin="226" xMax="842" yMax="1588">
      <contour>
        <pt x="142" y="226" on="1"/>
        <pt x="142" y="1588" on="1"/>
        <pt x="842" y="1588" on="1"/>
        <pt x="842" y="226" on="1"/>
      </contour>
      <contour>
        <pt x="284" y="368" on="1"/>
        <pt x="700" y="368" on="1"/>
        <pt x="700" y="1447" on="1"/>
        <pt x="284" y="1447" on="1"/>
      </contour>
    </TTGlyph>
    <TTGlyph name=".null" xMin="142" yMin="226" xMax="842" yMax="1588">
      <contour>
        <pt x="142" y="226" on="1"/>
        <pt x="142" y="1588" on="1"/>
        <pt x="842" y="1588" on="1"/>
        <pt x="842" y="226" on="1"/>
      </contour>
      <contour>
        <pt x="284" y="368" on="1"/>
        <pt x="700" y="368" on="1"/>
        <pt x="700" y="1447" on="1"/>
        <pt x="284" y="1447" on="1"/>
      </contour>
    </TTGlyph>
    <TTGlyph name="afii57381" xMin="142" yMin="226" xMax="842" yMax="1588">
      <contour>
        <pt x="142" y="226" on="1"/>
        <pt x="142" y="1588" on="1"/>
        <pt x="842" y="1588" on="1"/>
        <pt x="842" y="226" on="1"/>
      </contour>
      <contour>
        <pt x="284" y="368" on="1"/>
        <pt x="700" y="368" on="1"/>
        <pt x="700" y="1447" on="1"/>
        <pt x="284" y="1447" on="1"/>
      </contour>
    </TTGlyph>
    <TTGlyph name="afii57388" xMin="142" yMin="226" xMax="842" yMax="1588">
      <contour>
        <pt x="142" y="226" on="1"/>
        <pt x="142" y="1588" on="1"/>
        <pt x="842" y="1588" on="1"/>
        <pt x="842" y="226" on="1"/>
      </contour>
      <contour>
        <pt x="284" y="368" on="1"/>
        <pt x="700" y="368" on="1"/>
        <pt x="700" y="1447" on="1"/>
        <pt x="284" y="1447" on="1"/>
      </contour>
    </TTGlyph>
    <TTGlyph name="afii57396" xMin="142" yMin="226" xMax="842" yMax="1588">
      <contour>
        <pt x="142" y="226" on="1"/>
        <pt x="142" y="1588" on="1"/>
        <pt x="842" y="1588" on="1"/>
        <pt x="842" y="226" on="1"/>
      </contour>
      <contour>
        <pt x="284" y="368" on="1"/>
        <pt x="700" y="368" on="1"/>
        <pt x="700" y="1447" on="1"/>
        <pt x="284" y="1447" on="1"/>
      </contour>
    </TTGlyph>
    <TTGlyph name="afii57397" xMin="142" yMin="226" xMax="842" yMax="1588">
      <contour>
        <pt x="142" y="226" on="1"/>
        <pt x="142" y="1588" on="1"/>
        <pt x="842" y="1588" on="1"/>
        <pt x="842" y="226" on="1"/>
      </contour>
      <contour>
        <pt x="284" y="368" on="1"/>
        <pt x="700" y="368" on="1"/>
        <pt x="700" y="1447" on="1"/>
        <pt x="284" y="1447" on="1"/>
      </contour>
    </TTGlyph>
    <TTGlyph name="afii57398" xMin="142" yMin="226" xMax="842" yMax="1588">
      <contour>
        <pt x="142" y="226" on="1"/>
        <pt x="142" y="1588" on="1"/>
        <pt x="842" y="1588" on="1"/>
        <pt x="842" y="226" on="1"/>
      </contour>
      <contour>
        <pt x="284" y="368" on="1"/>
        <pt x="700" y="368" on="1"/>
        <pt x="700" y="1447" on="1"/>
        <pt x="284" y="1447" on="1"/>
      </contour>
    </TTGlyph>
    <TTGlyph name="afii57403" xMin="142" yMin="226" xMax="842" yMax="1588">
      <contour>
        <pt x="142" y="226" on="1"/>
        <pt x="142" y="1588" on="1"/>
        <pt x="842" y="1588" on="1"/>
        <pt x="842" y="226" on="1"/>
      </contour>
      <contour>
        <pt x="284" y="368" on="1"/>
        <pt x="700" y="368" on="1"/>
        <pt x="700" y="1447" on="1"/>
        <pt x="284" y="1447" on="1"/>
      </contour>
    </TTGlyph>
    <TTGlyph name="afii57407" xMin="142" yMin="226" xMax="842" yMax="1588">
      <contour>
        <pt x="142" y="226" on="1"/>
        <pt x="142" y="1588" on="1"/>
        <pt x="842" y="1588" on="1"/>
        <pt x="842" y="226" on="1"/>
      </contour>
      <contour>
        <pt x="284" y="368" on="1"/>
        <pt x="700" y="368" on="1"/>
        <pt x="700" y="1447" on="1"/>
        <pt x="284" y="1447" on="1"/>
      </contour>
    </TTGlyph>
    <TTGlyph name="afii57440" xMin="142" yMin="226" xMax="842" yMax="1588">
      <contour>
        <pt x="142" y="226" on="1"/>
        <pt x="142" y="1588" on="1"/>
        <pt x="842" y="1588" on="1"/>
        <pt x="842" y="226" on="1"/>
      </contour>
      <contour>
        <pt x="284" y="368" on="1"/>
        <pt x="700" y="368" on="1"/>
        <pt x="700" y="1447" on="1"/>
        <pt x="284" y="1447" on="1"/>
      </contour>
    </TTGlyph>
    <TTGlyph name="afii57451" xMin="142" yMin="226" xMax="842" yMax="1588">
      <contour>
        <pt x="142" y="226" on="1"/>
        <pt x="142" y="1588" on="1"/>
        <pt x="842" y="1588" on="1"/>
        <pt x="842" y="226" on="1"/>
      </contour>
      <contour>
        <pt x="284" y="368" on="1"/>
        <pt x="700" y="368" on="1"/>
        <pt x="700" y="1447" on="1"/>
        <pt x="284" y="1447" on="1"/>
      </contour>
    </TTGlyph>
    <TTGlyph name="afii57452" xMin="142" yMin="226" xMax="842" yMax="1588">
      <contour>
        <pt x="142" y="226" on="1"/>
        <pt x="142" y="1588" on="1"/>
        <pt x="842" y="1588" on="1"/>
        <pt x="842" y="226" on="1"/>
      </contour>
      <contour>
        <pt x="284" y="368" on="1"/>
        <pt x="700" y="368" on="1"/>
        <pt x="700" y="1447" on="1"/>
        <pt x="284" y="1447" on="1"/>
      </contour>
    </TTGlyph>
    <TTGlyph name="afii57453" xMin="142" yMin="226" xMax="842" yMax="1588">
      <contour>
        <pt x="142" y="226" on="1"/>
        <pt x="142" y="1588" on="1"/>
        <pt x="842" y="1588" on="1"/>
        <pt x="842" y="226" on="1"/>
      </contour>
      <contour>
        <pt x="284" y="368" on="1"/>
        <pt x="700" y="368" on="1"/>
        <pt x="700" y="1447" on="1"/>
        <pt x="284" y="1447" on="1"/>
      </contour>
    </TTGlyph>
    <TTGlyph name="afii57454" xMin="142" yMin="226" xMax="842" yMax="1588">
      <contour>
        <pt x="142" y="226" on="1"/>
        <pt x="142" y="1588" on="1"/>
        <pt x="842" y="1588" on="1"/>
        <pt x="842" y="226" on="1"/>
      </contour>
      <contour>
        <pt x="284" y="368" on="1"/>
        <pt x="700" y="368" on="1"/>
        <pt x="700" y="1447" on="1"/>
        <pt x="284" y="1447" on="1"/>
      </contour>
    </TTGlyph>
    <TTGlyph name="afii57455" xMin="142" yMin="226" xMax="842" yMax="1588">
      <contour>
        <pt x="142" y="226" on="1"/>
        <pt x="142" y="1588" on="1"/>
        <pt x="842" y="1588" on="1"/>
        <pt x="842" y="226" on="1"/>
      </contour>
      <contour>
        <pt x="284" y="368" on="1"/>
        <pt x="700" y="368" on="1"/>
        <pt x="700" y="1447" on="1"/>
        <pt x="284" y="1447" on="1"/>
      </contour>
    </TTGlyph>
    <TTGlyph name="afii57456" xMin="142" yMin="226" xMax="842" yMax="1588">
      <contour>
        <pt x="142" y="226" on="1"/>
        <pt x="142" y="1588" on="1"/>
        <pt x="842" y="1588" on="1"/>
        <pt x="842" y="226" on="1"/>
      </contour>
      <contour>
        <pt x="284" y="368" on="1"/>
        <pt x="700" y="368" on="1"/>
        <pt x="700" y="1447" on="1"/>
        <pt x="284" y="1447" on="1"/>
      </contour>
    </TTGlyph>
    <TTGlyph name="afii57457" xMin="142" yMin="226" xMax="842" yMax="1588">
      <contour>
        <pt x="142" y="226" on="1"/>
        <pt x="142" y="1588" on="1"/>
        <pt x="842" y="1588" on="1"/>
        <pt x="842" y="226" on="1"/>
      </contour>
      <contour>
        <pt x="284" y="368" on="1"/>
        <pt x="700" y="368" on="1"/>
        <pt x="700" y="1447" on="1"/>
        <pt x="284" y="1447" on="1"/>
      </contour>
    </TTGlyph>
    <TTGlyph name="afii57458" xMin="142" yMin="226" xMax="842" yMax="1588">
      <contour>
        <pt x="142" y="226" on="1"/>
        <pt x="142" y="1588" on="1"/>
        <pt x="842" y="1588" on="1"/>
        <pt x="842" y="226" on="1"/>
      </contour>
      <contour>
        <pt x="284" y="368" on="1"/>
        <pt x="700" y="368" on="1"/>
        <pt x="700" y="1447" on="1"/>
        <pt x="284" y="1447" on="1"/>
      </contour>
    </TTGlyph>
    <TTGlyph name="afii57505" xMin="142" yMin="226" xMax="842" yMax="1588">
      <contour>
        <pt x="142" y="226" on="1"/>
        <pt x="142" y="1588" on="1"/>
        <pt x="842" y="1588" on="1"/>
        <pt x="842" y="226" on="1"/>
      </contour>
      <contour>
        <pt x="284" y="368" on="1"/>
        <pt x="700" y="368" on="1"/>
        <pt x="700" y="1447" on="1"/>
        <pt x="284" y="1447" on="1"/>
      </contour>
    </TTGlyph>
    <TTGlyph name="afii57506" xMin="142" yMin="226" xMax="842" yMax="1588">
      <contour>
        <pt x="142" y="226" on="1"/>
        <pt x="142" y="1588" on="1"/>
        <pt x="842" y="1588" on="1"/>
        <pt x="842" y="226" on="1"/>
      </contour>
      <contour>
        <pt x="284" y="368" on="1"/>
        <pt x="700" y="368" on="1"/>
        <pt x="700" y="1447" on="1"/>
        <pt x="284" y="1447" on="1"/>
      </contour>
    </TTGlyph>
    <TTGlyph name="afii57507" xMin="142" yMin="226" xMax="842" yMax="1588">
      <contour>
        <pt x="142" y="226" on="1"/>
        <pt x="142" y="1588" on="1"/>
        <pt x="842" y="1588" on="1"/>
        <pt x="842" y="226" on="1"/>
      </contour>
      <contour>
        <pt x="284" y="368" on="1"/>
        <pt x="700" y="368" on="1"/>
        <pt x="700" y="1447" on="1"/>
        <pt x="284" y="1447" on="1"/>
      </contour>
    </TTGlyph>
    <TTGlyph name="afii57508" xMin="142" yMin="226" xMax="842" yMax="1588">
      <contour>
        <pt x="142" y="226" on="1"/>
        <pt x="142" y="1588" on="1"/>
        <pt x="842" y="1588" on="1"/>
        <pt x="842" y="226" on="1"/>
      </contour>
      <contour>
        <pt x="284" y="368" on="1"/>
        <pt x="700" y="368" on="1"/>
        <pt x="700" y="1447" on="1"/>
        <pt x="284" y="1447" on="1"/>
      </contour>
    </TTGlyph>
    <TTGlyph name="afii57509" xMin="142" yMin="226" xMax="842" yMax="1588">
      <contour>
        <pt x="142" y="226" on="1"/>
        <pt x="142" y="1588" on="1"/>
        <pt x="842" y="1588" on="1"/>
        <pt x="842" y="226" on="1"/>
      </contour>
      <contour>
        <pt x="284" y="368" on="1"/>
        <pt x="700" y="368" on="1"/>
        <pt x="700" y="1447" on="1"/>
        <pt x="284" y="1447" on="1"/>
      </contour>
    </TTGlyph>
    <TTGlyph name="afii57511" xMin="142" yMin="226" xMax="842" yMax="1588">
      <contour>
        <pt x="142" y="226" on="1"/>
        <pt x="142" y="1588" on="1"/>
        <pt x="842" y="1588" on="1"/>
        <pt x="842" y="226" on="1"/>
      </contour>
      <contour>
        <pt x="284" y="368" on="1"/>
        <pt x="700" y="368" on="1"/>
        <pt x="700" y="1447" on="1"/>
        <pt x="284" y="1447" on="1"/>
      </contour>
    </TTGlyph>
    <TTGlyph name="afii57512" xMin="142" yMin="226" xMax="842" yMax="1588">
      <contour>
        <pt x="142" y="226" on="1"/>
        <pt x="142" y="1588" on="1"/>
        <pt x="842" y="1588" on="1"/>
        <pt x="842" y="226" on="1"/>
      </contour>
      <contour>
        <pt x="284" y="368" on="1"/>
        <pt x="700" y="368" on="1"/>
        <pt x="700" y="1447" on="1"/>
        <pt x="284" y="1447" on="1"/>
      </contour>
    </TTGlyph>
    <TTGlyph name="afii57513" xMin="142" yMin="226" xMax="842" yMax="1588">
      <contour>
        <pt x="142" y="226" on="1"/>
        <pt x="142" y="1588" on="1"/>
        <pt x="842" y="1588" on="1"/>
        <pt x="842" y="226" on="1"/>
      </contour>
      <contour>
        <pt x="284" y="368" on="1"/>
        <pt x="700" y="368" on="1"/>
        <pt x="700" y="1447" on="1"/>
        <pt x="284" y="1447" on="1"/>
      </contour>
    </TTGlyph>
    <TTGlyph name="afii57514" xMin="142" yMin="226" xMax="842" yMax="1588">
      <contour>
        <pt x="142" y="226" on="1"/>
        <pt x="142" y="1588" on="1"/>
        <pt x="842" y="1588" on="1"/>
        <pt x="842" y="226" on="1"/>
      </contour>
      <contour>
        <pt x="284" y="368" on="1"/>
        <pt x="700" y="368" on="1"/>
        <pt x="700" y="1447" on="1"/>
        <pt x="284" y="1447" on="1"/>
      </contour>
    </TTGlyph>
    <TTGlyph name="afii57519" xMin="142" yMin="226" xMax="842" yMax="1588">
      <contour>
        <pt x="142" y="226" on="1"/>
        <pt x="142" y="1588" on="1"/>
        <pt x="842" y="1588" on="1"/>
        <pt x="842" y="226" on="1"/>
      </contour>
      <contour>
        <pt x="284" y="368" on="1"/>
        <pt x="700" y="368" on="1"/>
        <pt x="700" y="1447" on="1"/>
        <pt x="284" y="1447" on="1"/>
      </contour>
    </TTGlyph>
    <TTGlyph name="afii57534" xMin="142" yMin="226" xMax="842" yMax="1588">
      <contour>
        <pt x="142" y="226" on="1"/>
        <pt x="142" y="1588" on="1"/>
        <pt x="842" y="1588" on="1"/>
        <pt x="842" y="226" on="1"/>
      </contour>
      <contour>
        <pt x="284" y="368" on="1"/>
        <pt x="700" y="368" on="1"/>
        <pt x="700" y="1447" on="1"/>
        <pt x="284" y="1447" on="1"/>
      </contour>
    </TTGlyph>
    <TTGlyph name="afii63167" xMin="142" yMin="226" xMax="842" yMax="1588">
      <contour>
        <pt x="142" y="226" on="1"/>
        <pt x="142" y="1588" on="1"/>
        <pt x="842" y="1588" on="1"/>
        <pt x="842" y="226" on="1"/>
      </contour>
      <contour>
        <pt x="284" y="368" on="1"/>
        <pt x="700" y="368" on="1"/>
        <pt x="700" y="1447" on="1"/>
        <pt x="284" y="1447" on="1"/>
      </contour>
    </TTGlyph>
    <TTGlyph name="alefmaksurainitial" xMin="142" yMin="226" xMax="842" yMax="1588">
      <contour>
        <pt x="142" y="226" on="1"/>
        <pt x="142" y="1588" on="1"/>
        <pt x="842" y="1588" on="1"/>
        <pt x="842" y="226" on="1"/>
      </contour>
      <contour>
        <pt x="284" y="368" on="1"/>
        <pt x="700" y="368" on="1"/>
        <pt x="700" y="1447" on="1"/>
        <pt x="284" y="1447" on="1"/>
      </contour>
    </TTGlyph>
    <TTGlyph name="alefwaslafinalarabic" xMin="142" yMin="226" xMax="842" yMax="1588">
      <contour>
        <pt x="142" y="226" on="1"/>
        <pt x="142" y="1588" on="1"/>
        <pt x="842" y="1588" on="1"/>
        <pt x="842" y="226" on="1"/>
      </contour>
      <contour>
        <pt x="284" y="368" on="1"/>
        <pt x="700" y="368" on="1"/>
        <pt x="700" y="1447" on="1"/>
        <pt x="284" y="1447" on="1"/>
      </contour>
    </TTGlyph>
    <TTGlyph name="ampersand" xMin="142" yMin="226" xMax="842" yMax="1588">
      <contour>
        <pt x="142" y="226" on="1"/>
        <pt x="142" y="1588" on="1"/>
        <pt x="842" y="1588" on="1"/>
        <pt x="842" y="226" on="1"/>
      </contour>
      <contour>
        <pt x="284" y="368" on="1"/>
        <pt x="700" y="368" on="1"/>
        <pt x="700" y="1447" on="1"/>
        <pt x="284" y="1447" on="1"/>
      </contour>
    </TTGlyph>
    <TTGlyph name="asterisk" xMin="142" yMin="226" xMax="842" yMax="1588">
      <contour>
        <pt x="142" y="226" on="1"/>
        <pt x="142" y="1588" on="1"/>
        <pt x="842" y="1588" on="1"/>
        <pt x="842" y="226" on="1"/>
      </contour>
      <contour>
        <pt x="284" y="368" on="1"/>
        <pt x="700" y="368" on="1"/>
        <pt x="700" y="1447" on="1"/>
        <pt x="284" y="1447" on="1"/>
      </contour>
    </TTGlyph>
    <TTGlyph name="behmeemisolatedarabic" xMin="142" yMin="226" xMax="842" yMax="1588">
      <contour>
        <pt x="142" y="226" on="1"/>
        <pt x="142" y="1588" on="1"/>
        <pt x="842" y="1588" on="1"/>
        <pt x="842" y="226" on="1"/>
      </contour>
      <contour>
        <pt x="284" y="368" on="1"/>
        <pt x="700" y="368" on="1"/>
        <pt x="700" y="1447" on="1"/>
        <pt x="284" y="1447" on="1"/>
      </contour>
    </TTGlyph>
    <TTGlyph name="behnoonfinalarabic" xMin="142" yMin="226" xMax="842" yMax="1588">
      <contour>
        <pt x="142" y="226" on="1"/>
        <pt x="142" y="1588" on="1"/>
        <pt x="842" y="1588" on="1"/>
        <pt x="842" y="226" on="1"/>
      </contour>
      <contour>
        <pt x="284" y="368" on="1"/>
        <pt x="700" y="368" on="1"/>
        <pt x="700" y="1447" on="1"/>
        <pt x="284" y="1447" on="1"/>
      </contour>
    </TTGlyph>
    <TTGlyph name="colon" xMin="142" yMin="226" xMax="842" yMax="1588">
      <contour>
        <pt x="142" y="226" on="1"/>
        <pt x="142" y="1588" on="1"/>
        <pt x="842" y="1588" on="1"/>
        <pt x="842" y="226" on="1"/>
      </contour>
      <contour>
        <pt x="284" y="368" on="1"/>
        <pt x="700" y="368" on="1"/>
        <pt x="700" y="1447" on="1"/>
        <pt x="284" y="1447" on="1"/>
      </contour>
    </TTGlyph>
    <TTGlyph name="dagger" xMin="142" yMin="226" xMax="842" yMax="1588">
      <contour>
        <pt x="142" y="226" on="1"/>
        <pt x="142" y="1588" on="1"/>
        <pt x="842" y="1588" on="1"/>
        <pt x="842" y="226" on="1"/>
      </contour>
      <contour>
        <pt x="284" y="368" on="1"/>
        <pt x="700" y="368" on="1"/>
        <pt x="700" y="1447" on="1"/>
        <pt x="284" y="1447" on="1"/>
      </contour>
    </TTGlyph>
    <TTGlyph name="dalringfinal" xMin="142" yMin="226" xMax="842" yMax="1588">
      <contour>
        <pt x="142" y="226" on="1"/>
        <pt x="142" y="1588" on="1"/>
        <pt x="842" y="1588" on="1"/>
        <pt x="842" y="226" on="1"/>
      </contour>
      <contour>
        <pt x="284" y="368" on="1"/>
        <pt x="700" y="368" on="1"/>
        <pt x="700" y="1447" on="1"/>
        <pt x="284" y="1447" on="1"/>
      </contour>
    </TTGlyph>
    <TTGlyph name="ddalfinalarabic" xMin="142" yMin="226" xMax="842" yMax="1588">
      <contour>
        <pt x="142" y="226" on="1"/>
        <pt x="142" y="1588" on="1"/>
        <pt x="842" y="1588" on="1"/>
        <pt x="842" y="226" on="1"/>
      </contour>
      <contour>
        <pt x="284" y="368" on="1"/>
        <pt x="700" y="368" on="1"/>
        <pt x="700" y="1447" on="1"/>
        <pt x="284" y="1447" on="1"/>
      </contour>
    </TTGlyph>
    <TTGlyph name="divide" xMin="142" yMin="226" xMax="842" yMax="1588">
      <contour>
        <pt x="142" y="226" on="1"/>
        <pt x="142" y="1588" on="1"/>
        <pt x="842" y="1588" on="1"/>
        <pt x="842" y="226" on="1"/>
      </contour>
      <contour>
        <pt x="284" y="368" on="1"/>
        <pt x="700" y="368" on="1"/>
        <pt x="700" y="1447" on="1"/>
        <pt x="284" y="1447" on="1"/>
      </contour>
    </TTGlyph>
    <TTGlyph name="dollar" xMin="142" yMin="226" xMax="842" yMax="1588">
      <contour>
        <pt x="142" y="226" on="1"/>
        <pt x="142" y="1588" on="1"/>
        <pt x="842" y="1588" on="1"/>
        <pt x="842" y="226" on="1"/>
      </contour>
      <contour>
        <pt x="284" y="368" on="1"/>
        <pt x="700" y="368" on="1"/>
        <pt x="700" y="1447" on="1"/>
        <pt x="284" y="1447" on="1"/>
      </contour>
    </TTGlyph>
    <TTGlyph name="dotlessyehfinalarabic" xMin="142" yMin="226" xMax="842" yMax="1588">
      <contour>
        <pt x="142" y="226" on="1"/>
        <pt x="142" y="1588" on="1"/>
        <pt x="842" y="1588" on="1"/>
        <pt x="842" y="226" on="1"/>
      </contour>
      <contour>
        <pt x="284" y="368" on="1"/>
        <pt x="700" y="368" on="1"/>
        <pt x="700" y="1447" on="1"/>
        <pt x="284" y="1447" on="1"/>
      </contour>
    </TTGlyph>
    <TTGlyph name="dotlessyehinitialarabic" xMin="142" yMin="226" xMax="842" yMax="1588">
      <contour>
        <pt x="142" y="226" on="1"/>
        <pt x="142" y="1588" on="1"/>
        <pt x="842" y="1588" on="1"/>
        <pt x="842" y="226" on="1"/>
      </contour>
      <contour>
        <pt x="284" y="368" on="1"/>
        <pt x="700" y="368" on="1"/>
        <pt x="700" y="1447" on="1"/>
        <pt x="284" y="1447" on="1"/>
      </contour>
    </TTGlyph>
    <TTGlyph name="dotlessyehmedialarabic" xMin="142" yMin="226" xMax="842" yMax="1588">
      <contour>
        <pt x="142" y="226" on="1"/>
        <pt x="142" y="1588" on="1"/>
        <pt x="842" y="1588" on="1"/>
        <pt x="842" y="226" on="1"/>
      </contour>
      <contour>
        <pt x="284" y="368" on="1"/>
        <pt x="700" y="368" on="1"/>
        <pt x="700" y="1447" on="1"/>
        <pt x="284" y="1447" on="1"/>
      </contour>
    </TTGlyph>
    <TTGlyph name="elefmaksuramedial" xMin="142" yMin="226" xMax="842" yMax="1588">
      <contour>
        <pt x="142" y="226" on="1"/>
        <pt x="142" y="1588" on="1"/>
        <pt x="842" y="1588" on="1"/>
        <pt x="842" y="226" on="1"/>
      </contour>
      <contour>
        <pt x="284" y="368" on="1"/>
        <pt x="700" y="368" on="1"/>
        <pt x="700" y="1447" on="1"/>
        <pt x="284" y="1447" on="1"/>
      </contour>
    </TTGlyph>
    <TTGlyph name="ellipsis" xMin="142" yMin="226" xMax="842" yMax="1588">
      <contour>
        <pt x="142" y="226" on="1"/>
        <pt x="142" y="1588" on="1"/>
        <pt x="842" y="1588" on="1"/>
        <pt x="842" y="226" on="1"/>
      </contour>
      <contour>
        <pt x="284" y="368" on="1"/>
        <pt x="700" y="368" on="1"/>
        <pt x="700" y="1447" on="1"/>
        <pt x="284" y="1447" on="1"/>
      </contour>
    </TTGlyph>
    <TTGlyph name="emdash" xMin="2" yMin="-574" xMax="2050" yMax="1785">
      <contour>
        <pt x="1936" y="1042" on="1"/>
        <pt x="1903" y="1018" on="1"/>
        <pt x="1903" y="1029" on="0"/>
        <pt x="1893" y="1055" on="1"/>
        <pt x="1878" y="1080" on="0"/>
        <pt x="1762" y="1203" on="0"/>
        <pt x="1749" y="1226" on="1"/>
        <pt x="1686" y="1335" on="0"/>
        <pt x="1680" y="1449" on="1"/>
        <pt x="1612" y="1431" on="0"/>
        <pt x="1612" y="1248" on="1"/>
        <pt x="1612" y="1160" on="0"/>
        <pt x="1628" y="1110" on="1"/>
        <pt x="1608" y="1131" on="0"/>
        <pt x="1587" y="1153" on="1"/>
        <pt x="1580" y="1201" on="0"/>
        <pt x="1580" y="1248" on="1"/>
        <pt x="1580" y="1351" on="0"/>
        <pt x="1647" y="1502" on="0"/>
        <pt x="1705" y="1523" on="1"/>
        <pt x="1708" y="1372" on="0"/>
        <pt x="1779" y="1254" on="1"/>
        <pt x="1792" y="1230" on="0"/>
        <pt x="1860" y="1158" on="1"/>
        <pt x="1919" y="1094" on="0"/>
        <pt x="1930" y="1063" on="1"/>
        <pt x="1936" y="1033" on="0"/>
      </contour>
      <contour>
        <pt x="1756" y="576" on="1"/>
        <pt x="1756" y="202" on="0"/>
        <pt x="1328" y="-330" on="0"/>
        <pt x="1026" y="-330" on="1"/>
        <pt x="725" y="-330" on="0"/>
        <pt x="296" y="202" on="0"/>
        <pt x="296" y="576" on="1"/>
        <pt x="296" y="939" on="0"/>
        <pt x="502" y="1202" on="1"/>
        <pt x="675" y="1423" on="0"/>
        <pt x="875" y="1461" on="1"/>
        <pt x="917" y="1469" on="0"/>
        <pt x="952" y="1505" on="1"/>
        <pt x="992" y="1547" on="0"/>
        <pt x="992" y="1602" on="1"/>
        <pt x="992" y="1662" on="0"/>
        <pt x="923" y="1748" on="0"/>
        <pt x="875" y="1748" on="1"/>
        <pt x="827" y="1748" on="0"/>
        <pt x="756" y="1662" on="0"/>
        <pt x="756" y="1602" on="1"/>
        <pt x="756" y="1534" on="0"/>
        <pt x="801" y="1488" on="1"/>
        <pt x="710" y="1475" on="0"/>
        <pt x="600" y="1418" on="1"/>
        <pt x="525" y="1380" on="0"/>
        <pt x="471" y="1315" on="1"/>
        <pt x="434" y="1321" on="1"/>
        <pt x="485" y="1394" on="0"/>
        <pt x="595" y="1457" on="1"/>
        <pt x="649" y="1487" on="0"/>
        <pt x="750" y="1512" on="1"/>
        <pt x="726" y="1556" on="0"/>
        <pt x="726" y="1614" on="1"/>
        <pt x="726" y="1688" on="0"/>
        <pt x="773" y="1738" on="1"/>
        <pt x="817" y="1785" on="0"/>
        <pt x="875" y="1785" on="1"/>
        <pt x="934" y="1785" on="0"/>
        <pt x="979" y="1736" on="1"/>
        <pt x="1026" y="1684" on="0"/>
        <pt x="1026" y="1610" on="1"/>
        <pt x="1026" y="1531" on="0"/>
        <pt x="978" y="1479" on="1"/>
        <pt x="995" y="1481" on="0"/>
        <pt x="1026" y="1481" on="1"/>
        <pt x="1058" y="1481" on="0"/>
        <pt x="1075" y="1479" on="1"/>
        <pt x="1026" y="1531" on="0"/>
        <pt x="1026" y="1610" on="1"/>
        <pt x="1026" y="1684" on="0"/>
        <pt x="1073" y="1736" on="1"/>
        <pt x="1117" y="1785" on="0"/>
        <pt x="1177" y="1785" on="1"/>
        <pt x="1235" y="1785" on="0"/>
        <pt x="1280" y="1738" on="1"/>
        <pt x="1328" y="1689" on="0"/>
        <pt x="1328" y="1614" on="1"/>
        <pt x="1328" y="1556" on="0"/>
        <pt x="1304" y="1512" on="1"/>
        <pt x="1401" y="1488" on="0"/>
        <pt x="1456" y="1457" on="1"/>
        <pt x="1565" y="1396" on="0"/>
        <pt x="1619" y="1321" on="1"/>
        <pt x="1583" y="1315" on="1"/>
        <pt x="1524" y="1382" on="0"/>
        <pt x="1452" y="1418" on="1"/>
        <pt x="1339" y="1476" on="0"/>
        <pt x="1251" y="1488" on="1"/>
        <pt x="1295" y="1532" on="0"/>
        <pt x="1295" y="1602" on="1"/>
        <pt x="1295" y="1662" on="0"/>
        <pt x="1226" y="1748" on="0"/>
        <pt x="1177" y="1748" on="1"/>
        <pt x="1130" y="1748" on="0"/>
        <pt x="1061" y="1662" on="0"/>
        <pt x="1061" y="1602" on="1"/>
        <pt x="1061" y="1547" on="0"/>
        <pt x="1101" y="1505" on="1"/>
        <pt x="1135" y="1469" on="0"/>
        <pt x="1177" y="1461" on="1"/>
        <pt x="1379" y="1423" on="0"/>
        <pt x="1551" y="1202" on="1"/>
        <pt x="1756" y="940" on="0"/>
      </contour>
      <contour>
        <pt x="467" y="1153" on="1"/>
        <pt x="422" y="1105" on="0"/>
        <pt x="423" y="1110" on="1"/>
        <pt x="440" y="1161" on="0"/>
        <pt x="440" y="1249" on="1"/>
        <pt x="440" y="1431" on="0"/>
        <pt x="373" y="1449" on="1"/>
        <pt x="367" y="1333" on="0"/>
        <pt x="305" y="1226" on="1"/>
        <pt x="292" y="1203" on="0"/>
        <pt x="175" y="1081" on="0"/>
        <pt x="160" y="1055" on="1"/>
        <pt x="149" y="1029" on="0"/>
        <pt x="149" y="1018" on="1"/>
        <pt x="118" y="1042" on="1"/>
        <pt x="118" y="1053" on="0"/>
        <pt x="124" y="1063" on="1"/>
        <pt x="135" y="1094" on="0"/>
        <pt x="194" y="1158" on="1"/>
        <pt x="261" y="1230" on="0"/>
        <pt x="275" y="1254" on="1"/>
        <pt x="343" y="1368" on="0"/>
        <pt x="348" y="1523" on="1"/>
        <pt x="405" y="1502" on="0"/>
        <pt x="475" y="1350" on="0"/>
        <pt x="475" y="1247" on="1"/>
        <pt x="475" y="1200" on="0"/>
      </contour>
      <contour>
        <pt x="2050" y="1105" on="1"/>
        <pt x="1995" y="1004" on="0"/>
        <pt x="2001" y="819" on="1"/>
        <pt x="2003" y="784" on="0"/>
        <pt x="2039" y="637" on="0"/>
        <pt x="2040" y="605" on="1"/>
        <pt x="2041" y="569" on="0"/>
        <pt x="1990" y="496" on="0"/>
        <pt x="1964" y="496" on="1"/>
        <pt x="1925" y="496" on="0"/>
        <pt x="1908" y="520" on="1"/>
        <pt x="1908" y="67" on="0"/>
        <pt x="1392" y="-574" on="0"/>
        <pt x="1026" y="-574" on="1"/>
        <pt x="661" y="-574" on="0"/>
        <pt x="144" y="67" on="0"/>
        <pt x="144" y="520" on="1"/>
        <pt x="128" y="496" on="0"/>
        <pt x="90" y="496" on="1"/>
        <pt x="63" y="496" on="0"/>
        <pt x="11" y="569" on="0"/>
        <pt x="12" y="605" on="1"/>
        <pt x="14" y="637" on="0"/>
        <pt x="50" y="785" on="0"/>
        <pt x="51" y="819" on="1"/>
        <pt x="58" y="1004" on="0"/>
        <pt x="2" y="1105" on="1"/>
        <pt x="163" y="1092" on="0"/>
        <pt x="212" y="945" on="1"/>
        <pt x="208" y="822" on="1"/>
        <pt x="204" y="895" on="0"/>
        <pt x="169" y="962" on="1"/>
        <pt x="124" y="1046" on="0"/>
        <pt x="54" y="1049" on="1"/>
        <pt x="85" y="992" on="0"/>
        <pt x="85" y="819" on="1"/>
        <pt x="85" y="787" on="0"/>
        <pt x="69" y="718" on="1"/>
        <pt x="51" y="646" on="0"/>
        <pt x="49" y="618" on="1"/>
        <pt x="47" y="542" on="0"/>
        <pt x="106" y="542" on="1"/>
        <pt x="137" y="542" on="0"/>
        <pt x="165" y="594" on="1"/>
        <pt x="173" y="609" on="0"/>
        <pt x="182" y="623" on="1"/>
        <pt x="177" y="561" on="0"/>
        <pt x="177" y="520" on="1"/>
        <pt x="177" y="91" on="0"/>
        <pt x="678" y="-521" on="0"/>
        <pt x="1026" y="-521" on="1"/>
        <pt x="1375" y="-521" on="0"/>
        <pt x="1876" y="91" on="0"/>
        <pt x="1876" y="520" on="1"/>
        <pt x="1876" y="561" on="0"/>
        <pt x="1871" y="623" on="1"/>
        <pt x="1881" y="609" on="0"/>
        <pt x="1890" y="595" on="1"/>
        <pt x="1916" y="542" on="0"/>
        <pt x="1946" y="542" on="1"/>
        <pt x="2007" y="542" on="0"/>
        <pt x="2004" y="618" on="1"/>
        <pt x="2003" y="646" on="0"/>
        <pt x="1985" y="718" on="1"/>
        <pt x="1966" y="787" on="0"/>
        <pt x="1966" y="819" on="1"/>
        <pt x="1966" y="990" on="0"/>
        <pt x="1999" y="1049" on="1"/>
        <pt x="1930" y="1046" on="0"/>
        <pt x="1884" y="962" on="1"/>
        <pt x="1848" y="895" on="0"/>
        <pt x="1844" y="822" on="1"/>
        <pt x="1842" y="945" on="1"/>
        <pt x="1891" y="1092" on="0"/>
      </contour>
      <contour>
        <pt x="1719" y="576" on="1"/>
        <pt x="1719" y="930" on="0"/>
        <pt x="1526" y="1173" on="1"/>
        <pt x="1375" y="1362" on="0"/>
        <pt x="1181" y="1418" on="1"/>
        <pt x="1116" y="1437" on="0"/>
        <pt x="1026" y="1437" on="1"/>
        <pt x="937" y="1437" on="0"/>
        <pt x="873" y="1418" on="1"/>
        <pt x="677" y="1362" on="0"/>
        <pt x="527" y="1173" on="1"/>
        <pt x="334" y="931" on="0"/>
        <pt x="334" y="576" on="1"/>
        <pt x="334" y="218" on="0"/>
        <pt x="738" y="-285" on="0"/>
        <pt x="1026" y="-285" on="1"/>
        <pt x="1315" y="-285" on="0"/>
        <pt x="1719" y="218" on="0"/>
      </contour>
      <contour>
        <pt x="1441" y="351" on="1"/>
        <pt x="1441" y="297" on="0"/>
        <pt x="1423" y="245" on="1"/>
        <pt x="1418" y="244" on="0"/>
        <pt x="1404" y="233" on="1"/>
        <pt x="1398" y="239" on="0"/>
        <pt x="1387" y="247" on="1"/>
        <pt x="1361" y="383" on="0"/>
        <pt x="1314" y="544" on="1"/>
        <pt x="1309" y="564" on="0"/>
        <pt x="1266" y="655" on="1"/>
        <pt x="1226" y="736" on="0"/>
        <pt x="1226" y="750" on="1"/>
        <pt x="1226" y="768" on="0"/>
        <pt x="1266" y="856" on="0"/>
        <pt x="1279" y="868" on="1"/>
        <pt x="1305" y="868" on="0"/>
        <pt x="1321" y="824" on="1"/>
        <pt x="1441" y="529" on="0"/>
      </contour>
      <contour>
        <pt x="1193" y="300" on="1"/>
        <pt x="1193" y="257" on="0"/>
        <pt x="1158" y="193" on="1"/>
        <pt x="1130" y="193" on="1"/>
        <pt x="1077" y="298" on="0"/>
        <pt x="1064" y="370" on="1"/>
        <pt x="1057" y="445" on="0"/>
        <pt x="1051" y="520" on="1"/>
        <pt x="1034" y="653" on="0"/>
        <pt x="999" y="653" on="1"/>
        <pt x="991" y="653" on="0"/>
        <pt x="966" y="643" on="0"/>
        <pt x="954" y="643" on="1"/>
        <pt x="914" y="643" on="0"/>
        <pt x="878" y="677" on="1"/>
        <pt x="839" y="713" on="0"/>
        <pt x="839" y="760" on="1"/>
        <pt x="839" y="790" on="0"/>
        <pt x="858" y="837" on="1"/>
        <pt x="972" y="796" on="0"/>
        <pt x="996" y="796" on="1"/>
        <pt x="1006" y="796" on="0"/>
        <pt x="1022" y="807" on="0"/>
        <pt x="1032" y="807" on="1"/>
        <pt x="1049" y="807" on="0"/>
        <pt x="1073" y="794" on="1"/>
        <pt x="1103" y="777" on="0"/>
        <pt x="1108" y="751" on="1"/>
        <pt x="1113" y="654" on="0"/>
        <pt x="1138" y="455" on="1"/>
        <pt x="1142" y="435" on="0"/>
        <pt x="1168" y="372" on="1"/>
        <pt x="1193" y="315" on="0"/>
      </contour>
      <contour>
        <pt x="822" y="330" on="1"/>
        <pt x="822" y="268" on="0"/>
        <pt x="805" y="234" on="1"/>
        <pt x="799" y="234" on="0"/>
        <pt x="785" y="223" on="1"/>
        <pt x="763" y="246" on="0"/>
        <pt x="756" y="287" on="1"/>
        <pt x="751" y="318" on="0"/>
        <pt x="745" y="350" on="1"/>
        <pt x="736" y="395" on="0"/>
        <pt x="713" y="472" on="1"/>
        <pt x="698" y="519" on="0"/>
        <pt x="650" y="633" on="1"/>
        <pt x="608" y="732" on="0"/>
        <pt x="608" y="745" on="1"/>
        <pt x="608" y="803" on="0"/>
        <pt x="652" y="858" on="1"/>
        <pt x="681" y="858" on="0"/>
        <pt x="695" y="824" on="1"/>
        <pt x="822" y="536" on="0"/>
      </contour>
    </TTGlyph>
    <TTGlyph name="endash" xMin="2" yMin="-574" xMax="1026" yMax="1785">
      <contour>
        <pt x="969" y="1042" on="1"/>
        <pt x="953" y="1018" on="1"/>
        <pt x="953" y="1029" on="0"/>
        <pt x="948" y="1055" on="1"/>
        <pt x="940" y="1080" on="0"/>
        <pt x="882" y="1203" on="0"/>
        <pt x="875" y="1226" on="1"/>
        <pt x="844" y="1335" on="0"/>
        <pt x="841" y="1449" on="1"/>
        <pt x="807" y="1431" on="0"/>
        <pt x="807" y="1248" on="1"/>
        <pt x="807" y="1160" on="0"/>
        <pt x="815" y="1110" on="1"/>
        <pt x="805" y="1131" on="0"/>
        <pt x="795" y="1153" on="1"/>
        <pt x="791" y="1201" on="0"/>
        <pt x="791" y="1248" on="1"/>
        <pt x="791" y="1351" on="0"/>
        <pt x="825" y="1502" on="0"/>
        <pt x="854" y="1523" on="1"/>
        <pt x="855" y="1372" on="0"/>
        <pt x="890" y="1254" on="1"/>
        <pt x="897" y="1230" on="0"/>
        <pt x="931" y="1158" on="1"/>
        <pt x="960" y="1094" on="0"/>
        <pt x="966" y="1063" on="1"/>
        <pt x="969" y="1033" on="0"/>
      </contour>
      <contour>
        <pt x="879" y="576" on="1"/>
        <pt x="879" y="202" on="0"/>
        <pt x="665" y="-330" on="0"/>
        <pt x="514" y="-330" on="1"/>
        <pt x="363" y="-330" on="0"/>
        <pt x="149" y="202" on="0"/>
        <pt x="149" y="576" on="1"/>
        <pt x="149" y="939" on="0"/>
        <pt x="252" y="1202" on="1"/>
        <pt x="339" y="1423" on="0"/>
        <pt x="438" y="1461" on="1"/>
        <pt x="460" y="1469" on="0"/>
        <pt x="477" y="1505" on="1"/>
        <pt x="497" y="1547" on="0"/>
        <pt x="497" y="1602" on="1"/>
        <pt x="497" y="1662" on="0"/>
        <pt x="462" y="1748" on="0"/>
        <pt x="438" y="1748" on="1"/>
        <pt x="415" y="1748" on="0"/>
        <pt x="379" y="1662" on="0"/>
        <pt x="379" y="1602" on="1"/>
        <pt x="379" y="1534" on="0"/>
        <pt x="401" y="1488" on="1"/>
        <pt x="356" y="1475" on="0"/>
        <pt x="301" y="1418" on="1"/>
        <pt x="264" y="1380" on="0"/>
        <pt x="236" y="1315" on="1"/>
        <pt x="218" y="1321" on="1"/>
        <pt x="244" y="1394" on="0"/>
        <pt x="299" y="1457" on="1"/>
        <pt x="326" y="1487" on="0"/>
        <pt x="376" y="1512" on="1"/>
        <pt x="364" y="1556" on="0"/>
        <pt x="364" y="1614" on="1"/>
        <pt x="364" y="1688" on="0"/>
        <pt x="388" y="1738" on="1"/>
        <pt x="410" y="1785" on="0"/>
        <pt x="438" y="1785" on="1"/>
        <pt x="468" y="1785" on="0"/>
        <pt x="491" y="1736" on="1"/>
        <pt x="514" y="1684" on="0"/>
        <pt x="514" y="1610" on="1"/>
        <pt x="514" y="1531" on="0"/>
        <pt x="490" y="1479" on="1"/>
        <pt x="499" y="1481" on="0"/>
        <pt x="514" y="1481" on="1"/>
        <pt x="530" y="1481" on="0"/>
        <pt x="539" y="1479" on="1"/>
        <pt x="514" y="1531" on="0"/>
        <pt x="514" y="1610" on="1"/>
        <pt x="514" y="1684" on="0"/>
        <pt x="537" y="1736" on="1"/>
        <pt x="559" y="1785" on="0"/>
        <pt x="590" y="1785" on="1"/>
        <pt x="619" y="1785" on="0"/>
        <pt x="641" y="1738" on="1"/>
        <pt x="665" y="1689" on="0"/>
        <pt x="665" y="1614" on="1"/>
        <pt x="665" y="1556" on="0"/>
        <pt x="653" y="1512" on="1"/>
        <pt x="702" y="1488" on="0"/>
        <pt x="729" y="1457" on="1"/>
        <pt x="784" y="1396" on="0"/>
        <pt x="810" y="1321" on="1"/>
        <pt x="793" y="1315" on="1"/>
        <pt x="763" y="1382" on="0"/>
        <pt x="727" y="1418" on="1"/>
        <pt x="671" y="1476" on="0"/>
        <pt x="627" y="1488" on="1"/>
        <pt x="648" y="1532" on="0"/>
        <pt x="648" y="1602" on="1"/>
        <pt x="648" y="1662" on="0"/>
        <pt x="614" y="1748" on="0"/>
        <pt x="590" y="1748" on="1"/>
        <pt x="566" y="1748" on="0"/>
        <pt x="531" y="1662" on="0"/>
        <pt x="531" y="1602" on="1"/>
        <pt x="531" y="1547" on="0"/>
        <pt x="551" y="1505" on="1"/>
        <pt x="568" y="1469" on="0"/>
        <pt x="590" y="1461" on="1"/>
        <pt x="690" y="1423" on="0"/>
        <pt x="776" y="1202" on="1"/>
        <pt x="879" y="940" on="0"/>
      </contour>
      <contour>
        <pt x="235" y="1153" on="1"/>
        <pt x="212" y="1105" on="0"/>
        <pt x="213" y="1110" on="1"/>
        <pt x="221" y="1161" on="0"/>
        <pt x="221" y="1249" on="1"/>
        <pt x="221" y="1431" on="0"/>
        <pt x="188" y="1449" on="1"/>
        <pt x="185" y="1333" on="0"/>
        <pt x="153" y="1226" on="1"/>
        <pt x="147" y="1203" on="0"/>
        <pt x="89" y="1081" on="0"/>
        <pt x="81" y="1055" on="1"/>
        <pt x="76" y="1029" on="0"/>
        <pt x="76" y="1018" on="1"/>
        <pt x="60" y="1042" on="1"/>
        <pt x="60" y="1053" on="0"/>
        <pt x="63" y="1063" on="1"/>
        <pt x="68" y="1094" on="0"/>
        <pt x="98" y="1158" on="1"/>
        <pt x="132" y="1230" on="0"/>
        <pt x="138" y="1254" on="1"/>
        <pt x="173" y="1368" on="0"/>
        <pt x="175" y="1523" on="1"/>
        <pt x="204" y="1502" on="0"/>
        <pt x="238" y="1350" on="0"/>
        <pt x="238" y="1247" on="1"/>
        <pt x="238" y="1200" on="0"/>
      </contour>
      <contour>
        <pt x="1026" y="1105" on="1"/>
        <pt x="999" y="1004" on="0"/>
        <pt x="1001" y="819" on="1"/>
        <pt x="1002" y="784" on="0"/>
        <pt x="1020" y="637" on="0"/>
        <pt x="1021" y="605" on="1"/>
        <pt x="1022" y="569" on="0"/>
        <pt x="996" y="496" on="0"/>
        <pt x="983" y="496" on="1"/>
        <pt x="964" y="496" on="0"/>
        <pt x="955" y="520" on="1"/>
        <pt x="955" y="67" on="0"/>
        <pt x="697" y="-574" on="0"/>
        <pt x="514" y="-574" on="1"/>
        <pt x="331" y="-574" on="0"/>
        <pt x="73" y="67" on="0"/>
        <pt x="73" y="520" on="1"/>
        <pt x="65" y="496" on="0"/>
        <pt x="46" y="496" on="1"/>
        <pt x="33" y="496" on="0"/>
        <pt x="6" y="569" on="0"/>
        <pt x="7" y="605" on="1"/>
        <pt x="8" y="637" on="0"/>
        <pt x="26" y="785" on="0"/>
        <pt x="27" y="819" on="1"/>
        <pt x="30" y="1004" on="0"/>
        <pt x="2" y="1105" on="1"/>
        <pt x="83" y="1092" on="0"/>
        <pt x="107" y="945" on="1"/>
        <pt x="105" y="822" on="1"/>
        <pt x="103" y="895" on="0"/>
        <pt x="85" y="962" on="1"/>
        <pt x="63" y="1046" on="0"/>
        <pt x="28" y="1049" on="1"/>
        <pt x="43" y="992" on="0"/>
        <pt x="43" y="819" on="1"/>
        <pt x="43" y="787" on="0"/>
        <pt x="35" y="718" on="1"/>
        <pt x="27" y="646" on="0"/>
        <pt x="26" y="618" on="1"/>
        <pt x="25" y="542" on="0"/>
        <pt x="54" y="542" on="1"/>
        <pt x="70" y="542" on="0"/>
        <pt x="83" y="594" on="1"/>
        <pt x="87" y="609" on="0"/>
        <pt x="92" y="623" on="1"/>
        <pt x="90" y="561" on="0"/>
        <pt x="90" y="520" on="1"/>
        <pt x="90" y="91" on="0"/>
        <pt x="340" y="-521" on="0"/>
        <pt x="514" y="-521" on="1"/>
        <pt x="688" y="-521" on="0"/>
        <pt x="939" y="91" on="0"/>
        <pt x="939" y="520" on="1"/>
        <pt x="939" y="561" on="0"/>
        <pt x="937" y="623" on="1"/>
        <pt x="941" y="609" on="0"/>
        <pt x="946" y="595" on="1"/>
        <pt x="959" y="542" on="0"/>
        <pt x="974" y="542" on="1"/>
        <pt x="1005" y="542" on="0"/>
        <pt x="1003" y="618" on="1"/>
        <pt x="1002" y="646" on="0"/>
        <pt x="993" y="718" on="1"/>
        <pt x="984" y="787" on="0"/>
        <pt x="984" y="819" on="1"/>
        <pt x="984" y="990" on="0"/>
        <pt x="1001" y="1049" on="1"/>
        <pt x="966" y="1046" on="0"/>
        <pt x="943" y="962" on="1"/>
        <pt x="925" y="895" on="0"/>
        <pt x="923" y="822" on="1"/>
        <pt x="922" y="945" on="1"/>
        <pt x="946" y="1092" on="0"/>
      </contour>
      <contour>
        <pt x="861" y="576" on="1"/>
        <pt x="861" y="930" on="0"/>
        <pt x="764" y="1173" on="1"/>
        <pt x="689" y="1362" on="0"/>
        <pt x="591" y="1418" on="1"/>
        <pt x="559" y="1437" on="0"/>
        <pt x="514" y="1437" on="1"/>
        <pt x="470" y="1437" on="0"/>
        <pt x="438" y="1418" on="1"/>
        <pt x="340" y="1362" on="0"/>
        <pt x="264" y="1173" on="1"/>
        <pt x="168" y="931" on="0"/>
        <pt x="168" y="576" on="1"/>
        <pt x="168" y="218" on="0"/>
        <pt x="370" y="-285" on="0"/>
        <pt x="514" y="-285" on="1"/>
        <pt x="659" y="-285" on="0"/>
        <pt x="861" y="218" on="0"/>
      </contour>
      <contour>
        <pt x="721" y="351" on="1"/>
        <pt x="721" y="297" on="0"/>
        <pt x="712" y="245" on="1"/>
        <pt x="710" y="244" on="0"/>
        <pt x="703" y="233" on="1"/>
        <pt x="700" y="239" on="0"/>
        <pt x="694" y="247" on="1"/>
        <pt x="681" y="383" on="0"/>
        <pt x="658" y="544" on="1"/>
        <pt x="655" y="564" on="0"/>
        <pt x="634" y="655" on="1"/>
        <pt x="614" y="736" on="0"/>
        <pt x="614" y="750" on="1"/>
        <pt x="614" y="768" on="0"/>
        <pt x="634" y="856" on="0"/>
        <pt x="640" y="868" on="1"/>
        <pt x="653" y="868" on="0"/>
        <pt x="662" y="824" on="1"/>
        <pt x="721" y="529" on="0"/>
      </contour>
      <contour>
        <pt x="598" y="300" on="1"/>
        <pt x="598" y="257" on="0"/>
        <pt x="580" y="193" on="1"/>
        <pt x="566" y="193" on="1"/>
        <pt x="539" y="298" on="0"/>
        <pt x="533" y="370" on="1"/>
        <pt x="530" y="445" on="0"/>
        <pt x="526" y="520" on="1"/>
        <pt x="518" y="653" on="0"/>
        <pt x="501" y="653" on="1"/>
        <pt x="497" y="653" on="0"/>
        <pt x="484" y="643" on="0"/>
        <pt x="478" y="643" on="1"/>
        <pt x="458" y="643" on="0"/>
        <pt x="440" y="677" on="1"/>
        <pt x="421" y="713" on="0"/>
        <pt x="421" y="760" on="1"/>
        <pt x="421" y="790" on="0"/>
        <pt x="430" y="837" on="1"/>
        <pt x="487" y="796" on="0"/>
        <pt x="499" y="796" on="1"/>
        <pt x="504" y="796" on="0"/>
        <pt x="512" y="807" on="0"/>
        <pt x="517" y="807" on="1"/>
        <pt x="526" y="807" on="0"/>
        <pt x="537" y="794" on="1"/>
        <pt x="553" y="777" on="0"/>
        <pt x="555" y="751" on="1"/>
        <pt x="557" y="654" on="0"/>
        <pt x="570" y="455" on="1"/>
        <pt x="572" y="435" on="0"/>
        <pt x="585" y="372" on="1"/>
        <pt x="598" y="315" on="0"/>
      </contour>
      <contour>
        <pt x="412" y="330" on="1"/>
        <pt x="412" y="268" on="0"/>
        <pt x="403" y="234" on="1"/>
        <pt x="400" y="234" on="0"/>
        <pt x="394" y="223" on="1"/>
        <pt x="382" y="246" on="0"/>
        <pt x="379" y="287" on="1"/>
        <pt x="376" y="318" on="0"/>
        <pt x="374" y="350" on="1"/>
        <pt x="369" y="395" on="0"/>
        <pt x="357" y="472" on="1"/>
        <pt x="350" y="519" on="0"/>
        <pt x="326" y="633" on="1"/>
        <pt x="305" y="732" on="0"/>
        <pt x="305" y="745" on="1"/>
        <pt x="305" y="803" on="0"/>
        <pt x="327" y="858" on="1"/>
        <pt x="341" y="858" on="0"/>
        <pt x="349" y="824" on="1"/>
        <pt x="412" y="536" on="0"/>
      </contour>
    </TTGlyph>
    <TTGlyph name="equal" xMin="142" yMin="226" xMax="842" yMax="1588">
      <contour>
        <pt x="142" y="226" on="1"/>
        <pt x="142" y="1588" on="1"/>
        <pt x="842" y="1588" on="1"/>
        <pt x="842" y="226" on="1"/>
      </contour>
      <contour>
        <pt x="284" y="368" on="1"/>
        <pt x="700" y="368" on="1"/>
        <pt x="700" y="1447" on="1"/>
        <pt x="284" y="1447" on="1"/>
      </contour>
    </TTGlyph>
    <TTGlyph name="exclam" xMin="142" yMin="226" xMax="842" yMax="1588">
      <contour>
        <pt x="142" y="226" on="1"/>
        <pt x="142" y="1588" on="1"/>
        <pt x="842" y="1588" on="1"/>
        <pt x="842" y="226" on="1"/>
      </contour>
      <contour>
        <pt x="284" y="368" on="1"/>
        <pt x="700" y="368" on="1"/>
        <pt x="700" y="1447" on="1"/>
        <pt x="284" y="1447" on="1"/>
      </contour>
    </TTGlyph>
    <TTGlyph name="figuredash" xMin="2" yMin="-574" xMax="2546" yMax="1785">
      <contour>
        <pt x="2404" y="1042" on="1"/>
        <pt x="2364" y="1018" on="1"/>
        <pt x="2364" y="1029" on="0"/>
        <pt x="2351" y="1055" on="1"/>
        <pt x="2332" y="1080" on="0"/>
        <pt x="2188" y="1203" on="0"/>
        <pt x="2172" y="1226" on="1"/>
        <pt x="2094" y="1335" on="0"/>
        <pt x="2087" y="1449" on="1"/>
        <pt x="2002" y="1431" on="0"/>
        <pt x="2002" y="1248" on="1"/>
        <pt x="2002" y="1160" on="0"/>
        <pt x="2022" y="1110" on="1"/>
        <pt x="1997" y="1131" on="0"/>
        <pt x="1971" y="1153" on="1"/>
        <pt x="1962" y="1201" on="0"/>
        <pt x="1962" y="1248" on="1"/>
        <pt x="1962" y="1351" on="0"/>
        <pt x="2046" y="1502" on="0"/>
        <pt x="2118" y="1523" on="1"/>
        <pt x="2121" y="1372" on="0"/>
        <pt x="2209" y="1254" on="1"/>
        <pt x="2226" y="1230" on="0"/>
        <pt x="2310" y="1158" on="1"/>
        <pt x="2383" y="1094" on="0"/>
        <pt x="2397" y="1063" on="1"/>
        <pt x="2404" y="1033" on="0"/>
      </contour>
      <contour>
        <pt x="2181" y="576" on="1"/>
        <pt x="2181" y="202" on="0"/>
        <pt x="1649" y="-330" on="0"/>
        <pt x="1274" y="-330" on="1"/>
        <pt x="900" y="-330" on="0"/>
        <pt x="367" y="202" on="0"/>
        <pt x="367" y="576" on="1"/>
        <pt x="367" y="939" on="0"/>
        <pt x="623" y="1202" on="1"/>
        <pt x="838" y="1423" on="0"/>
        <pt x="1086" y="1461" on="1"/>
        <pt x="1139" y="1469" on="0"/>
        <pt x="1182" y="1505" on="1"/>
        <pt x="1232" y="1547" on="0"/>
        <pt x="1232" y="1602" on="1"/>
        <pt x="1232" y="1662" on="0"/>
        <pt x="1146" y="1748" on="0"/>
        <pt x="1086" y="1748" on="1"/>
        <pt x="1027" y="1748" on="0"/>
        <pt x="938" y="1662" on="0"/>
        <pt x="938" y="1602" on="1"/>
        <pt x="938" y="1534" on="0"/>
        <pt x="994" y="1488" on="1"/>
        <pt x="882" y="1475" on="0"/>
        <pt x="745" y="1418" on="1"/>
        <pt x="652" y="1380" on="0"/>
        <pt x="584" y="1315" on="1"/>
        <pt x="539" y="1321" on="1"/>
        <pt x="602" y="1394" on="0"/>
        <pt x="739" y="1457" on="1"/>
        <pt x="806" y="1487" on="0"/>
        <pt x="931" y="1512" on="1"/>
        <pt x="901" y="1556" on="0"/>
        <pt x="901" y="1614" on="1"/>
        <pt x="901" y="1688" on="0"/>
        <pt x="960" y="1738" on="1"/>
        <pt x="1015" y="1785" on="0"/>
        <pt x="1086" y="1785" on="1"/>
        <pt x="1160" y="1785" on="0"/>
        <pt x="1216" y="1736" on="1"/>
        <pt x="1274" y="1684" on="0"/>
        <pt x="1274" y="1610" on="1"/>
        <pt x="1274" y="1531" on="0"/>
        <pt x="1214" y="1479" on="1"/>
        <pt x="1236" y="1481" on="0"/>
        <pt x="1274" y="1481" on="1"/>
        <pt x="1314" y="1481" on="0"/>
        <pt x="1335" y="1479" on="1"/>
        <pt x="1274" y="1531" on="0"/>
        <pt x="1274" y="1610" on="1"/>
        <pt x="1274" y="1684" on="0"/>
        <pt x="1332" y="1736" on="1"/>
        <pt x="1387" y="1785" on="0"/>
        <pt x="1462" y="1785" on="1"/>
        <pt x="1534" y="1785" on="0"/>
        <pt x="1589" y="1738" on="1"/>
        <pt x="1649" y="1689" on="0"/>
        <pt x="1649" y="1614" on="1"/>
        <pt x="1649" y="1556" on="0"/>
        <pt x="1619" y="1512" on="1"/>
        <pt x="1740" y="1488" on="0"/>
        <pt x="1808" y="1457" on="1"/>
        <pt x="1944" y="1396" on="0"/>
        <pt x="2010" y="1321" on="1"/>
        <pt x="1966" y="1315" on="1"/>
        <pt x="1892" y="1382" on="0"/>
        <pt x="1803" y="1418" on="1"/>
        <pt x="1663" y="1476" on="0"/>
        <pt x="1554" y="1488" on="1"/>
        <pt x="1608" y="1532" on="0"/>
        <pt x="1608" y="1602" on="1"/>
        <pt x="1608" y="1662" on="0"/>
        <pt x="1522" y="1748" on="0"/>
        <pt x="1462" y="1748" on="1"/>
        <pt x="1403" y="1748" on="0"/>
        <pt x="1317" y="1662" on="0"/>
        <pt x="1317" y="1602" on="1"/>
        <pt x="1317" y="1547" on="0"/>
        <pt x="1367" y="1505" on="1"/>
        <pt x="1409" y="1469" on="0"/>
        <pt x="1462" y="1461" on="1"/>
        <pt x="1712" y="1423" on="0"/>
        <pt x="1926" y="1202" on="1"/>
        <pt x="2181" y="940" on="0"/>
      </contour>
      <contour>
        <pt x="580" y="1153" on="1"/>
        <pt x="524" y="1105" on="0"/>
        <pt x="525" y="1110" on="1"/>
        <pt x="546" y="1161" on="0"/>
        <pt x="546" y="1249" on="1"/>
        <pt x="546" y="1431" on="0"/>
        <pt x="463" y="1449" on="1"/>
        <pt x="456" y="1333" on="0"/>
        <pt x="378" y="1226" on="1"/>
        <pt x="362" y="1203" on="0"/>
        <pt x="217" y="1081" on="0"/>
        <pt x="198" y="1055" on="1"/>
        <pt x="185" y="1029" on="0"/>
        <pt x="185" y="1018" on="1"/>
        <pt x="146" y="1042" on="1"/>
        <pt x="146" y="1053" on="0"/>
        <pt x="154" y="1063" on="1"/>
        <pt x="167" y="1094" on="0"/>
        <pt x="240" y="1158" on="1"/>
        <pt x="324" y="1230" on="0"/>
        <pt x="341" y="1254" on="1"/>
        <pt x="426" y="1368" on="0"/>
        <pt x="432" y="1523" on="1"/>
        <pt x="503" y="1502" on="0"/>
        <pt x="589" y="1350" on="0"/>
        <pt x="589" y="1247" on="1"/>
        <pt x="589" y="1200" on="0"/>
      </contour>
      <contour>
        <pt x="2546" y="1105" on="1"/>
        <pt x="2478" y="1004" on="0"/>
        <pt x="2485" y="819" on="1"/>
        <pt x="2487" y="784" on="0"/>
        <pt x="2532" y="637" on="0"/>
        <pt x="2533" y="605" on="1"/>
        <pt x="2535" y="569" on="0"/>
        <pt x="2472" y="496" on="0"/>
        <pt x="2439" y="496" on="1"/>
        <pt x="2391" y="496" on="0"/>
        <pt x="2369" y="520" on="1"/>
        <pt x="2369" y="67" on="0"/>
        <pt x="1729" y="-574" on="0"/>
        <pt x="1274" y="-574" on="1"/>
        <pt x="820" y="-574" on="0"/>
        <pt x="179" y="67" on="0"/>
        <pt x="179" y="520" on="1"/>
        <pt x="158" y="496" on="0"/>
        <pt x="111" y="496" on="1"/>
        <pt x="78" y="496" on="0"/>
        <pt x="13" y="569" on="0"/>
        <pt x="15" y="605" on="1"/>
        <pt x="17" y="637" on="0"/>
        <pt x="62" y="785" on="0"/>
        <pt x="63" y="819" on="1"/>
        <pt x="71" y="1004" on="0"/>
        <pt x="2" y="1105" on="1"/>
        <pt x="202" y="1092" on="0"/>
        <pt x="263" y="945" on="1"/>
        <pt x="258" y="822" on="1"/>
        <pt x="253" y="895" on="0"/>
        <pt x="209" y="962" on="1"/>
        <pt x="154" y="1046" on="0"/>
        <pt x="67" y="1049" on="1"/>
        <pt x="105" y="992" on="0"/>
        <pt x="105" y="819" on="1"/>
        <pt x="105" y="787" on="0"/>
        <pt x="85" y="718" on="1"/>
        <pt x="63" y="646" on="0"/>
        <pt x="61" y="618" on="1"/>
        <pt x="58" y="542" on="0"/>
        <pt x="131" y="542" on="1"/>
        <pt x="170" y="542" on="0"/>
        <pt x="204" y="594" on="1"/>
        <pt x="214" y="609" on="0"/>
        <pt x="226" y="623" on="1"/>
        <pt x="220" y="561" on="0"/>
        <pt x="220" y="520" on="1"/>
        <pt x="220" y="91" on="0"/>
        <pt x="842" y="-521" on="0"/>
        <pt x="1274" y="-521" on="1"/>
        <pt x="1707" y="-521" on="0"/>
        <pt x="2330" y="91" on="0"/>
        <pt x="2330" y="520" on="1"/>
        <pt x="2330" y="561" on="0"/>
        <pt x="2324" y="623" on="1"/>
        <pt x="2336" y="609" on="0"/>
        <pt x="2347" y="595" on="1"/>
        <pt x="2380" y="542" on="0"/>
        <pt x="2417" y="542" on="1"/>
        <pt x="2493" y="542" on="0"/>
        <pt x="2489" y="618" on="1"/>
        <pt x="2487" y="646" on="0"/>
        <pt x="2465" y="718" on="1"/>
        <pt x="2442" y="787" on="0"/>
        <pt x="2442" y="819" on="1"/>
        <pt x="2442" y="990" on="0"/>
        <pt x="2483" y="1049" on="1"/>
        <pt x="2397" y="1046" on="0"/>
        <pt x="2340" y="962" on="1"/>
        <pt x="2295" y="895" on="0"/>
        <pt x="2290" y="822" on="1"/>
        <pt x="2288" y="945" on="1"/>
        <pt x="2348" y="1092" on="0"/>
      </contour>
      <contour>
        <pt x="2135" y="576" on="1"/>
        <pt x="2135" y="930" on="0"/>
        <pt x="1895" y="1173" on="1"/>
        <pt x="1708" y="1362" on="0"/>
        <pt x="1466" y="1418" on="1"/>
        <pt x="1386" y="1437" on="0"/>
        <pt x="1274" y="1437" on="1"/>
        <pt x="1164" y="1437" on="0"/>
        <pt x="1084" y="1418" on="1"/>
        <pt x="841" y="1362" on="0"/>
        <pt x="654" y="1173" on="1"/>
        <pt x="415" y="931" on="0"/>
        <pt x="415" y="576" on="1"/>
        <pt x="415" y="218" on="0"/>
        <pt x="916" y="-285" on="0"/>
        <pt x="1274" y="-285" on="1"/>
        <pt x="1633" y="-285" on="0"/>
        <pt x="2135" y="218" on="0"/>
      </contour>
      <contour>
        <pt x="1789" y="351" on="1"/>
        <pt x="1789" y="297" on="0"/>
        <pt x="1767" y="245" on="1"/>
        <pt x="1761" y="244" on="0"/>
        <pt x="1744" y="233" on="1"/>
        <pt x="1736" y="239" on="0"/>
        <pt x="1722" y="247" on="1"/>
        <pt x="1690" y="383" on="0"/>
        <pt x="1632" y="544" on="1"/>
        <pt x="1625" y="564" on="0"/>
        <pt x="1572" y="655" on="1"/>
        <pt x="1523" y="736" on="0"/>
        <pt x="1523" y="750" on="1"/>
        <pt x="1523" y="768" on="0"/>
        <pt x="1572" y="856" on="0"/>
        <pt x="1588" y="868" on="1"/>
        <pt x="1620" y="868" on="0"/>
        <pt x="1641" y="824" on="1"/>
        <pt x="1789" y="529" on="0"/>
      </contour>
      <contour>
        <pt x="1482" y="300" on="1"/>
        <pt x="1482" y="257" on="0"/>
        <pt x="1438" y="193" on="1"/>
        <pt x="1403" y="193" on="1"/>
        <pt x="1337" y="298" on="0"/>
        <pt x="1321" y="370" on="1"/>
        <pt x="1313" y="445" on="0"/>
        <pt x="1305" y="520" on="1"/>
        <pt x="1284" y="653" on="0"/>
        <pt x="1241" y="653" on="1"/>
        <pt x="1231" y="653" on="0"/>
        <pt x="1200" y="643" on="0"/>
        <pt x="1185" y="643" on="1"/>
        <pt x="1135" y="643" on="0"/>
        <pt x="1090" y="677" on="1"/>
        <pt x="1042" y="713" on="0"/>
        <pt x="1042" y="760" on="1"/>
        <pt x="1042" y="790" on="0"/>
        <pt x="1065" y="837" on="1"/>
        <pt x="1207" y="796" on="0"/>
        <pt x="1237" y="796" on="1"/>
        <pt x="1249" y="796" on="0"/>
        <pt x="1269" y="807" on="0"/>
        <pt x="1282" y="807" on="1"/>
        <pt x="1303" y="807" on="0"/>
        <pt x="1332" y="794" on="1"/>
        <pt x="1370" y="777" on="0"/>
        <pt x="1376" y="751" on="1"/>
        <pt x="1382" y="654" on="0"/>
        <pt x="1413" y="455" on="1"/>
        <pt x="1418" y="435" on="0"/>
        <pt x="1451" y="372" on="1"/>
        <pt x="1482" y="315" on="0"/>
      </contour>
      <contour>
        <pt x="1021" y="330" on="1"/>
        <pt x="1021" y="268" on="0"/>
        <pt x="999" y="234" on="1"/>
        <pt x="992" y="234" on="0"/>
        <pt x="975" y="223" on="1"/>
        <pt x="947" y="246" on="0"/>
        <pt x="938" y="287" on="1"/>
        <pt x="932" y="318" on="0"/>
        <pt x="925" y="350" on="1"/>
        <pt x="914" y="395" on="0"/>
        <pt x="885" y="472" on="1"/>
        <pt x="867" y="519" on="0"/>
        <pt x="807" y="633" on="1"/>
        <pt x="755" y="732" on="0"/>
        <pt x="755" y="745" on="1"/>
        <pt x="755" y="803" on="0"/>
        <pt x="810" y="858" on="1"/>
        <pt x="845" y="858" on="0"/>
        <pt x="863" y="824" on="1"/>
        <pt x="1021" y="536" on="0"/>
      </contour>
    </TTGlyph>
    <TTGlyph name="gaffinalarabic" xMin="142" yMin="226" xMax="842" yMax="1588">
      <contour>
        <pt x="142" y="226" on="1"/>
        <pt x="142" y="1588" on="1"/>
        <pt x="842" y="1588" on="1"/>
        <pt x="842" y="226" on="1"/>
      </contour>
      <contour>
        <pt x="284" y="368" on="1"/>
        <pt x="700" y="368" on="1"/>
        <pt x="700" y="1447" on="1"/>
        <pt x="284" y="1447" on="1"/>
      </contour>
    </TTGlyph>
    <TTGlyph name="gafinitialarabic" xMin="142" yMin="226" xMax="842" yMax="1588">
      <contour>
        <pt x="142" y="226" on="1"/>
        <pt x="142" y="1588" on="1"/>
        <pt x="842" y="1588" on="1"/>
        <pt x="842" y="226" on="1"/>
      </contour>
      <contour>
        <pt x="284" y="368" on="1"/>
        <pt x="700" y="368" on="1"/>
        <pt x="700" y="1447" on="1"/>
        <pt x="284" y="1447" on="1"/>
      </contour>
    </TTGlyph>
    <TTGlyph name="gafmedialarabic" xMin="142" yMin="226" xMax="842" yMax="1588">
      <contour>
        <pt x="142" y="226" on="1"/>
        <pt x="142" y="1588" on="1"/>
        <pt x="842" y="1588" on="1"/>
        <pt x="842" y="226" on="1"/>
      </contour>
      <contour>
        <pt x="284" y="368" on="1"/>
        <pt x="700" y="368" on="1"/>
        <pt x="700" y="1447" on="1"/>
        <pt x="284" y="1447" on="1"/>
      </contour>
    </TTGlyph>
    <TTGlyph name="glyph41" xMin="142" yMin="226" xMax="842" yMax="1588">
      <contour>
        <pt x="142" y="226" on="1"/>
        <pt x="142" y="1588" on="1"/>
        <pt x="842" y="1588" on="1"/>
        <pt x="842" y="226" on="1"/>
      </contour>
      <contour>
        <pt x="284" y="368" on="1"/>
        <pt x="700" y="368" on="1"/>
        <pt x="700" y="1447" on="1"/>
        <pt x="284" y="1447" on="1"/>
      </contour>
    </TTGlyph>
    <TTGlyph name="glyph42" xMin="142" yMin="226" xMax="842" yMax="1588">
      <contour>
        <pt x="142" y="226" on="1"/>
        <pt x="142" y="1588" on="1"/>
        <pt x="842" y="1588" on="1"/>
        <pt x="842" y="226" on="1"/>
      </contour>
      <contour>
        <pt x="284" y="368" on="1"/>
        <pt x="700" y="368" on="1"/>
        <pt x="700" y="1447" on="1"/>
        <pt x="284" y="1447" on="1"/>
      </contour>
    </TTGlyph>
    <TTGlyph name="glyph43" xMin="142" yMin="226" xMax="842" yMax="1588">
      <contour>
        <pt x="142" y="226" on="1"/>
        <pt x="142" y="1588" on="1"/>
        <pt x="842" y="1588" on="1"/>
        <pt x="842" y="226" on="1"/>
      </contour>
      <contour>
        <pt x="284" y="368" on="1"/>
        <pt x="700" y="368" on="1"/>
        <pt x="700" y="1447" on="1"/>
        <pt x="284" y="1447" on="1"/>
      </contour>
    </TTGlyph>
    <TTGlyph name="glyph44" xMin="142" yMin="226" xMax="842" yMax="1588">
      <contour>
        <pt x="142" y="226" on="1"/>
        <pt x="142" y="1588" on="1"/>
        <pt x="842" y="1588" on="1"/>
        <pt x="842" y="226" on="1"/>
      </contour>
      <contour>
        <pt x="284" y="368" on="1"/>
        <pt x="700" y="368" on="1"/>
        <pt x="700" y="1447" on="1"/>
        <pt x="284" y="1447" on="1"/>
      </contour>
    </TTGlyph>
    <TTGlyph name="glyph45" xMin="142" yMin="226" xMax="842" yMax="1588">
      <contour>
        <pt x="142" y="226" on="1"/>
        <pt x="142" y="1588" on="1"/>
        <pt x="842" y="1588" on="1"/>
        <pt x="842" y="226" on="1"/>
      </contour>
      <contour>
        <pt x="284" y="368" on="1"/>
        <pt x="700" y="368" on="1"/>
        <pt x="700" y="1447" on="1"/>
        <pt x="284" y="1447" on="1"/>
      </contour>
    </TTGlyph>
    <TTGlyph name="glyph46" xMin="142" yMin="226" xMax="842" yMax="1588">
      <contour>
        <pt x="142" y="226" on="1"/>
        <pt x="142" y="1588" on="1"/>
        <pt x="842" y="1588" on="1"/>
        <pt x="842" y="226" on="1"/>
      </contour>
      <contour>
        <pt x="284" y="368" on="1"/>
        <pt x="700" y="368" on="1"/>
        <pt x="700" y="1447" on="1"/>
        <pt x="284" y="1447" on="1"/>
      </contour>
    </TTGlyph>
    <TTGlyph name="glyph47" xMin="142" yMin="226" xMax="842" yMax="1588">
      <contour>
        <pt x="142" y="226" on="1"/>
        <pt x="142" y="1588" on="1"/>
        <pt x="842" y="1588" on="1"/>
        <pt x="842" y="226" on="1"/>
      </contour>
      <contour>
        <pt x="284" y="368" on="1"/>
        <pt x="700" y="368" on="1"/>
        <pt x="700" y="1447" on="1"/>
        <pt x="284" y="1447" on="1"/>
      </contour>
    </TTGlyph>
    <TTGlyph name="glyph48" xMin="142" yMin="226" xMax="842" yMax="1588">
      <contour>
        <pt x="142" y="226" on="1"/>
        <pt x="142" y="1588" on="1"/>
        <pt x="842" y="1588" on="1"/>
        <pt x="842" y="226" on="1"/>
      </contour>
      <contour>
        <pt x="284" y="368" on="1"/>
        <pt x="700" y="368" on="1"/>
        <pt x="700" y="1447" on="1"/>
        <pt x="284" y="1447" on="1"/>
      </contour>
    </TTGlyph>
    <TTGlyph name="glyph50" xMin="142" yMin="226" xMax="842" yMax="1588">
      <contour>
        <pt x="142" y="226" on="1"/>
        <pt x="142" y="1588" on="1"/>
        <pt x="842" y="1588" on="1"/>
        <pt x="842" y="226" on="1"/>
      </contour>
      <contour>
        <pt x="284" y="368" on="1"/>
        <pt x="700" y="368" on="1"/>
        <pt x="700" y="1447" on="1"/>
        <pt x="284" y="1447" on="1"/>
      </contour>
    </TTGlyph>
    <TTGlyph name="glyph51" xMin="142" yMin="226" xMax="842" yMax="1588">
      <contour>
        <pt x="142" y="226" on="1"/>
        <pt x="142" y="1588" on="1"/>
        <pt x="842" y="1588" on="1"/>
        <pt x="842" y="226" on="1"/>
      </contour>
      <contour>
        <pt x="284" y="368" on="1"/>
        <pt x="700" y="368" on="1"/>
        <pt x="700" y="1447" on="1"/>
        <pt x="284" y="1447" on="1"/>
      </contour>
    </TTGlyph>
    <TTGlyph name="greater" xMin="142" yMin="226" xMax="842" yMax="1588">
      <contour>
        <pt x="142" y="226" on="1"/>
        <pt x="142" y="1588" on="1"/>
        <pt x="842" y="1588" on="1"/>
        <pt x="842" y="226" on="1"/>
      </contour>
      <contour>
        <pt x="284" y="368" on="1"/>
        <pt x="700" y="368" on="1"/>
        <pt x="700" y="1447" on="1"/>
        <pt x="284" y="1447" on="1"/>
      </contour>
    </TTGlyph>
    <TTGlyph name="hahhamzabovefinal" xMin="142" yMin="226" xMax="842" yMax="1588">
      <contour>
        <pt x="142" y="226" on="1"/>
        <pt x="142" y="1588" on="1"/>
        <pt x="842" y="1588" on="1"/>
        <pt x="842" y="226" on="1"/>
      </contour>
      <contour>
        <pt x="284" y="368" on="1"/>
        <pt x="700" y="368" on="1"/>
        <pt x="700" y="1447" on="1"/>
        <pt x="284" y="1447" on="1"/>
      </contour>
    </TTGlyph>
    <TTGlyph name="hahhamzaboveinitial" xMin="142" yMin="226" xMax="842" yMax="1588">
      <contour>
        <pt x="142" y="226" on="1"/>
        <pt x="142" y="1588" on="1"/>
        <pt x="842" y="1588" on="1"/>
        <pt x="842" y="226" on="1"/>
      </contour>
      <contour>
        <pt x="284" y="368" on="1"/>
        <pt x="700" y="368" on="1"/>
        <pt x="700" y="1447" on="1"/>
        <pt x="284" y="1447" on="1"/>
      </contour>
    </TTGlyph>
    <TTGlyph name="hahhamzabovemedial" xMin="142" yMin="226" xMax="842" yMax="1588">
      <contour>
        <pt x="142" y="226" on="1"/>
        <pt x="142" y="1588" on="1"/>
        <pt x="842" y="1588" on="1"/>
        <pt x="842" y="226" on="1"/>
      </contour>
      <contour>
        <pt x="284" y="368" on="1"/>
        <pt x="700" y="368" on="1"/>
        <pt x="700" y="1447" on="1"/>
        <pt x="284" y="1447" on="1"/>
      </contour>
    </TTGlyph>
    <TTGlyph name="hahthreedotsabovefinal" xMin="142" yMin="226" xMax="842" yMax="1588">
      <contour>
        <pt x="142" y="226" on="1"/>
        <pt x="142" y="1588" on="1"/>
        <pt x="842" y="1588" on="1"/>
        <pt x="842" y="226" on="1"/>
      </contour>
      <contour>
        <pt x="284" y="368" on="1"/>
        <pt x="700" y="368" on="1"/>
        <pt x="700" y="1447" on="1"/>
        <pt x="284" y="1447" on="1"/>
      </contour>
    </TTGlyph>
    <TTGlyph name="hahthreedotsaboveinitial" xMin="142" yMin="226" xMax="842" yMax="1588">
      <contour>
        <pt x="142" y="226" on="1"/>
        <pt x="142" y="1588" on="1"/>
        <pt x="842" y="1588" on="1"/>
        <pt x="842" y="226" on="1"/>
      </contour>
      <contour>
        <pt x="284" y="368" on="1"/>
        <pt x="700" y="368" on="1"/>
        <pt x="700" y="1447" on="1"/>
        <pt x="284" y="1447" on="1"/>
      </contour>
    </TTGlyph>
    <TTGlyph name="hahthreedotsabovemedial" xMin="142" yMin="226" xMax="842" yMax="1588">
      <contour>
        <pt x="142" y="226" on="1"/>
        <pt x="142" y="1588" on="1"/>
        <pt x="842" y="1588" on="1"/>
        <pt x="842" y="226" on="1"/>
      </contour>
      <contour>
        <pt x="284" y="368" on="1"/>
        <pt x="700" y="368" on="1"/>
        <pt x="700" y="1447" on="1"/>
        <pt x="284" y="1447" on="1"/>
      </contour>
    </TTGlyph>
    <TTGlyph name="hehdoachashmeefinalarabic" xMin="142" yMin="226" xMax="842" yMax="1588">
      <contour>
        <pt x="142" y="226" on="1"/>
        <pt x="142" y="1588" on="1"/>
        <pt x="842" y="1588" on="1"/>
        <pt x="842" y="226" on="1"/>
      </contour>
      <contour>
        <pt x="284" y="368" on="1"/>
        <pt x="700" y="368" on="1"/>
        <pt x="700" y="1447" on="1"/>
        <pt x="284" y="1447" on="1"/>
      </contour>
    </TTGlyph>
    <TTGlyph name="hehdoachashmeeinitialarabic" xMin="142" yMin="226" xMax="842" yMax="1588">
      <contour>
        <pt x="142" y="226" on="1"/>
        <pt x="142" y="1588" on="1"/>
        <pt x="842" y="1588" on="1"/>
        <pt x="842" y="226" on="1"/>
      </contour>
      <contour>
        <pt x="284" y="368" on="1"/>
        <pt x="700" y="368" on="1"/>
        <pt x="700" y="1447" on="1"/>
        <pt x="284" y="1447" on="1"/>
      </contour>
    </TTGlyph>
    <TTGlyph name="hehdoachashmeemedialarabic" xMin="142" yMin="226" xMax="842" yMax="1588">
      <contour>
        <pt x="142" y="226" on="1"/>
        <pt x="142" y="1588" on="1"/>
        <pt x="842" y="1588" on="1"/>
        <pt x="842" y="226" on="1"/>
      </contour>
      <contour>
        <pt x="284" y="368" on="1"/>
        <pt x="700" y="368" on="1"/>
        <pt x="700" y="1447" on="1"/>
        <pt x="284" y="1447" on="1"/>
      </contour>
    </TTGlyph>
    <TTGlyph name="hehfinalaltonearabic" xMin="142" yMin="226" xMax="842" yMax="1588">
      <contour>
        <pt x="142" y="226" on="1"/>
        <pt x="142" y="1588" on="1"/>
        <pt x="842" y="1588" on="1"/>
        <pt x="842" y="226" on="1"/>
      </contour>
      <contour>
        <pt x="284" y="368" on="1"/>
        <pt x="700" y="368" on="1"/>
        <pt x="700" y="1447" on="1"/>
        <pt x="284" y="1447" on="1"/>
      </contour>
    </TTGlyph>
    <TTGlyph name="hehhamzaabovefinalarabic" xMin="142" yMin="226" xMax="842" yMax="1588">
      <contour>
        <pt x="142" y="226" on="1"/>
        <pt x="142" y="1588" on="1"/>
        <pt x="842" y="1588" on="1"/>
        <pt x="842" y="226" on="1"/>
      </contour>
      <contour>
        <pt x="284" y="368" on="1"/>
        <pt x="700" y="368" on="1"/>
        <pt x="700" y="1447" on="1"/>
        <pt x="284" y="1447" on="1"/>
      </contour>
    </TTGlyph>
    <TTGlyph name="hehinitialaltonearabic" xMin="142" yMin="226" xMax="842" yMax="1588">
      <contour>
        <pt x="142" y="226" on="1"/>
        <pt x="142" y="1588" on="1"/>
        <pt x="842" y="1588" on="1"/>
        <pt x="842" y="226" on="1"/>
      </contour>
      <contour>
        <pt x="284" y="368" on="1"/>
        <pt x="700" y="368" on="1"/>
        <pt x="700" y="1447" on="1"/>
        <pt x="284" y="1447" on="1"/>
      </contour>
    </TTGlyph>
    <TTGlyph name="hehmedialaltonearabic" xMin="142" yMin="226" xMax="842" yMax="1588">
      <contour>
        <pt x="142" y="226" on="1"/>
        <pt x="142" y="1588" on="1"/>
        <pt x="842" y="1588" on="1"/>
        <pt x="842" y="226" on="1"/>
      </contour>
      <contour>
        <pt x="284" y="368" on="1"/>
        <pt x="700" y="368" on="1"/>
        <pt x="700" y="1447" on="1"/>
        <pt x="284" y="1447" on="1"/>
      </contour>
    </TTGlyph>
    <TTGlyph name="hyphen" xMin="2" yMin="-574" xMax="2546" yMax="1785">
      <contour>
        <pt x="2404" y="1042" on="1"/>
        <pt x="2364" y="1018" on="1"/>
        <pt x="2364" y="1029" on="0"/>
        <pt x="2351" y="1055" on="1"/>
        <pt x="2332" y="1080" on="0"/>
        <pt x="2188" y="1203" on="0"/>
        <pt x="2172" y="1226" on="1"/>
        <pt x="2094" y="1335" on="0"/>
        <pt x="2087" y="1449" on="1"/>
        <pt x="2002" y="1431" on="0"/>
        <pt x="2002" y="1248" on="1"/>
        <pt x="2002" y="1160" on="0"/>
        <pt x="2022" y="1110" on="1"/>
        <pt x="1997" y="1131" on="0"/>
        <pt x="1971" y="1153" on="1"/>
        <pt x="1962" y="1201" on="0"/>
        <pt x="1962" y="1248" on="1"/>
        <pt x="1962" y="1351" on="0"/>
        <pt x="2046" y="1502" on="0"/>
        <pt x="2118" y="1523" on="1"/>
        <pt x="2121" y="1372" on="0"/>
        <pt x="2209" y="1254" on="1"/>
        <pt x="2226" y="1230" on="0"/>
        <pt x="2310" y="1158" on="1"/>
        <pt x="2383" y="1094" on="0"/>
        <pt x="2397" y="1063" on="1"/>
        <pt x="2404" y="1033" on="0"/>
      </contour>
      <contour>
        <pt x="2181" y="576" on="1"/>
        <pt x="2181" y="202" on="0"/>
        <pt x="1649" y="-330" on="0"/>
        <pt x="1274" y="-330" on="1"/>
        <pt x="900" y="-330" on="0"/>
        <pt x="367" y="202" on="0"/>
        <pt x="367" y="576" on="1"/>
        <pt x="367" y="939" on="0"/>
        <pt x="623" y="1202" on="1"/>
        <pt x="838" y="1423" on="0"/>
        <pt x="1086" y="1461" on="1"/>
        <pt x="1139" y="1469" on="0"/>
        <pt x="1182" y="1505" on="1"/>
        <pt x="1232" y="1547" on="0"/>
        <pt x="1232" y="1602" on="1"/>
        <pt x="1232" y="1662" on="0"/>
        <pt x="1146" y="1748" on="0"/>
        <pt x="1086" y="1748" on="1"/>
        <pt x="1027" y="1748" on="0"/>
        <pt x="938" y="1662" on="0"/>
        <pt x="938" y="1602" on="1"/>
        <pt x="938" y="1534" on="0"/>
        <pt x="994" y="1488" on="1"/>
        <pt x="882" y="1475" on="0"/>
        <pt x="745" y="1418" on="1"/>
        <pt x="652" y="1380" on="0"/>
        <pt x="584" y="1315" on="1"/>
        <pt x="539" y="1321" on="1"/>
        <pt x="602" y="1394" on="0"/>
        <pt x="739" y="1457" on="1"/>
        <pt x="806" y="1487" on="0"/>
        <pt x="931" y="1512" on="1"/>
        <pt x="901" y="1556" on="0"/>
        <pt x="901" y="1614" on="1"/>
        <pt x="901" y="1688" on="0"/>
        <pt x="960" y="1738" on="1"/>
        <pt x="1015" y="1785" on="0"/>
        <pt x="1086" y="1785" on="1"/>
        <pt x="1160" y="1785" on="0"/>
        <pt x="1216" y="1736" on="1"/>
        <pt x="1274" y="1684" on="0"/>
        <pt x="1274" y="1610" on="1"/>
        <pt x="1274" y="1531" on="0"/>
        <pt x="1214" y="1479" on="1"/>
        <pt x="1236" y="1481" on="0"/>
        <pt x="1274" y="1481" on="1"/>
        <pt x="1314" y="1481" on="0"/>
        <pt x="1335" y="1479" on="1"/>
        <pt x="1274" y="1531" on="0"/>
        <pt x="1274" y="1610" on="1"/>
        <pt x="1274" y="1684" on="0"/>
        <pt x="1332" y="1736" on="1"/>
        <pt x="1387" y="1785" on="0"/>
        <pt x="1462" y="1785" on="1"/>
        <pt x="1534" y="1785" on="0"/>
        <pt x="1589" y="1738" on="1"/>
        <pt x="1649" y="1689" on="0"/>
        <pt x="1649" y="1614" on="1"/>
        <pt x="1649" y="1556" on="0"/>
        <pt x="1619" y="1512" on="1"/>
        <pt x="1740" y="1488" on="0"/>
        <pt x="1808" y="1457" on="1"/>
        <pt x="1944" y="1396" on="0"/>
        <pt x="2010" y="1321" on="1"/>
        <pt x="1966" y="1315" on="1"/>
        <pt x="1892" y="1382" on="0"/>
        <pt x="1803" y="1418" on="1"/>
        <pt x="1663" y="1476" on="0"/>
        <pt x="1554" y="1488" on="1"/>
        <pt x="1608" y="1532" on="0"/>
        <pt x="1608" y="1602" on="1"/>
        <pt x="1608" y="1662" on="0"/>
        <pt x="1522" y="1748" on="0"/>
        <pt x="1462" y="1748" on="1"/>
        <pt x="1403" y="1748" on="0"/>
        <pt x="1317" y="1662" on="0"/>
        <pt x="1317" y="1602" on="1"/>
        <pt x="1317" y="1547" on="0"/>
        <pt x="1367" y="1505" on="1"/>
        <pt x="1409" y="1469" on="0"/>
        <pt x="1462" y="1461" on="1"/>
        <pt x="1712" y="1423" on="0"/>
        <pt x="1926" y="1202" on="1"/>
        <pt x="2181" y="940" on="0"/>
      </contour>
      <contour>
        <pt x="580" y="1153" on="1"/>
        <pt x="524" y="1105" on="0"/>
        <pt x="525" y="1110" on="1"/>
        <pt x="546" y="1161" on="0"/>
        <pt x="546" y="1249" on="1"/>
        <pt x="546" y="1431" on="0"/>
        <pt x="463" y="1449" on="1"/>
        <pt x="456" y="1333" on="0"/>
        <pt x="378" y="1226" on="1"/>
        <pt x="362" y="1203" on="0"/>
        <pt x="217" y="1081" on="0"/>
        <pt x="198" y="1055" on="1"/>
        <pt x="185" y="1029" on="0"/>
        <pt x="185" y="1018" on="1"/>
        <pt x="146" y="1042" on="1"/>
        <pt x="146" y="1053" on="0"/>
        <pt x="154" y="1063" on="1"/>
        <pt x="167" y="1094" on="0"/>
        <pt x="240" y="1158" on="1"/>
        <pt x="324" y="1230" on="0"/>
        <pt x="341" y="1254" on="1"/>
        <pt x="426" y="1368" on="0"/>
        <pt x="432" y="1523" on="1"/>
        <pt x="503" y="1502" on="0"/>
        <pt x="589" y="1350" on="0"/>
        <pt x="589" y="1247" on="1"/>
        <pt x="589" y="1200" on="0"/>
      </contour>
      <contour>
        <pt x="2546" y="1105" on="1"/>
        <pt x="2478" y="1004" on="0"/>
        <pt x="2485" y="819" on="1"/>
        <pt x="2487" y="784" on="0"/>
        <pt x="2532" y="637" on="0"/>
        <pt x="2533" y="605" on="1"/>
        <pt x="2535" y="569" on="0"/>
        <pt x="2472" y="496" on="0"/>
        <pt x="2439" y="496" on="1"/>
        <pt x="2391" y="496" on="0"/>
        <pt x="2369" y="520" on="1"/>
        <pt x="2369" y="67" on="0"/>
        <pt x="1729" y="-574" on="0"/>
        <pt x="1274" y="-574" on="1"/>
        <pt x="820" y="-574" on="0"/>
        <pt x="179" y="67" on="0"/>
        <pt x="179" y="520" on="1"/>
        <pt x="158" y="496" on="0"/>
        <pt x="111" y="496" on="1"/>
        <pt x="78" y="496" on="0"/>
        <pt x="13" y="569" on="0"/>
        <pt x="15" y="605" on="1"/>
        <pt x="17" y="637" on="0"/>
        <pt x="62" y="785" on="0"/>
        <pt x="63" y="819" on="1"/>
        <pt x="71" y="1004" on="0"/>
        <pt x="2" y="1105" on="1"/>
        <pt x="202" y="1092" on="0"/>
        <pt x="263" y="945" on="1"/>
        <pt x="258" y="822" on="1"/>
        <pt x="253" y="895" on="0"/>
        <pt x="209" y="962" on="1"/>
        <pt x="154" y="1046" on="0"/>
        <pt x="67" y="1049" on="1"/>
        <pt x="105" y="992" on="0"/>
        <pt x="105" y="819" on="1"/>
        <pt x="105" y="787" on="0"/>
        <pt x="85" y="718" on="1"/>
        <pt x="63" y="646" on="0"/>
        <pt x="61" y="618" on="1"/>
        <pt x="58" y="542" on="0"/>
        <pt x="131" y="542" on="1"/>
        <pt x="170" y="542" on="0"/>
        <pt x="204" y="594" on="1"/>
        <pt x="214" y="609" on="0"/>
        <pt x="226" y="623" on="1"/>
        <pt x="220" y="561" on="0"/>
        <pt x="220" y="520" on="1"/>
        <pt x="220" y="91" on="0"/>
        <pt x="842" y="-521" on="0"/>
        <pt x="1274" y="-521" on="1"/>
        <pt x="1707" y="-521" on="0"/>
        <pt x="2330" y="91" on="0"/>
        <pt x="2330" y="520" on="1"/>
        <pt x="2330" y="561" on="0"/>
        <pt x="2324" y="623" on="1"/>
        <pt x="2336" y="609" on="0"/>
        <pt x="2347" y="595" on="1"/>
        <pt x="2380" y="542" on="0"/>
        <pt x="2417" y="542" on="1"/>
        <pt x="2493" y="542" on="0"/>
        <pt x="2489" y="618" on="1"/>
        <pt x="2487" y="646" on="0"/>
        <pt x="2465" y="718" on="1"/>
        <pt x="2442" y="787" on="0"/>
        <pt x="2442" y="819" on="1"/>
        <pt x="2442" y="990" on="0"/>
        <pt x="2483" y="1049" on="1"/>
        <pt x="2397" y="1046" on="0"/>
        <pt x="2340" y="962" on="1"/>
        <pt x="2295" y="895" on="0"/>
        <pt x="2290" y="822" on="1"/>
        <pt x="2288" y="945" on="1"/>
        <pt x="2348" y="1092" on="0"/>
      </contour>
      <contour>
        <pt x="2135" y="576" on="1"/>
        <pt x="2135" y="930" on="0"/>
        <pt x="1895" y="1173" on="1"/>
        <pt x="1708" y="1362" on="0"/>
        <pt x="1466" y="1418" on="1"/>
        <pt x="1386" y="1437" on="0"/>
        <pt x="1274" y="1437" on="1"/>
        <pt x="1164" y="1437" on="0"/>
        <pt x="1084" y="1418" on="1"/>
        <pt x="841" y="1362" on="0"/>
        <pt x="654" y="1173" on="1"/>
        <pt x="415" y="931" on="0"/>
        <pt x="415" y="576" on="1"/>
        <pt x="415" y="218" on="0"/>
        <pt x="916" y="-285" on="0"/>
        <pt x="1274" y="-285" on="1"/>
        <pt x="1633" y="-285" on="0"/>
        <pt x="2135" y="218" on="0"/>
      </contour>
      <contour>
        <pt x="1789" y="351" on="1"/>
        <pt x="1789" y="297" on="0"/>
        <pt x="1767" y="245" on="1"/>
        <pt x="1761" y="244" on="0"/>
        <pt x="1744" y="233" on="1"/>
        <pt x="1736" y="239" on="0"/>
        <pt x="1722" y="247" on="1"/>
        <pt x="1690" y="383" on="0"/>
        <pt x="1632" y="544" on="1"/>
        <pt x="1625" y="564" on="0"/>
        <pt x="1572" y="655" on="1"/>
        <pt x="1523" y="736" on="0"/>
        <pt x="1523" y="750" on="1"/>
        <pt x="1523" y="768" on="0"/>
        <pt x="1572" y="856" on="0"/>
        <pt x="1588" y="868" on="1"/>
        <pt x="1620" y="868" on="0"/>
        <pt x="1641" y="824" on="1"/>
        <pt x="1789" y="529" on="0"/>
      </contour>
      <contour>
        <pt x="1482" y="300" on="1"/>
        <pt x="1482" y="257" on="0"/>
        <pt x="1438" y="193" on="1"/>
        <pt x="1403" y="193" on="1"/>
        <pt x="1337" y="298" on="0"/>
        <pt x="1321" y="370" on="1"/>
        <pt x="1313" y="445" on="0"/>
        <pt x="1305" y="520" on="1"/>
        <pt x="1284" y="653" on="0"/>
        <pt x="1241" y="653" on="1"/>
        <pt x="1231" y="653" on="0"/>
        <pt x="1200" y="643" on="0"/>
        <pt x="1185" y="643" on="1"/>
        <pt x="1135" y="643" on="0"/>
        <pt x="1090" y="677" on="1"/>
        <pt x="1042" y="713" on="0"/>
        <pt x="1042" y="760" on="1"/>
        <pt x="1042" y="790" on="0"/>
        <pt x="1065" y="837" on="1"/>
        <pt x="1207" y="796" on="0"/>
        <pt x="1237" y="796" on="1"/>
        <pt x="1249" y="796" on="0"/>
        <pt x="1269" y="807" on="0"/>
        <pt x="1282" y="807" on="1"/>
        <pt x="1303" y="807" on="0"/>
        <pt x="1332" y="794" on="1"/>
        <pt x="1370" y="777" on="0"/>
        <pt x="1376" y="751" on="1"/>
        <pt x="1382" y="654" on="0"/>
        <pt x="1413" y="455" on="1"/>
        <pt x="1418" y="435" on="0"/>
        <pt x="1451" y="372" on="1"/>
        <pt x="1482" y="315" on="0"/>
      </contour>
      <contour>
        <pt x="1021" y="330" on="1"/>
        <pt x="1021" y="268" on="0"/>
        <pt x="999" y="234" on="1"/>
        <pt x="992" y="234" on="0"/>
        <pt x="975" y="223" on="1"/>
        <pt x="947" y="246" on="0"/>
        <pt x="938" y="287" on="1"/>
        <pt x="932" y="318" on="0"/>
        <pt x="925" y="350" on="1"/>
        <pt x="914" y="395" on="0"/>
        <pt x="885" y="472" on="1"/>
        <pt x="867" y="519" on="0"/>
        <pt x="807" y="633" on="1"/>
        <pt x="755" y="732" on="0"/>
        <pt x="755" y="745" on="1"/>
        <pt x="755" y="803" on="0"/>
        <pt x="810" y="858" on="1"/>
        <pt x="845" y="858" on="0"/>
        <pt x="863" y="824" on="1"/>
        <pt x="1021" y="536" on="0"/>
      </contour>
    </TTGlyph>
    <TTGlyph name="irghizufinal" xMin="142" yMin="226" xMax="842" yMax="1588">
      <contour>
        <pt x="142" y="226" on="1"/>
        <pt x="142" y="1588" on="1"/>
        <pt x="842" y="1588" on="1"/>
        <pt x="842" y="226" on="1"/>
      </contour>
      <contour>
        <pt x="284" y="368" on="1"/>
        <pt x="700" y="368" on="1"/>
        <pt x="700" y="1447" on="1"/>
        <pt x="284" y="1447" on="1"/>
      </contour>
    </TTGlyph>
    <TTGlyph name="jehfinalarabic" xMin="142" yMin="226" xMax="842" yMax="1588">
      <contour>
        <pt x="142" y="226" on="1"/>
        <pt x="142" y="1588" on="1"/>
        <pt x="842" y="1588" on="1"/>
        <pt x="842" y="226" on="1"/>
      </contour>
      <contour>
        <pt x="284" y="368" on="1"/>
        <pt x="700" y="368" on="1"/>
        <pt x="700" y="1447" on="1"/>
        <pt x="284" y="1447" on="1"/>
      </contour>
    </TTGlyph>
    <TTGlyph name="kafringfinal" xMin="142" yMin="226" xMax="842" yMax="1588">
      <contour>
        <pt x="142" y="226" on="1"/>
        <pt x="142" y="1588" on="1"/>
        <pt x="842" y="1588" on="1"/>
        <pt x="842" y="226" on="1"/>
      </contour>
      <contour>
        <pt x="284" y="368" on="1"/>
        <pt x="700" y="368" on="1"/>
        <pt x="700" y="1447" on="1"/>
        <pt x="284" y="1447" on="1"/>
      </contour>
    </TTGlyph>
    <TTGlyph name="kafringinitial" xMin="142" yMin="226" xMax="842" yMax="1588">
      <contour>
        <pt x="142" y="226" on="1"/>
        <pt x="142" y="1588" on="1"/>
        <pt x="842" y="1588" on="1"/>
        <pt x="842" y="226" on="1"/>
      </contour>
      <contour>
        <pt x="284" y="368" on="1"/>
        <pt x="700" y="368" on="1"/>
        <pt x="700" y="1447" on="1"/>
        <pt x="284" y="1447" on="1"/>
      </contour>
    </TTGlyph>
    <TTGlyph name="kafringmedial" xMin="142" yMin="226" xMax="842" yMax="1588">
      <contour>
        <pt x="142" y="226" on="1"/>
        <pt x="142" y="1588" on="1"/>
        <pt x="842" y="1588" on="1"/>
        <pt x="842" y="226" on="1"/>
      </contour>
      <contour>
        <pt x="284" y="368" on="1"/>
        <pt x="700" y="368" on="1"/>
        <pt x="700" y="1447" on="1"/>
        <pt x="284" y="1447" on="1"/>
      </contour>
    </TTGlyph>
    <TTGlyph name="kashidaautoarabic" xMin="142" yMin="226" xMax="842" yMax="1588">
      <contour>
        <pt x="142" y="226" on="1"/>
        <pt x="142" y="1588" on="1"/>
        <pt x="842" y="1588" on="1"/>
        <pt x="842" y="226" on="1"/>
      </contour>
      <contour>
        <pt x="284" y="368" on="1"/>
        <pt x="700" y="368" on="1"/>
        <pt x="700" y="1447" on="1"/>
        <pt x="284" y="1447" on="1"/>
      </contour>
    </TTGlyph>
    <TTGlyph name="kashidaautonosidebearingarabic" xMin="142" yMin="226" xMax="842" yMax="1588">
      <contour>
        <pt x="142" y="226" on="1"/>
        <pt x="142" y="1588" on="1"/>
        <pt x="842" y="1588" on="1"/>
        <pt x="842" y="226" on="1"/>
      </contour>
      <contour>
        <pt x="284" y="368" on="1"/>
        <pt x="700" y="368" on="1"/>
        <pt x="700" y="1447" on="1"/>
        <pt x="284" y="1447" on="1"/>
      </contour>
    </TTGlyph>
    <TTGlyph name="kehehfinalarabic" xMin="142" yMin="226" xMax="842" yMax="1588">
      <contour>
        <pt x="142" y="226" on="1"/>
        <pt x="142" y="1588" on="1"/>
        <pt x="842" y="1588" on="1"/>
        <pt x="842" y="226" on="1"/>
      </contour>
      <contour>
        <pt x="284" y="368" on="1"/>
        <pt x="700" y="368" on="1"/>
        <pt x="700" y="1447" on="1"/>
        <pt x="284" y="1447" on="1"/>
      </contour>
    </TTGlyph>
    <TTGlyph name="kehehinitialarabic" xMin="142" yMin="226" xMax="842" yMax="1588">
      <contour>
        <pt x="142" y="226" on="1"/>
        <pt x="142" y="1588" on="1"/>
        <pt x="842" y="1588" on="1"/>
        <pt x="842" y="226" on="1"/>
      </contour>
      <contour>
        <pt x="284" y="368" on="1"/>
        <pt x="700" y="368" on="1"/>
        <pt x="700" y="1447" on="1"/>
        <pt x="284" y="1447" on="1"/>
      </contour>
    </TTGlyph>
    <TTGlyph name="kehehmedialarabic" xMin="142" yMin="226" xMax="842" yMax="1588">
      <contour>
        <pt x="142" y="226" on="1"/>
        <pt x="142" y="1588" on="1"/>
        <pt x="842" y="1588" on="1"/>
        <pt x="842" y="226" on="1"/>
      </contour>
      <contour>
        <pt x="284" y="368" on="1"/>
        <pt x="700" y="368" on="1"/>
        <pt x="700" y="1447" on="1"/>
        <pt x="284" y="1447" on="1"/>
      </contour>
    </TTGlyph>
    <TTGlyph name="kirghizyifinal" xMin="142" yMin="226" xMax="842" yMax="1588">
      <contour>
        <pt x="142" y="226" on="1"/>
        <pt x="142" y="1588" on="1"/>
        <pt x="842" y="1588" on="1"/>
        <pt x="842" y="226" on="1"/>
      </contour>
      <contour>
        <pt x="284" y="368" on="1"/>
        <pt x="700" y="368" on="1"/>
        <pt x="700" y="1447" on="1"/>
        <pt x="284" y="1447" on="1"/>
      </contour>
    </TTGlyph>
    <TTGlyph name="lammeemjeeminitialarabic" xMin="142" yMin="226" xMax="842" yMax="1588">
      <contour>
        <pt x="142" y="226" on="1"/>
        <pt x="142" y="1588" on="1"/>
        <pt x="842" y="1588" on="1"/>
        <pt x="842" y="226" on="1"/>
      </contour>
      <contour>
        <pt x="284" y="368" on="1"/>
        <pt x="700" y="368" on="1"/>
        <pt x="700" y="1447" on="1"/>
        <pt x="284" y="1447" on="1"/>
      </contour>
    </TTGlyph>
    <TTGlyph name="lammeemkhahinitialarabic" xMin="142" yMin="226" xMax="842" yMax="1588">
      <contour>
        <pt x="142" y="226" on="1"/>
        <pt x="142" y="1588" on="1"/>
        <pt x="842" y="1588" on="1"/>
        <pt x="842" y="226" on="1"/>
      </contour>
      <contour>
        <pt x="284" y="368" on="1"/>
        <pt x="700" y="368" on="1"/>
        <pt x="700" y="1447" on="1"/>
        <pt x="284" y="1447" on="1"/>
      </contour>
    </TTGlyph>
    <TTGlyph name="lamthreedotsabovefinal" xMin="142" yMin="226" xMax="842" yMax="1588">
      <contour>
        <pt x="142" y="226" on="1"/>
        <pt x="142" y="1588" on="1"/>
        <pt x="842" y="1588" on="1"/>
        <pt x="842" y="226" on="1"/>
      </contour>
      <contour>
        <pt x="284" y="368" on="1"/>
        <pt x="700" y="368" on="1"/>
        <pt x="700" y="1447" on="1"/>
        <pt x="284" y="1447" on="1"/>
      </contour>
    </TTGlyph>
    <TTGlyph name="lamthreedotsaboveinitial" xMin="142" yMin="226" xMax="842" yMax="1588">
      <contour>
        <pt x="142" y="226" on="1"/>
        <pt x="142" y="1588" on="1"/>
        <pt x="842" y="1588" on="1"/>
        <pt x="842" y="226" on="1"/>
      </contour>
      <contour>
        <pt x="284" y="368" on="1"/>
        <pt x="700" y="368" on="1"/>
        <pt x="700" y="1447" on="1"/>
        <pt x="284" y="1447" on="1"/>
      </contour>
    </TTGlyph>
    <TTGlyph name="lamthreedotsabovemedial" xMin="142" yMin="226" xMax="842" yMax="1588">
      <contour>
        <pt x="142" y="226" on="1"/>
        <pt x="142" y="1588" on="1"/>
        <pt x="842" y="1588" on="1"/>
        <pt x="842" y="226" on="1"/>
      </contour>
      <contour>
        <pt x="284" y="368" on="1"/>
        <pt x="700" y="368" on="1"/>
        <pt x="700" y="1447" on="1"/>
        <pt x="284" y="1447" on="1"/>
      </contour>
    </TTGlyph>
    <TTGlyph name="less" xMin="142" yMin="226" xMax="842" yMax="1588">
      <contour>
        <pt x="142" y="226" on="1"/>
        <pt x="142" y="1588" on="1"/>
        <pt x="842" y="1588" on="1"/>
        <pt x="842" y="226" on="1"/>
      </contour>
      <contour>
        <pt x="284" y="368" on="1"/>
        <pt x="700" y="368" on="1"/>
        <pt x="700" y="1447" on="1"/>
        <pt x="284" y="1447" on="1"/>
      </contour>
    </TTGlyph>
    <TTGlyph name="meemmeemisolatedarabic" xMin="142" yMin="226" xMax="842" yMax="1588">
      <contour>
        <pt x="142" y="226" on="1"/>
        <pt x="142" y="1588" on="1"/>
        <pt x="842" y="1588" on="1"/>
        <pt x="842" y="226" on="1"/>
      </contour>
      <contour>
        <pt x="284" y="368" on="1"/>
        <pt x="700" y="368" on="1"/>
        <pt x="700" y="1447" on="1"/>
        <pt x="284" y="1447" on="1"/>
      </contour>
    </TTGlyph>
    <TTGlyph name="multiply" xMin="142" yMin="226" xMax="842" yMax="1588">
      <contour>
        <pt x="142" y="226" on="1"/>
        <pt x="142" y="1588" on="1"/>
        <pt x="842" y="1588" on="1"/>
        <pt x="842" y="226" on="1"/>
      </contour>
      <contour>
        <pt x="284" y="368" on="1"/>
        <pt x="700" y="368" on="1"/>
        <pt x="700" y="1447" on="1"/>
        <pt x="284" y="1447" on="1"/>
      </contour>
    </TTGlyph>
    <TTGlyph name="noonghunnafinalarabic" xMin="142" yMin="226" xMax="842" yMax="1588">
      <contour>
        <pt x="142" y="226" on="1"/>
        <pt x="142" y="1588" on="1"/>
        <pt x="842" y="1588" on="1"/>
        <pt x="842" y="226" on="1"/>
      </contour>
      <contour>
        <pt x="284" y="368" on="1"/>
        <pt x="700" y="368" on="1"/>
        <pt x="700" y="1447" on="1"/>
        <pt x="284" y="1447" on="1"/>
      </contour>
    </TTGlyph>
    <TTGlyph name="noonjeemisolatedarabic" xMin="142" yMin="226" xMax="842" yMax="1588">
      <contour>
        <pt x="142" y="226" on="1"/>
        <pt x="142" y="1588" on="1"/>
        <pt x="842" y="1588" on="1"/>
        <pt x="842" y="226" on="1"/>
      </contour>
      <contour>
        <pt x="284" y="368" on="1"/>
        <pt x="700" y="368" on="1"/>
        <pt x="700" y="1447" on="1"/>
        <pt x="284" y="1447" on="1"/>
      </contour>
    </TTGlyph>
    <TTGlyph name="noonmeemisolatedarabic" xMin="142" yMin="226" xMax="842" yMax="1588">
      <contour>
        <pt x="142" y="226" on="1"/>
        <pt x="142" y="1588" on="1"/>
        <pt x="842" y="1588" on="1"/>
        <pt x="842" y="226" on="1"/>
      </contour>
      <contour>
        <pt x="284" y="368" on="1"/>
        <pt x="700" y="368" on="1"/>
        <pt x="700" y="1447" on="1"/>
        <pt x="284" y="1447" on="1"/>
      </contour>
    </TTGlyph>
    <TTGlyph name="noonringfinal" xMin="142" yMin="226" xMax="842" yMax="1588">
      <contour>
        <pt x="142" y="226" on="1"/>
        <pt x="142" y="1588" on="1"/>
        <pt x="842" y="1588" on="1"/>
        <pt x="842" y="226" on="1"/>
      </contour>
      <contour>
        <pt x="284" y="368" on="1"/>
        <pt x="700" y="368" on="1"/>
        <pt x="700" y="1447" on="1"/>
        <pt x="284" y="1447" on="1"/>
      </contour>
    </TTGlyph>
    <TTGlyph name="noonringinitial" xMin="142" yMin="226" xMax="842" yMax="1588">
      <contour>
        <pt x="142" y="226" on="1"/>
        <pt x="142" y="1588" on="1"/>
        <pt x="842" y="1588" on="1"/>
        <pt x="842" y="226" on="1"/>
      </contour>
      <contour>
        <pt x="284" y="368" on="1"/>
        <pt x="700" y="368" on="1"/>
        <pt x="700" y="1447" on="1"/>
        <pt x="284" y="1447" on="1"/>
      </contour>
    </TTGlyph>
    <TTGlyph name="noonringmedial" xMin="142" yMin="226" xMax="842" yMax="1588">
      <contour>
        <pt x="142" y="226" on="1"/>
        <pt x="142" y="1588" on="1"/>
        <pt x="842" y="1588" on="1"/>
        <pt x="842" y="226" on="1"/>
      </contour>
      <contour>
        <pt x="284" y="368" on="1"/>
        <pt x="700" y="368" on="1"/>
        <pt x="700" y="1447" on="1"/>
        <pt x="284" y="1447" on="1"/>
      </contour>
    </TTGlyph>
    <TTGlyph name="numbersign" xMin="142" yMin="226" xMax="842" yMax="1588">
      <contour>
        <pt x="142" y="226" on="1"/>
        <pt x="142" y="1588" on="1"/>
        <pt x="842" y="1588" on="1"/>
        <pt x="842" y="226" on="1"/>
      </contour>
      <contour>
        <pt x="284" y="368" on="1"/>
        <pt x="700" y="368" on="1"/>
        <pt x="700" y="1447" on="1"/>
        <pt x="284" y="1447" on="1"/>
      </contour>
    </TTGlyph>
    <TTGlyph name="parenleft" xMin="142" yMin="226" xMax="842" yMax="1588">
      <contour>
        <pt x="142" y="226" on="1"/>
        <pt x="142" y="1588" on="1"/>
        <pt x="842" y="1588" on="1"/>
        <pt x="842" y="226" on="1"/>
      </contour>
      <contour>
        <pt x="284" y="368" on="1"/>
        <pt x="700" y="368" on="1"/>
        <pt x="700" y="1447" on="1"/>
        <pt x="284" y="1447" on="1"/>
      </contour>
    </TTGlyph>
    <TTGlyph name="parenright" xMin="142" yMin="226" xMax="842" yMax="1588">
      <contour>
        <pt x="142" y="226" on="1"/>
        <pt x="142" y="1588" on="1"/>
        <pt x="842" y="1588" on="1"/>
        <pt x="842" y="226" on="1"/>
      </contour>
      <contour>
        <pt x="284" y="368" on="1"/>
        <pt x="700" y="368" on="1"/>
        <pt x="700" y="1447" on="1"/>
        <pt x="284" y="1447" on="1"/>
      </contour>
    </TTGlyph>
    <TTGlyph name="pashtoefinal" xMin="142" yMin="226" xMax="842" yMax="1588">
      <contour>
        <pt x="142" y="226" on="1"/>
        <pt x="142" y="1588" on="1"/>
        <pt x="842" y="1588" on="1"/>
        <pt x="842" y="226" on="1"/>
      </contour>
      <contour>
        <pt x="284" y="368" on="1"/>
        <pt x="700" y="368" on="1"/>
        <pt x="700" y="1447" on="1"/>
        <pt x="284" y="1447" on="1"/>
      </contour>
    </TTGlyph>
    <TTGlyph name="pashtoeinitial" xMin="142" yMin="226" xMax="842" yMax="1588">
      <contour>
        <pt x="142" y="226" on="1"/>
        <pt x="142" y="1588" on="1"/>
        <pt x="842" y="1588" on="1"/>
        <pt x="842" y="226" on="1"/>
      </contour>
      <contour>
        <pt x="284" y="368" on="1"/>
        <pt x="700" y="368" on="1"/>
        <pt x="700" y="1447" on="1"/>
        <pt x="284" y="1447" on="1"/>
      </contour>
    </TTGlyph>
    <TTGlyph name="pashtoemedial" xMin="142" yMin="226" xMax="842" yMax="1588">
      <contour>
        <pt x="142" y="226" on="1"/>
        <pt x="142" y="1588" on="1"/>
        <pt x="842" y="1588" on="1"/>
        <pt x="842" y="226" on="1"/>
      </contour>
      <contour>
        <pt x="284" y="368" on="1"/>
        <pt x="700" y="368" on="1"/>
        <pt x="700" y="1447" on="1"/>
        <pt x="284" y="1447" on="1"/>
      </contour>
    </TTGlyph>
    <TTGlyph name="pehfinalarabic" xMin="142" yMin="226" xMax="842" yMax="1588">
      <contour>
        <pt x="142" y="226" on="1"/>
        <pt x="142" y="1588" on="1"/>
        <pt x="842" y="1588" on="1"/>
        <pt x="842" y="226" on="1"/>
      </contour>
      <contour>
        <pt x="284" y="368" on="1"/>
        <pt x="700" y="368" on="1"/>
        <pt x="700" y="1447" on="1"/>
        <pt x="284" y="1447" on="1"/>
      </contour>
    </TTGlyph>
    <TTGlyph name="pehinitialarabic" xMin="142" yMin="226" xMax="842" yMax="1588">
      <contour>
        <pt x="142" y="226" on="1"/>
        <pt x="142" y="1588" on="1"/>
        <pt x="842" y="1588" on="1"/>
        <pt x="842" y="226" on="1"/>
      </contour>
      <contour>
        <pt x="284" y="368" on="1"/>
        <pt x="700" y="368" on="1"/>
        <pt x="700" y="1447" on="1"/>
        <pt x="284" y="1447" on="1"/>
      </contour>
    </TTGlyph>
    <TTGlyph name="pehmedialarabic" xMin="142" yMin="226" xMax="842" yMax="1588">
      <contour>
        <pt x="142" y="226" on="1"/>
        <pt x="142" y="1588" on="1"/>
        <pt x="842" y="1588" on="1"/>
        <pt x="842" y="226" on="1"/>
      </contour>
      <contour>
        <pt x="284" y="368" on="1"/>
        <pt x="700" y="368" on="1"/>
        <pt x="700" y="1447" on="1"/>
        <pt x="284" y="1447" on="1"/>
      </contour>
    </TTGlyph>
    <TTGlyph name="percent" xMin="142" yMin="226" xMax="842" yMax="1588">
      <contour>
        <pt x="142" y="226" on="1"/>
        <pt x="142" y="1588" on="1"/>
        <pt x="842" y="1588" on="1"/>
        <pt x="842" y="226" on="1"/>
      </contour>
      <contour>
        <pt x="284" y="368" on="1"/>
        <pt x="700" y="368" on="1"/>
        <pt x="700" y="1447" on="1"/>
        <pt x="284" y="1447" on="1"/>
      </contour>
    </TTGlyph>
    <TTGlyph name="period" xMin="142" yMin="226" xMax="842" yMax="1588">
      <contour>
        <pt x="142" y="226" on="1"/>
        <pt x="142" y="1588" on="1"/>
        <pt x="842" y="1588" on="1"/>
        <pt x="842" y="226" on="1"/>
      </contour>
      <contour>
        <pt x="284" y="368" on="1"/>
        <pt x="700" y="368" on="1"/>
        <pt x="700" y="1447" on="1"/>
        <pt x="284" y="1447" on="1"/>
      </contour>
    </TTGlyph>
    <TTGlyph name="plus" xMin="142" yMin="226" xMax="842" yMax="1588">
      <contour>
        <pt x="142" y="226" on="1"/>
        <pt x="142" y="1588" on="1"/>
        <pt x="842" y="1588" on="1"/>
        <pt x="842" y="226" on="1"/>
      </contour>
      <contour>
        <pt x="284" y="368" on="1"/>
        <pt x="700" y="368" on="1"/>
        <pt x="700" y="1447" on="1"/>
        <pt x="284" y="1447" on="1"/>
      </contour>
    </TTGlyph>
    <TTGlyph name="quotedbl" xMin="142" yMin="226" xMax="842" yMax="1588">
      <contour>
        <pt x="142" y="226" on="1"/>
        <pt x="142" y="1588" on="1"/>
        <pt x="842" y="1588" on="1"/>
        <pt x="842" y="226" on="1"/>
      </contour>
      <contour>
        <pt x="284" y="368" on="1"/>
        <pt x="700" y="368" on="1"/>
        <pt x="700" y="1447" on="1"/>
        <pt x="284" y="1447" on="1"/>
      </contour>
    </TTGlyph>
    <TTGlyph name="quotesingle" xMin="142" yMin="226" xMax="842" yMax="1588">
      <contour>
        <pt x="142" y="226" on="1"/>
        <pt x="142" y="1588" on="1"/>
        <pt x="842" y="1588" on="1"/>
        <pt x="842" y="226" on="1"/>
      </contour>
      <contour>
        <pt x="284" y="368" on="1"/>
        <pt x="700" y="368" on="1"/>
        <pt x="700" y="1447" on="1"/>
        <pt x="284" y="1447" on="1"/>
      </contour>
    </TTGlyph>
    <TTGlyph name="rehdotbelowdotabovefinal" xMin="142" yMin="226" xMax="842" yMax="1588">
      <contour>
        <pt x="142" y="226" on="1"/>
        <pt x="142" y="1588" on="1"/>
        <pt x="842" y="1588" on="1"/>
        <pt x="842" y="226" on="1"/>
      </contour>
      <contour>
        <pt x="284" y="368" on="1"/>
        <pt x="700" y="368" on="1"/>
        <pt x="700" y="1447" on="1"/>
        <pt x="284" y="1447" on="1"/>
      </contour>
    </TTGlyph>
    <TTGlyph name="rehringfinal" xMin="142" yMin="226" xMax="842" yMax="1588">
      <contour>
        <pt x="142" y="226" on="1"/>
        <pt x="142" y="1588" on="1"/>
        <pt x="842" y="1588" on="1"/>
        <pt x="842" y="226" on="1"/>
      </contour>
      <contour>
        <pt x="284" y="368" on="1"/>
        <pt x="700" y="368" on="1"/>
        <pt x="700" y="1447" on="1"/>
        <pt x="284" y="1447" on="1"/>
      </contour>
    </TTGlyph>
    <TTGlyph name="rrehfinalarabic" xMin="142" yMin="226" xMax="842" yMax="1588">
      <contour>
        <pt x="142" y="226" on="1"/>
        <pt x="142" y="1588" on="1"/>
        <pt x="842" y="1588" on="1"/>
        <pt x="842" y="226" on="1"/>
      </contour>
      <contour>
        <pt x="284" y="368" on="1"/>
        <pt x="700" y="368" on="1"/>
        <pt x="700" y="1447" on="1"/>
        <pt x="284" y="1447" on="1"/>
      </contour>
    </TTGlyph>
    <TTGlyph name="seendotbelowdotabovefinal" xMin="142" yMin="226" xMax="842" yMax="1588">
      <contour>
        <pt x="142" y="226" on="1"/>
        <pt x="142" y="1588" on="1"/>
        <pt x="842" y="1588" on="1"/>
        <pt x="842" y="226" on="1"/>
      </contour>
      <contour>
        <pt x="284" y="368" on="1"/>
        <pt x="700" y="368" on="1"/>
        <pt x="700" y="1447" on="1"/>
        <pt x="284" y="1447" on="1"/>
      </contour>
    </TTGlyph>
    <TTGlyph name="seendotbelowdotaboveinitial" xMin="142" yMin="226" xMax="842" yMax="1588">
      <contour>
        <pt x="142" y="226" on="1"/>
        <pt x="142" y="1588" on="1"/>
        <pt x="842" y="1588" on="1"/>
        <pt x="842" y="226" on="1"/>
      </contour>
      <contour>
        <pt x="284" y="368" on="1"/>
        <pt x="700" y="368" on="1"/>
        <pt x="700" y="1447" on="1"/>
        <pt x="284" y="1447" on="1"/>
      </contour>
    </TTGlyph>
    <TTGlyph name="seendotbelowdotabovemedial" xMin="142" yMin="226" xMax="842" yMax="1588">
      <contour>
        <pt x="142" y="226" on="1"/>
        <pt x="142" y="1588" on="1"/>
        <pt x="842" y="1588" on="1"/>
        <pt x="842" y="226" on="1"/>
      </contour>
      <contour>
        <pt x="284" y="368" on="1"/>
        <pt x="700" y="368" on="1"/>
        <pt x="700" y="1447" on="1"/>
        <pt x="284" y="1447" on="1"/>
      </contour>
    </TTGlyph>
    <TTGlyph name="shaddadammaarabic" xMin="142" yMin="226" xMax="842" yMax="1588">
      <contour>
        <pt x="142" y="226" on="1"/>
        <pt x="142" y="1588" on="1"/>
        <pt x="842" y="1588" on="1"/>
        <pt x="842" y="226" on="1"/>
      </contour>
      <contour>
        <pt x="284" y="368" on="1"/>
        <pt x="700" y="368" on="1"/>
        <pt x="700" y="1447" on="1"/>
        <pt x="284" y="1447" on="1"/>
      </contour>
    </TTGlyph>
    <TTGlyph name="shaddadammatanarabic" xMin="142" yMin="226" xMax="842" yMax="1588">
      <contour>
        <pt x="142" y="226" on="1"/>
        <pt x="142" y="1588" on="1"/>
        <pt x="842" y="1588" on="1"/>
        <pt x="842" y="226" on="1"/>
      </contour>
      <contour>
        <pt x="284" y="368" on="1"/>
        <pt x="700" y="368" on="1"/>
        <pt x="700" y="1447" on="1"/>
        <pt x="284" y="1447" on="1"/>
      </contour>
    </TTGlyph>
    <TTGlyph name="shaddafathaarabic" xMin="142" yMin="226" xMax="842" yMax="1588">
      <contour>
        <pt x="142" y="226" on="1"/>
        <pt x="142" y="1588" on="1"/>
        <pt x="842" y="1588" on="1"/>
        <pt x="842" y="226" on="1"/>
      </contour>
      <contour>
        <pt x="284" y="368" on="1"/>
        <pt x="700" y="368" on="1"/>
        <pt x="700" y="1447" on="1"/>
        <pt x="284" y="1447" on="1"/>
      </contour>
    </TTGlyph>
    <TTGlyph name="shaddakasraarabic" xMin="142" yMin="226" xMax="842" yMax="1588">
      <contour>
        <pt x="142" y="226" on="1"/>
        <pt x="142" y="1588" on="1"/>
        <pt x="842" y="1588" on="1"/>
        <pt x="842" y="226" on="1"/>
      </contour>
      <contour>
        <pt x="284" y="368" on="1"/>
        <pt x="700" y="368" on="1"/>
        <pt x="700" y="1447" on="1"/>
        <pt x="284" y="1447" on="1"/>
      </contour>
    </TTGlyph>
    <TTGlyph name="shaddakasratanarabic" xMin="142" yMin="226" xMax="842" yMax="1588">
      <contour>
        <pt x="142" y="226" on="1"/>
        <pt x="142" y="1588" on="1"/>
        <pt x="842" y="1588" on="1"/>
        <pt x="842" y="226" on="1"/>
      </contour>
      <contour>
        <pt x="284" y="368" on="1"/>
        <pt x="700" y="368" on="1"/>
        <pt x="700" y="1447" on="1"/>
        <pt x="284" y="1447" on="1"/>
      </contour>
    </TTGlyph>
    <TTGlyph name="slash" xMin="142" yMin="226" xMax="842" yMax="1588">
      <contour>
        <pt x="142" y="226" on="1"/>
        <pt x="142" y="1588" on="1"/>
        <pt x="842" y="1588" on="1"/>
        <pt x="842" y="226" on="1"/>
      </contour>
      <contour>
        <pt x="284" y="368" on="1"/>
        <pt x="700" y="368" on="1"/>
        <pt x="700" y="1447" on="1"/>
        <pt x="284" y="1447" on="1"/>
      </contour>
    </TTGlyph>
    <TTGlyph name="space" xMin="142" yMin="226" xMax="842" yMax="1588">
      <contour>
        <pt x="142" y="226" on="1"/>
        <pt x="142" y="1588" on="1"/>
        <pt x="842" y="1588" on="1"/>
        <pt x="842" y="226" on="1"/>
      </contour>
      <contour>
        <pt x="284" y="368" on="1"/>
        <pt x="700" y="368" on="1"/>
        <pt x="700" y="1447" on="1"/>
        <pt x="284" y="1447" on="1"/>
      </contour>
    </TTGlyph>
    <TTGlyph name="tchehfinalarabic" xMin="142" yMin="226" xMax="842" yMax="1588">
      <contour>
        <pt x="142" y="226" on="1"/>
        <pt x="142" y="1588" on="1"/>
        <pt x="842" y="1588" on="1"/>
        <pt x="842" y="226" on="1"/>
      </contour>
      <contour>
        <pt x="284" y="368" on="1"/>
        <pt x="700" y="368" on="1"/>
        <pt x="700" y="1447" on="1"/>
        <pt x="284" y="1447" on="1"/>
      </contour>
    </TTGlyph>
    <TTGlyph name="tchehinitialarabic" xMin="142" yMin="226" xMax="842" yMax="1588">
      <contour>
        <pt x="142" y="226" on="1"/>
        <pt x="142" y="1588" on="1"/>
        <pt x="842" y="1588" on="1"/>
        <pt x="842" y="226" on="1"/>
      </contour>
      <contour>
        <pt x="284" y="368" on="1"/>
        <pt x="700" y="368" on="1"/>
        <pt x="700" y="1447" on="1"/>
        <pt x="284" y="1447" on="1"/>
      </contour>
    </TTGlyph>
    <TTGlyph name="tchehmedialarabic" xMin="142" yMin="226" xMax="842" yMax="1588">
      <contour>
        <pt x="142" y="226" on="1"/>
        <pt x="142" y="1588" on="1"/>
        <pt x="842" y="1588" on="1"/>
        <pt x="842" y="226" on="1"/>
      </contour>
      <contour>
        <pt x="284" y="368" on="1"/>
        <pt x="700" y="368" on="1"/>
        <pt x="700" y="1447" on="1"/>
        <pt x="284" y="1447" on="1"/>
      </contour>
    </TTGlyph>
    <TTGlyph name="tehhahisolatedarabic" xMin="142" yMin="226" xMax="842" yMax="1588">
      <contour>
        <pt x="142" y="226" on="1"/>
        <pt x="142" y="1588" on="1"/>
        <pt x="842" y="1588" on="1"/>
        <pt x="842" y="226" on="1"/>
      </contour>
      <contour>
        <pt x="284" y="368" on="1"/>
        <pt x="700" y="368" on="1"/>
        <pt x="700" y="1447" on="1"/>
        <pt x="284" y="1447" on="1"/>
      </contour>
    </TTGlyph>
    <TTGlyph name="tehjeemisolatedarabic" xMin="142" yMin="226" xMax="842" yMax="1588">
      <contour>
        <pt x="142" y="226" on="1"/>
        <pt x="142" y="1588" on="1"/>
        <pt x="842" y="1588" on="1"/>
        <pt x="842" y="226" on="1"/>
      </contour>
      <contour>
        <pt x="284" y="368" on="1"/>
        <pt x="700" y="368" on="1"/>
        <pt x="700" y="1447" on="1"/>
        <pt x="284" y="1447" on="1"/>
      </contour>
    </TTGlyph>
    <TTGlyph name="tehmeemisolatedarabic" xMin="142" yMin="226" xMax="842" yMax="1588">
      <contour>
        <pt x="142" y="226" on="1"/>
        <pt x="142" y="1588" on="1"/>
        <pt x="842" y="1588" on="1"/>
        <pt x="842" y="226" on="1"/>
      </contour>
      <contour>
        <pt x="284" y="368" on="1"/>
        <pt x="700" y="368" on="1"/>
        <pt x="700" y="1447" on="1"/>
        <pt x="284" y="1447" on="1"/>
      </contour>
    </TTGlyph>
    <TTGlyph name="tehnoonfinalarabic" xMin="142" yMin="226" xMax="842" yMax="1588">
      <contour>
        <pt x="142" y="226" on="1"/>
        <pt x="142" y="1588" on="1"/>
        <pt x="842" y="1588" on="1"/>
        <pt x="842" y="226" on="1"/>
      </contour>
      <contour>
        <pt x="284" y="368" on="1"/>
        <pt x="700" y="368" on="1"/>
        <pt x="700" y="1447" on="1"/>
        <pt x="284" y="1447" on="1"/>
      </contour>
    </TTGlyph>
    <TTGlyph name="tehringfinal" xMin="142" yMin="226" xMax="842" yMax="1588">
      <contour>
        <pt x="142" y="226" on="1"/>
        <pt x="142" y="1588" on="1"/>
        <pt x="842" y="1588" on="1"/>
        <pt x="842" y="226" on="1"/>
      </contour>
      <contour>
        <pt x="284" y="368" on="1"/>
        <pt x="700" y="368" on="1"/>
        <pt x="700" y="1447" on="1"/>
        <pt x="284" y="1447" on="1"/>
      </contour>
    </TTGlyph>
    <TTGlyph name="tehringinitial" xMin="142" yMin="226" xMax="842" yMax="1588">
      <contour>
        <pt x="142" y="226" on="1"/>
        <pt x="142" y="1588" on="1"/>
        <pt x="842" y="1588" on="1"/>
        <pt x="842" y="226" on="1"/>
      </contour>
      <contour>
        <pt x="284" y="368" on="1"/>
        <pt x="700" y="368" on="1"/>
        <pt x="700" y="1447" on="1"/>
        <pt x="284" y="1447" on="1"/>
      </contour>
    </TTGlyph>
    <TTGlyph name="tehringmedial" xMin="142" yMin="226" xMax="842" yMax="1588">
      <contour>
        <pt x="142" y="226" on="1"/>
        <pt x="142" y="1588" on="1"/>
        <pt x="842" y="1588" on="1"/>
        <pt x="842" y="226" on="1"/>
      </contour>
      <contour>
        <pt x="284" y="368" on="1"/>
        <pt x="700" y="368" on="1"/>
        <pt x="700" y="1447" on="1"/>
        <pt x="284" y="1447" on="1"/>
      </contour>
    </TTGlyph>
    <TTGlyph name="ttehfinalarabic" xMin="142" yMin="226" xMax="842" yMax="1588">
      <contour>
        <pt x="142" y="226" on="1"/>
        <pt x="142" y="1588" on="1"/>
        <pt x="842" y="1588" on="1"/>
        <pt x="842" y="226" on="1"/>
      </contour>
      <contour>
        <pt x="284" y="368" on="1"/>
        <pt x="700" y="368" on="1"/>
        <pt x="700" y="1447" on="1"/>
        <pt x="284" y="1447" on="1"/>
      </contour>
    </TTGlyph>
    <TTGlyph name="ttehinitialarabic" xMin="142" yMin="226" xMax="842" yMax="1588">
      <contour>
        <pt x="142" y="226" on="1"/>
        <pt x="142" y="1588" on="1"/>
        <pt x="842" y="1588" on="1"/>
        <pt x="842" y="226" on="1"/>
      </contour>
      <contour>
        <pt x="284" y="368" on="1"/>
        <pt x="700" y="368" on="1"/>
        <pt x="700" y="1447" on="1"/>
        <pt x="284" y="1447" on="1"/>
      </contour>
    </TTGlyph>
    <TTGlyph name="ttehmedialarabic" xMin="142" yMin="226" xMax="842" yMax="1588">
      <contour>
        <pt x="142" y="226" on="1"/>
        <pt x="142" y="1588" on="1"/>
        <pt x="842" y="1588" on="1"/>
        <pt x="842" y="226" on="1"/>
      </contour>
      <contour>
        <pt x="284" y="368" on="1"/>
        <pt x="700" y="368" on="1"/>
        <pt x="700" y="1447" on="1"/>
        <pt x="284" y="1447" on="1"/>
      </contour>
    </TTGlyph>
    <TTGlyph name="uni000D" xMin="142" yMin="226" xMax="842" yMax="1588">
      <contour>
        <pt x="142" y="226" on="1"/>
        <pt x="142" y="1588" on="1"/>
        <pt x="842" y="1588" on="1"/>
        <pt x="842" y="226" on="1"/>
      </contour>
      <contour>
        <pt x="284" y="368" on="1"/>
        <pt x="700" y="368" on="1"/>
        <pt x="700" y="1447" on="1"/>
        <pt x="284" y="1447" on="1"/>
      </contour>
    </TTGlyph>
    <TTGlyph name="uni00A0" xMin="142" yMin="226" xMax="842" yMax="1588">
      <contour>
        <pt x="142" y="226" on="1"/>
        <pt x="142" y="1588" on="1"/>
        <pt x="842" y="1588" on="1"/>
        <pt x="842" y="226" on="1"/>
      </contour>
      <contour>
        <pt x="284" y="368" on="1"/>
        <pt x="700" y="368" on="1"/>
        <pt x="700" y="1447" on="1"/>
        <pt x="284" y="1447" on="1"/>
      </contour>
    </TTGlyph>
    <TTGlyph name="uni00AD" xMin="142" yMin="226" xMax="842" yMax="1588">
      <contour>
        <pt x="142" y="226" on="1"/>
        <pt x="142" y="1588" on="1"/>
        <pt x="842" y="1588" on="1"/>
        <pt x="842" y="226" on="1"/>
      </contour>
      <contour>
        <pt x="284" y="368" on="1"/>
        <pt x="700" y="368" on="1"/>
        <pt x="700" y="1447" on="1"/>
        <pt x="284" y="1447" on="1"/>
      </contour>
    </TTGlyph>
    <TTGlyph name="uni0653" xMin="142" yMin="226" xMax="842" yMax="1588">
      <contour>
        <pt x="142" y="226" on="1"/>
        <pt x="142" y="1588" on="1"/>
        <pt x="842" y="1588" on="1"/>
        <pt x="842" y="226" on="1"/>
      </contour>
      <contour>
        <pt x="284" y="368" on="1"/>
        <pt x="700" y="368" on="1"/>
        <pt x="700" y="1447" on="1"/>
        <pt x="284" y="1447" on="1"/>
      </contour>
    </TTGlyph>
    <TTGlyph name="uni0654" xMin="142" yMin="226" xMax="842" yMax="1588">
      <contour>
        <pt x="142" y="226" on="1"/>
        <pt x="142" y="1588" on="1"/>
        <pt x="842" y="1588" on="1"/>
        <pt x="842" y="226" on="1"/>
      </contour>
      <contour>
        <pt x="284" y="368" on="1"/>
        <pt x="700" y="368" on="1"/>
        <pt x="700" y="1447" on="1"/>
        <pt x="284" y="1447" on="1"/>
      </contour>
    </TTGlyph>
    <TTGlyph name="uni0655" xMin="142" yMin="226" xMax="842" yMax="1588">
      <contour>
        <pt x="142" y="226" on="1"/>
        <pt x="142" y="1588" on="1"/>
        <pt x="842" y="1588" on="1"/>
        <pt x="842" y="226" on="1"/>
      </contour>
      <contour>
        <pt x="284" y="368" on="1"/>
        <pt x="700" y="368" on="1"/>
        <pt x="700" y="1447" on="1"/>
        <pt x="284" y="1447" on="1"/>
      </contour>
    </TTGlyph>
    <TTGlyph name="uni066B" xMin="142" yMin="226" xMax="842" yMax="1588">
      <contour>
        <pt x="142" y="226" on="1"/>
        <pt x="142" y="1588" on="1"/>
        <pt x="842" y="1588" on="1"/>
        <pt x="842" y="226" on="1"/>
      </contour>
      <contour>
        <pt x="284" y="368" on="1"/>
        <pt x="700" y="368" on="1"/>
        <pt x="700" y="1447" on="1"/>
        <pt x="284" y="1447" on="1"/>
      </contour>
    </TTGlyph>
    <TTGlyph name="uni066C" xMin="142" yMin="226" xMax="842" yMax="1588">
      <contour>
        <pt x="142" y="226" on="1"/>
        <pt x="142" y="1588" on="1"/>
        <pt x="842" y="1588" on="1"/>
        <pt x="842" y="226" on="1"/>
      </contour>
      <contour>
        <pt x="284" y="368" on="1"/>
        <pt x="700" y="368" on="1"/>
        <pt x="700" y="1447" on="1"/>
        <pt x="284" y="1447" on="1"/>
      </contour>
    </TTGlyph>
    <TTGlyph name="uni0671" xMin="142" yMin="226" xMax="842" yMax="1588">
      <contour>
        <pt x="142" y="226" on="1"/>
        <pt x="142" y="1588" on="1"/>
        <pt x="842" y="1588" on="1"/>
        <pt x="842" y="226" on="1"/>
      </contour>
      <contour>
        <pt x="284" y="368" on="1"/>
        <pt x="700" y="368" on="1"/>
        <pt x="700" y="1447" on="1"/>
        <pt x="284" y="1447" on="1"/>
      </contour>
    </TTGlyph>
    <TTGlyph name="uni067C" xMin="142" yMin="226" xMax="842" yMax="1588">
      <contour>
        <pt x="142" y="226" on="1"/>
        <pt x="142" y="1588" on="1"/>
        <pt x="842" y="1588" on="1"/>
        <pt x="842" y="226" on="1"/>
      </contour>
      <contour>
        <pt x="284" y="368" on="1"/>
        <pt x="700" y="368" on="1"/>
        <pt x="700" y="1447" on="1"/>
        <pt x="284" y="1447" on="1"/>
      </contour>
    </TTGlyph>
    <TTGlyph name="uni0681" xMin="142" yMin="226" xMax="842" yMax="1588">
      <contour>
        <pt x="142" y="226" on="1"/>
        <pt x="142" y="1588" on="1"/>
        <pt x="842" y="1588" on="1"/>
        <pt x="842" y="226" on="1"/>
      </contour>
      <contour>
        <pt x="284" y="368" on="1"/>
        <pt x="700" y="368" on="1"/>
        <pt x="700" y="1447" on="1"/>
        <pt x="284" y="1447" on="1"/>
      </contour>
    </TTGlyph>
    <TTGlyph name="uni0685" xMin="142" yMin="226" xMax="842" yMax="1588">
      <contour>
        <pt x="142" y="226" on="1"/>
        <pt x="142" y="1588" on="1"/>
        <pt x="842" y="1588" on="1"/>
        <pt x="842" y="226" on="1"/>
      </contour>
      <contour>
        <pt x="284" y="368" on="1"/>
        <pt x="700" y="368" on="1"/>
        <pt x="700" y="1447" on="1"/>
        <pt x="284" y="1447" on="1"/>
      </contour>
    </TTGlyph>
    <TTGlyph name="uni0689" xMin="142" yMin="226" xMax="842" yMax="1588">
      <contour>
        <pt x="142" y="226" on="1"/>
        <pt x="142" y="1588" on="1"/>
        <pt x="842" y="1588" on="1"/>
        <pt x="842" y="226" on="1"/>
      </contour>
      <contour>
        <pt x="284" y="368" on="1"/>
        <pt x="700" y="368" on="1"/>
        <pt x="700" y="1447" on="1"/>
        <pt x="284" y="1447" on="1"/>
      </contour>
    </TTGlyph>
    <TTGlyph name="uni0693" xMin="142" yMin="226" xMax="842" yMax="1588">
      <contour>
        <pt x="142" y="226" on="1"/>
        <pt x="142" y="1588" on="1"/>
        <pt x="842" y="1588" on="1"/>
        <pt x="842" y="226" on="1"/>
      </contour>
      <contour>
        <pt x="284" y="368" on="1"/>
        <pt x="700" y="368" on="1"/>
        <pt x="700" y="1447" on="1"/>
        <pt x="284" y="1447" on="1"/>
      </contour>
    </TTGlyph>
    <TTGlyph name="uni0696" xMin="142" yMin="226" xMax="842" yMax="1588">
      <contour>
        <pt x="142" y="226" on="1"/>
        <pt x="142" y="1588" on="1"/>
        <pt x="842" y="1588" on="1"/>
        <pt x="842" y="226" on="1"/>
      </contour>
      <contour>
        <pt x="284" y="368" on="1"/>
        <pt x="700" y="368" on="1"/>
        <pt x="700" y="1447" on="1"/>
        <pt x="284" y="1447" on="1"/>
      </contour>
    </TTGlyph>
    <TTGlyph name="uni069A" xMin="142" yMin="226" xMax="842" yMax="1588">
      <contour>
        <pt x="142" y="226" on="1"/>
        <pt x="142" y="1588" on="1"/>
        <pt x="842" y="1588" on="1"/>
        <pt x="842" y="226" on="1"/>
      </contour>
      <contour>
        <pt x="284" y="368" on="1"/>
        <pt x="700" y="368" on="1"/>
        <pt x="700" y="1447" on="1"/>
        <pt x="284" y="1447" on="1"/>
      </contour>
    </TTGlyph>
    <TTGlyph name="uni06A9" xMin="142" yMin="226" xMax="842" yMax="1588">
      <contour>
        <pt x="142" y="226" on="1"/>
        <pt x="142" y="1588" on="1"/>
        <pt x="842" y="1588" on="1"/>
        <pt x="842" y="226" on="1"/>
      </contour>
      <contour>
        <pt x="284" y="368" on="1"/>
        <pt x="700" y="368" on="1"/>
        <pt x="700" y="1447" on="1"/>
        <pt x="284" y="1447" on="1"/>
      </contour>
    </TTGlyph>
    <TTGlyph name="uni06AB" xMin="142" yMin="226" xMax="842" yMax="1588">
      <contour>
        <pt x="142" y="226" on="1"/>
        <pt x="142" y="1588" on="1"/>
        <pt x="842" y="1588" on="1"/>
        <pt x="842" y="226" on="1"/>
      </contour>
      <contour>
        <pt x="284" y="368" on="1"/>
        <pt x="700" y="368" on="1"/>
        <pt x="700" y="1447" on="1"/>
        <pt x="284" y="1447" on="1"/>
      </contour>
    </TTGlyph>
    <TTGlyph name="uni06B7" xMin="142" yMin="226" xMax="842" yMax="1588">
      <contour>
        <pt x="142" y="226" on="1"/>
        <pt x="142" y="1588" on="1"/>
        <pt x="842" y="1588" on="1"/>
        <pt x="842" y="226" on="1"/>
      </contour>
      <contour>
        <pt x="284" y="368" on="1"/>
        <pt x="700" y="368" on="1"/>
        <pt x="700" y="1447" on="1"/>
        <pt x="284" y="1447" on="1"/>
      </contour>
    </TTGlyph>
    <TTGlyph name="uni06BC" xMin="142" yMin="226" xMax="842" yMax="1588">
      <contour>
        <pt x="142" y="226" on="1"/>
        <pt x="142" y="1588" on="1"/>
        <pt x="842" y="1588" on="1"/>
        <pt x="842" y="226" on="1"/>
      </contour>
      <contour>
        <pt x="284" y="368" on="1"/>
        <pt x="700" y="368" on="1"/>
        <pt x="700" y="1447" on="1"/>
        <pt x="284" y="1447" on="1"/>
      </contour>
    </TTGlyph>
    <TTGlyph name="uni06BE" xMin="142" yMin="226" xMax="842" yMax="1588">
      <contour>
        <pt x="142" y="226" on="1"/>
        <pt x="142" y="1588" on="1"/>
        <pt x="842" y="1588" on="1"/>
        <pt x="842" y="226" on="1"/>
      </contour>
      <contour>
        <pt x="284" y="368" on="1"/>
        <pt x="700" y="368" on="1"/>
        <pt x="700" y="1447" on="1"/>
        <pt x="284" y="1447" on="1"/>
      </contour>
    </TTGlyph>
    <TTGlyph name="uni06C2" xMin="142" yMin="226" xMax="842" yMax="1588">
      <contour>
        <pt x="142" y="226" on="1"/>
        <pt x="142" y="1588" on="1"/>
        <pt x="842" y="1588" on="1"/>
        <pt x="842" y="226" on="1"/>
      </contour>
      <contour>
        <pt x="284" y="368" on="1"/>
        <pt x="700" y="368" on="1"/>
        <pt x="700" y="1447" on="1"/>
        <pt x="284" y="1447" on="1"/>
      </contour>
    </TTGlyph>
    <TTGlyph name="uni06C7" xMin="142" yMin="226" xMax="842" yMax="1588">
      <contour>
        <pt x="142" y="226" on="1"/>
        <pt x="142" y="1588" on="1"/>
        <pt x="842" y="1588" on="1"/>
        <pt x="842" y="226" on="1"/>
      </contour>
      <contour>
        <pt x="284" y="368" on="1"/>
        <pt x="700" y="368" on="1"/>
        <pt x="700" y="1447" on="1"/>
        <pt x="284" y="1447" on="1"/>
      </contour>
    </TTGlyph>
    <TTGlyph name="uni06C9" xMin="142" yMin="226" xMax="842" yMax="1588">
      <contour>
        <pt x="142" y="226" on="1"/>
        <pt x="142" y="1588" on="1"/>
        <pt x="842" y="1588" on="1"/>
        <pt x="842" y="226" on="1"/>
      </contour>
      <contour>
        <pt x="284" y="368" on="1"/>
        <pt x="700" y="368" on="1"/>
        <pt x="700" y="1447" on="1"/>
        <pt x="284" y="1447" on="1"/>
      </contour>
    </TTGlyph>
    <TTGlyph name="uni06CC" xMin="142" yMin="226" xMax="842" yMax="1588">
      <contour>
        <pt x="142" y="226" on="1"/>
        <pt x="142" y="1588" on="1"/>
        <pt x="842" y="1588" on="1"/>
        <pt x="842" y="226" on="1"/>
      </contour>
      <contour>
        <pt x="284" y="368" on="1"/>
        <pt x="700" y="368" on="1"/>
        <pt x="700" y="1447" on="1"/>
        <pt x="284" y="1447" on="1"/>
      </contour>
    </TTGlyph>
    <TTGlyph name="uni06CD" xMin="142" yMin="226" xMax="842" yMax="1588">
      <contour>
        <pt x="142" y="226" on="1"/>
        <pt x="142" y="1588" on="1"/>
        <pt x="842" y="1588" on="1"/>
        <pt x="842" y="226" on="1"/>
      </contour>
      <contour>
        <pt x="284" y="368" on="1"/>
        <pt x="700" y="368" on="1"/>
        <pt x="700" y="1447" on="1"/>
        <pt x="284" y="1447" on="1"/>
      </contour>
    </TTGlyph>
    <TTGlyph name="uni06D0" xMin="142" yMin="226" xMax="842" yMax="1588">
      <contour>
        <pt x="142" y="226" on="1"/>
        <pt x="142" y="1588" on="1"/>
        <pt x="842" y="1588" on="1"/>
        <pt x="842" y="226" on="1"/>
      </contour>
      <contour>
        <pt x="284" y="368" on="1"/>
        <pt x="700" y="368" on="1"/>
        <pt x="700" y="1447" on="1"/>
        <pt x="284" y="1447" on="1"/>
      </contour>
    </TTGlyph>
    <TTGlyph name="uni06D1" xMin="142" yMin="226" xMax="842" yMax="1588">
      <contour>
        <pt x="142" y="226" on="1"/>
        <pt x="142" y="1588" on="1"/>
        <pt x="842" y="1588" on="1"/>
        <pt x="842" y="226" on="1"/>
      </contour>
      <contour>
        <pt x="284" y="368" on="1"/>
        <pt x="700" y="368" on="1"/>
        <pt x="700" y="1447" on="1"/>
        <pt x="284" y="1447" on="1"/>
      </contour>
    </TTGlyph>
    <TTGlyph name="uni06D3" xMin="142" yMin="226" xMax="842" yMax="1588">
      <contour>
        <pt x="142" y="226" on="1"/>
        <pt x="142" y="1588" on="1"/>
        <pt x="842" y="1588" on="1"/>
        <pt x="842" y="226" on="1"/>
      </contour>
      <contour>
        <pt x="284" y="368" on="1"/>
        <pt x="700" y="368" on="1"/>
        <pt x="700" y="1447" on="1"/>
        <pt x="284" y="1447" on="1"/>
      </contour>
    </TTGlyph>
    <TTGlyph name="uni06D4" xMin="142" yMin="226" xMax="842" yMax="1588">
      <contour>
        <pt x="142" y="226" on="1"/>
        <pt x="142" y="1588" on="1"/>
        <pt x="842" y="1588" on="1"/>
        <pt x="842" y="226" on="1"/>
      </contour>
      <contour>
        <pt x="284" y="368" on="1"/>
        <pt x="700" y="368" on="1"/>
        <pt x="700" y="1447" on="1"/>
        <pt x="284" y="1447" on="1"/>
      </contour>
    </TTGlyph>
    <TTGlyph name="uni06F0" xMin="142" yMin="226" xMax="842" yMax="1588">
      <contour>
        <pt x="142" y="226" on="1"/>
        <pt x="142" y="1588" on="1"/>
        <pt x="842" y="1588" on="1"/>
        <pt x="842" y="226" on="1"/>
      </contour>
      <contour>
        <pt x="284" y="368" on="1"/>
        <pt x="700" y="368" on="1"/>
        <pt x="700" y="1447" on="1"/>
        <pt x="284" y="1447" on="1"/>
      </contour>
    </TTGlyph>
    <TTGlyph name="uni06F1" xMin="142" yMin="226" xMax="842" yMax="1588">
      <contour>
        <pt x="142" y="226" on="1"/>
        <pt x="142" y="1588" on="1"/>
        <pt x="842" y="1588" on="1"/>
        <pt x="842" y="226" on="1"/>
      </contour>
      <contour>
        <pt x="284" y="368" on="1"/>
        <pt x="700" y="368" on="1"/>
        <pt x="700" y="1447" on="1"/>
        <pt x="284" y="1447" on="1"/>
      </contour>
    </TTGlyph>
    <TTGlyph name="uni06F2" xMin="142" yMin="226" xMax="842" yMax="1588">
      <contour>
        <pt x="142" y="226" on="1"/>
        <pt x="142" y="1588" on="1"/>
        <pt x="842" y="1588" on="1"/>
        <pt x="842" y="226" on="1"/>
      </contour>
      <contour>
        <pt x="284" y="368" on="1"/>
        <pt x="700" y="368" on="1"/>
        <pt x="700" y="1447" on="1"/>
        <pt x="284" y="1447" on="1"/>
      </contour>
    </TTGlyph>
    <TTGlyph name="uni06F3" xMin="142" yMin="226" xMax="842" yMax="1588">
      <contour>
        <pt x="142" y="226" on="1"/>
        <pt x="142" y="1588" on="1"/>
        <pt x="842" y="1588" on="1"/>
        <pt x="842" y="226" on="1"/>
      </contour>
      <contour>
        <pt x="284" y="368" on="1"/>
        <pt x="700" y="368" on="1"/>
        <pt x="700" y="1447" on="1"/>
        <pt x="284" y="1447" on="1"/>
      </contour>
    </TTGlyph>
    <TTGlyph name="uni06F4" xMin="142" yMin="226" xMax="842" yMax="1588">
      <contour>
        <pt x="142" y="226" on="1"/>
        <pt x="142" y="1588" on="1"/>
        <pt x="842" y="1588" on="1"/>
        <pt x="842" y="226" on="1"/>
      </contour>
      <contour>
        <pt x="284" y="368" on="1"/>
        <pt x="700" y="368" on="1"/>
        <pt x="700" y="1447" on="1"/>
        <pt x="284" y="1447" on="1"/>
      </contour>
    </TTGlyph>
    <TTGlyph name="uni06F5" xMin="142" yMin="226" xMax="842" yMax="1588">
      <contour>
        <pt x="142" y="226" on="1"/>
        <pt x="142" y="1588" on="1"/>
        <pt x="842" y="1588" on="1"/>
        <pt x="842" y="226" on="1"/>
      </contour>
      <contour>
        <pt x="284" y="368" on="1"/>
        <pt x="700" y="368" on="1"/>
        <pt x="700" y="1447" on="1"/>
        <pt x="284" y="1447" on="1"/>
      </contour>
    </TTGlyph>
    <TTGlyph name="uni06F6" xMin="142" yMin="226" xMax="842" yMax="1588">
      <contour>
        <pt x="142" y="226" on="1"/>
        <pt x="142" y="1588" on="1"/>
        <pt x="842" y="1588" on="1"/>
        <pt x="842" y="226" on="1"/>
      </contour>
      <contour>
        <pt x="284" y="368" on="1"/>
        <pt x="700" y="368" on="1"/>
        <pt x="700" y="1447" on="1"/>
        <pt x="284" y="1447" on="1"/>
      </contour>
    </TTGlyph>
    <TTGlyph name="uni06F7" xMin="142" yMin="226" xMax="842" yMax="1588">
      <contour>
        <pt x="142" y="226" on="1"/>
        <pt x="142" y="1588" on="1"/>
        <pt x="842" y="1588" on="1"/>
        <pt x="842" y="226" on="1"/>
      </contour>
      <contour>
        <pt x="284" y="368" on="1"/>
        <pt x="700" y="368" on="1"/>
        <pt x="700" y="1447" on="1"/>
        <pt x="284" y="1447" on="1"/>
      </contour>
    </TTGlyph>
    <TTGlyph name="uni06F8" xMin="142" yMin="226" xMax="842" yMax="1588">
      <contour>
        <pt x="142" y="226" on="1"/>
        <pt x="142" y="1588" on="1"/>
        <pt x="842" y="1588" on="1"/>
        <pt x="842" y="226" on="1"/>
      </contour>
      <contour>
        <pt x="284" y="368" on="1"/>
        <pt x="700" y="368" on="1"/>
        <pt x="700" y="1447" on="1"/>
        <pt x="284" y="1447" on="1"/>
      </contour>
    </TTGlyph>
    <TTGlyph name="uni06F9" xMin="142" yMin="226" xMax="842" yMax="1588">
      <contour>
        <pt x="142" y="226" on="1"/>
        <pt x="142" y="1588" on="1"/>
        <pt x="842" y="1588" on="1"/>
        <pt x="842" y="226" on="1"/>
      </contour>
      <contour>
        <pt x="284" y="368" on="1"/>
        <pt x="700" y="368" on="1"/>
        <pt x="700" y="1447" on="1"/>
        <pt x="284" y="1447" on="1"/>
      </contour>
    </TTGlyph>
    <TTGlyph name="uni2010" xMin="2" yMin="-574" xMax="2546" yMax="1785">
      <contour>
        <pt x="2404" y="1042" on="1"/>
        <pt x="2364" y="1018" on="1"/>
        <pt x="2364" y="1029" on="0"/>
        <pt x="2351" y="1055" on="1"/>
        <pt x="2332" y="1080" on="0"/>
        <pt x="2188" y="1203" on="0"/>
        <pt x="2172" y="1226" on="1"/>
        <pt x="2094" y="1335" on="0"/>
        <pt x="2087" y="1449" on="1"/>
        <pt x="2002" y="1431" on="0"/>
        <pt x="2002" y="1248" on="1"/>
        <pt x="2002" y="1160" on="0"/>
        <pt x="2022" y="1110" on="1"/>
        <pt x="1997" y="1131" on="0"/>
        <pt x="1971" y="1153" on="1"/>
        <pt x="1962" y="1201" on="0"/>
        <pt x="1962" y="1248" on="1"/>
        <pt x="1962" y="1351" on="0"/>
        <pt x="2046" y="1502" on="0"/>
        <pt x="2118" y="1523" on="1"/>
        <pt x="2121" y="1372" on="0"/>
        <pt x="2209" y="1254" on="1"/>
        <pt x="2226" y="1230" on="0"/>
        <pt x="2310" y="1158" on="1"/>
        <pt x="2383" y="1094" on="0"/>
        <pt x="2397" y="1063" on="1"/>
        <pt x="2404" y="1033" on="0"/>
      </contour>
      <contour>
        <pt x="2181" y="576" on="1"/>
        <pt x="2181" y="202" on="0"/>
        <pt x="1649" y="-330" on="0"/>
        <pt x="1274" y="-330" on="1"/>
        <pt x="900" y="-330" on="0"/>
        <pt x="367" y="202" on="0"/>
        <pt x="367" y="576" on="1"/>
        <pt x="367" y="939" on="0"/>
        <pt x="623" y="1202" on="1"/>
        <pt x="838" y="1423" on="0"/>
        <pt x="1086" y="1461" on="1"/>
        <pt x="1139" y="1469" on="0"/>
        <pt x="1182" y="1505" on="1"/>
        <pt x="1232" y="1547" on="0"/>
        <pt x="1232" y="1602" on="1"/>
        <pt x="1232" y="1662" on="0"/>
        <pt x="1146" y="1748" on="0"/>
        <pt x="1086" y="1748" on="1"/>
        <pt x="1027" y="1748" on="0"/>
        <pt x="938" y="1662" on="0"/>
        <pt x="938" y="1602" on="1"/>
        <pt x="938" y="1534" on="0"/>
        <pt x="994" y="1488" on="1"/>
        <pt x="882" y="1475" on="0"/>
        <pt x="745" y="1418" on="1"/>
        <pt x="652" y="1380" on="0"/>
        <pt x="584" y="1315" on="1"/>
        <pt x="539" y="1321" on="1"/>
        <pt x="602" y="1394" on="0"/>
        <pt x="739" y="1457" on="1"/>
        <pt x="806" y="1487" on="0"/>
        <pt x="931" y="1512" on="1"/>
        <pt x="901" y="1556" on="0"/>
        <pt x="901" y="1614" on="1"/>
        <pt x="901" y="1688" on="0"/>
        <pt x="960" y="1738" on="1"/>
        <pt x="1015" y="1785" on="0"/>
        <pt x="1086" y="1785" on="1"/>
        <pt x="1160" y="1785" on="0"/>
        <pt x="1216" y="1736" on="1"/>
        <pt x="1274" y="1684" on="0"/>
        <pt x="1274" y="1610" on="1"/>
        <pt x="1274" y="1531" on="0"/>
        <pt x="1214" y="1479" on="1"/>
        <pt x="1236" y="1481" on="0"/>
        <pt x="1274" y="1481" on="1"/>
        <pt x="1314" y="1481" on="0"/>
        <pt x="1335" y="1479" on="1"/>
        <pt x="1274" y="1531" on="0"/>
        <pt x="1274" y="1610" on="1"/>
        <pt x="1274" y="1684" on="0"/>
        <pt x="1332" y="1736" on="1"/>
        <pt x="1387" y="1785" on="0"/>
        <pt x="1462" y="1785" on="1"/>
        <pt x="1534" y="1785" on="0"/>
        <pt x="1589" y="1738" on="1"/>
        <pt x="1649" y="1689" on="0"/>
        <pt x="1649" y="1614" on="1"/>
        <pt x="1649" y="1556" on="0"/>
        <pt x="1619" y="1512" on="1"/>
        <pt x="1740" y="1488" on="0"/>
        <pt x="1808" y="1457" on="1"/>
        <pt x="1944" y="1396" on="0"/>
        <pt x="2010" y="1321" on="1"/>
        <pt x="1966" y="1315" on="1"/>
        <pt x="1892" y="1382" on="0"/>
        <pt x="1803" y="1418" on="1"/>
        <pt x="1663" y="1476" on="0"/>
        <pt x="1554" y="1488" on="1"/>
        <pt x="1608" y="1532" on="0"/>
        <pt x="1608" y="1602" on="1"/>
        <pt x="1608" y="1662" on="0"/>
        <pt x="1522" y="1748" on="0"/>
        <pt x="1462" y="1748" on="1"/>
        <pt x="1403" y="1748" on="0"/>
        <pt x="1317" y="1662" on="0"/>
        <pt x="1317" y="1602" on="1"/>
        <pt x="1317" y="1547" on="0"/>
        <pt x="1367" y="1505" on="1"/>
        <pt x="1409" y="1469" on="0"/>
        <pt x="1462" y="1461" on="1"/>
        <pt x="1712" y="1423" on="0"/>
        <pt x="1926" y="1202" on="1"/>
        <pt x="2181" y="940" on="0"/>
      </contour>
      <contour>
        <pt x="580" y="1153" on="1"/>
        <pt x="524" y="1105" on="0"/>
        <pt x="525" y="1110" on="1"/>
        <pt x="546" y="1161" on="0"/>
        <pt x="546" y="1249" on="1"/>
        <pt x="546" y="1431" on="0"/>
        <pt x="463" y="1449" on="1"/>
        <pt x="456" y="1333" on="0"/>
        <pt x="378" y="1226" on="1"/>
        <pt x="362" y="1203" on="0"/>
        <pt x="217" y="1081" on="0"/>
        <pt x="198" y="1055" on="1"/>
        <pt x="185" y="1029" on="0"/>
        <pt x="185" y="1018" on="1"/>
        <pt x="146" y="1042" on="1"/>
        <pt x="146" y="1053" on="0"/>
        <pt x="154" y="1063" on="1"/>
        <pt x="167" y="1094" on="0"/>
        <pt x="240" y="1158" on="1"/>
        <pt x="324" y="1230" on="0"/>
        <pt x="341" y="1254" on="1"/>
        <pt x="426" y="1368" on="0"/>
        <pt x="432" y="1523" on="1"/>
        <pt x="503" y="1502" on="0"/>
        <pt x="589" y="1350" on="0"/>
        <pt x="589" y="1247" on="1"/>
        <pt x="589" y="1200" on="0"/>
      </contour>
      <contour>
        <pt x="2546" y="1105" on="1"/>
        <pt x="2478" y="1004" on="0"/>
        <pt x="2485" y="819" on="1"/>
        <pt x="2487" y="784" on="0"/>
        <pt x="2532" y="637" on="0"/>
        <pt x="2533" y="605" on="1"/>
        <pt x="2535" y="569" on="0"/>
        <pt x="2472" y="496" on="0"/>
        <pt x="2439" y="496" on="1"/>
        <pt x="2391" y="496" on="0"/>
        <pt x="2369" y="520" on="1"/>
        <pt x="2369" y="67" on="0"/>
        <pt x="1729" y="-574" on="0"/>
        <pt x="1274" y="-574" on="1"/>
        <pt x="820" y="-574" on="0"/>
        <pt x="179" y="67" on="0"/>
        <pt x="179" y="520" on="1"/>
        <pt x="158" y="496" on="0"/>
        <pt x="111" y="496" on="1"/>
        <pt x="78" y="496" on="0"/>
        <pt x="13" y="569" on="0"/>
        <pt x="15" y="605" on="1"/>
        <pt x="17" y="637" on="0"/>
        <pt x="62" y="785" on="0"/>
        <pt x="63" y="819" on="1"/>
        <pt x="71" y="1004" on="0"/>
        <pt x="2" y="1105" on="1"/>
        <pt x="202" y="1092" on="0"/>
        <pt x="263" y="945" on="1"/>
        <pt x="258" y="822" on="1"/>
        <pt x="253" y="895" on="0"/>
        <pt x="209" y="962" on="1"/>
        <pt x="154" y="1046" on="0"/>
        <pt x="67" y="1049" on="1"/>
        <pt x="105" y="992" on="0"/>
        <pt x="105" y="819" on="1"/>
        <pt x="105" y="787" on="0"/>
        <pt x="85" y="718" on="1"/>
        <pt x="63" y="646" on="0"/>
        <pt x="61" y="618" on="1"/>
        <pt x="58" y="542" on="0"/>
        <pt x="131" y="542" on="1"/>
        <pt x="170" y="542" on="0"/>
        <pt x="204" y="594" on="1"/>
        <pt x="214" y="609" on="0"/>
        <pt x="226" y="623" on="1"/>
        <pt x="220" y="561" on="0"/>
        <pt x="220" y="520" on="1"/>
        <pt x="220" y="91" on="0"/>
        <pt x="842" y="-521" on="0"/>
        <pt x="1274" y="-521" on="1"/>
        <pt x="1707" y="-521" on="0"/>
        <pt x="2330" y="91" on="0"/>
        <pt x="2330" y="520" on="1"/>
        <pt x="2330" y="561" on="0"/>
        <pt x="2324" y="623" on="1"/>
        <pt x="2336" y="609" on="0"/>
        <pt x="2347" y="595" on="1"/>
        <pt x="2380" y="542" on="0"/>
        <pt x="2417" y="542" on="1"/>
        <pt x="2493" y="542" on="0"/>
        <pt x="2489" y="618" on="1"/>
        <pt x="2487" y="646" on="0"/>
        <pt x="2465" y="718" on="1"/>
        <pt x="2442" y="787" on="0"/>
        <pt x="2442" y="819" on="1"/>
        <pt x="2442" y="990" on="0"/>
        <pt x="2483" y="1049" on="1"/>
        <pt x="2397" y="1046" on="0"/>
        <pt x="2340" y="962" on="1"/>
        <pt x="2295" y="895" on="0"/>
        <pt x="2290" y="822" on="1"/>
        <pt x="2288" y="945" on="1"/>
        <pt x="2348" y="1092" on="0"/>
      </contour>
      <contour>
        <pt x="2135" y="576" on="1"/>
        <pt x="2135" y="930" on="0"/>
        <pt x="1895" y="1173" on="1"/>
        <pt x="1708" y="1362" on="0"/>
        <pt x="1466" y="1418" on="1"/>
        <pt x="1386" y="1437" on="0"/>
        <pt x="1274" y="1437" on="1"/>
        <pt x="1164" y="1437" on="0"/>
        <pt x="1084" y="1418" on="1"/>
        <pt x="841" y="1362" on="0"/>
        <pt x="654" y="1173" on="1"/>
        <pt x="415" y="931" on="0"/>
        <pt x="415" y="576" on="1"/>
        <pt x="415" y="218" on="0"/>
        <pt x="916" y="-285" on="0"/>
        <pt x="1274" y="-285" on="1"/>
        <pt x="1633" y="-285" on="0"/>
        <pt x="2135" y="218" on="0"/>
      </contour>
      <contour>
        <pt x="1789" y="351" on="1"/>
        <pt x="1789" y="297" on="0"/>
        <pt x="1767" y="245" on="1"/>
        <pt x="1761" y="244" on="0"/>
        <pt x="1744" y="233" on="1"/>
        <pt x="1736" y="239" on="0"/>
        <pt x="1722" y="247" on="1"/>
        <pt x="1690" y="383" on="0"/>
        <pt x="1632" y="544" on="1"/>
        <pt x="1625" y="564" on="0"/>
        <pt x="1572" y="655" on="1"/>
        <pt x="1523" y="736" on="0"/>
        <pt x="1523" y="750" on="1"/>
        <pt x="1523" y="768" on="0"/>
        <pt x="1572" y="856" on="0"/>
        <pt x="1588" y="868" on="1"/>
        <pt x="1620" y="868" on="0"/>
        <pt x="1641" y="824" on="1"/>
        <pt x="1789" y="529" on="0"/>
      </contour>
      <contour>
        <pt x="1482" y="300" on="1"/>
        <pt x="1482" y="257" on="0"/>
        <pt x="1438" y="193" on="1"/>
        <pt x="1403" y="193" on="1"/>
        <pt x="1337" y="298" on="0"/>
        <pt x="1321" y="370" on="1"/>
        <pt x="1313" y="445" on="0"/>
        <pt x="1305" y="520" on="1"/>
        <pt x="1284" y="653" on="0"/>
        <pt x="1241" y="653" on="1"/>
        <pt x="1231" y="653" on="0"/>
        <pt x="1200" y="643" on="0"/>
        <pt x="1185" y="643" on="1"/>
        <pt x="1135" y="643" on="0"/>
        <pt x="1090" y="677" on="1"/>
        <pt x="1042" y="713" on="0"/>
        <pt x="1042" y="760" on="1"/>
        <pt x="1042" y="790" on="0"/>
        <pt x="1065" y="837" on="1"/>
        <pt x="1207" y="796" on="0"/>
        <pt x="1237" y="796" on="1"/>
        <pt x="1249" y="796" on="0"/>
        <pt x="1269" y="807" on="0"/>
        <pt x="1282" y="807" on="1"/>
        <pt x="1303" y="807" on="0"/>
        <pt x="1332" y="794" on="1"/>
        <pt x="1370" y="777" on="0"/>
        <pt x="1376" y="751" on="1"/>
        <pt x="1382" y="654" on="0"/>
        <pt x="1413" y="455" on="1"/>
        <pt x="1418" y="435" on="0"/>
        <pt x="1451" y="372" on="1"/>
        <pt x="1482" y="315" on="0"/>
      </contour>
      <contour>
        <pt x="1021" y="330" on="1"/>
        <pt x="1021" y="268" on="0"/>
        <pt x="999" y="234" on="1"/>
        <pt x="992" y="234" on="0"/>
        <pt x="975" y="223" on="1"/>
        <pt x="947" y="246" on="0"/>
        <pt x="938" y="287" on="1"/>
        <pt x="932" y="318" on="0"/>
        <pt x="925" y="350" on="1"/>
        <pt x="914" y="395" on="0"/>
        <pt x="885" y="472" on="1"/>
        <pt x="867" y="519" on="0"/>
        <pt x="807" y="633" on="1"/>
        <pt x="755" y="732" on="0"/>
        <pt x="755" y="745" on="1"/>
        <pt x="755" y="803" on="0"/>
        <pt x="810" y="858" on="1"/>
        <pt x="845" y="858" on="0"/>
        <pt x="863" y="824" on="1"/>
        <pt x="1021" y="536" on="0"/>
      </contour>
    </TTGlyph>
    <TTGlyph name="uni2011" xMin="2" yMin="-574" xMax="2546" yMax="1785">
      <contour>
        <pt x="2404" y="1042" on="1"/>
        <pt x="2364" y="1018" on="1"/>
        <pt x="2364" y="1029" on="0"/>
        <pt x="2351" y="1055" on="1"/>
        <pt x="2332" y="1080" on="0"/>
        <pt x="2188" y="1203" on="0"/>
        <pt x="2172" y="1226" on="1"/>
        <pt x="2094" y="1335" on="0"/>
        <pt x="2087" y="1449" on="1"/>
        <pt x="2002" y="1431" on="0"/>
        <pt x="2002" y="1248" on="1"/>
        <pt x="2002" y="1160" on="0"/>
        <pt x="2022" y="1110" on="1"/>
        <pt x="1997" y="1131" on="0"/>
        <pt x="1971" y="1153" on="1"/>
        <pt x="1962" y="1201" on="0"/>
        <pt x="1962" y="1248" on="1"/>
        <pt x="1962" y="1351" on="0"/>
        <pt x="2046" y="1502" on="0"/>
        <pt x="2118" y="1523" on="1"/>
        <pt x="2121" y="1372" on="0"/>
        <pt x="2209" y="1254" on="1"/>
        <pt x="2226" y="1230" on="0"/>
        <pt x="2310" y="1158" on="1"/>
        <pt x="2383" y="1094" on="0"/>
        <pt x="2397" y="1063" on="1"/>
        <pt x="2404" y="1033" on="0"/>
      </contour>
      <contour>
        <pt x="2181" y="576" on="1"/>
        <pt x="2181" y="202" on="0"/>
        <pt x="1649" y="-330" on="0"/>
        <pt x="1274" y="-330" on="1"/>
        <pt x="900" y="-330" on="0"/>
        <pt x="367" y="202" on="0"/>
        <pt x="367" y="576" on="1"/>
        <pt x="367" y="939" on="0"/>
        <pt x="623" y="1202" on="1"/>
        <pt x="838" y="1423" on="0"/>
        <pt x="1086" y="1461" on="1"/>
        <pt x="1139" y="1469" on="0"/>
        <pt x="1182" y="1505" on="1"/>
        <pt x="1232" y="1547" on="0"/>
        <pt x="1232" y="1602" on="1"/>
        <pt x="1232" y="1662" on="0"/>
        <pt x="1146" y="1748" on="0"/>
        <pt x="1086" y="1748" on="1"/>
        <pt x="1027" y="1748" on="0"/>
        <pt x="938" y="1662" on="0"/>
        <pt x="938" y="1602" on="1"/>
        <pt x="938" y="1534" on="0"/>
        <pt x="994" y="1488" on="1"/>
        <pt x="882" y="1475" on="0"/>
        <pt x="745" y="1418" on="1"/>
        <pt x="652" y="1380" on="0"/>
        <pt x="584" y="1315" on="1"/>
        <pt x="539" y="1321" on="1"/>
        <pt x="602" y="1394" on="0"/>
        <pt x="739" y="1457" on="1"/>
        <pt x="806" y="1487" on="0"/>
        <pt x="931" y="1512" on="1"/>
        <pt x="901" y="1556" on="0"/>
        <pt x="901" y="1614" on="1"/>
        <pt x="901" y="1688" on="0"/>
        <pt x="960" y="1738" on="1"/>
        <pt x="1015" y="1785" on="0"/>
        <pt x="1086" y="1785" on="1"/>
        <pt x="1160" y="1785" on="0"/>
        <pt x="1216" y="1736" on="1"/>
        <pt x="1274" y="1684" on="0"/>
        <pt x="1274" y="1610" on="1"/>
        <pt x="1274" y="1531" on="0"/>
        <pt x="1214" y="1479" on="1"/>
        <pt x="1236" y="1481" on="0"/>
        <pt x="1274" y="1481" on="1"/>
        <pt x="1314" y="1481" on="0"/>
        <pt x="1335" y="1479" on="1"/>
        <pt x="1274" y="1531" on="0"/>
        <pt x="1274" y="1610" on="1"/>
        <pt x="1274" y="1684" on="0"/>
        <pt x="1332" y="1736" on="1"/>
        <pt x="1387" y="1785" on="0"/>
        <pt x="1462" y="1785" on="1"/>
        <pt x="1534" y="1785" on="0"/>
        <pt x="1589" y="1738" on="1"/>
        <pt x="1649" y="1689" on="0"/>
        <pt x="1649" y="1614" on="1"/>
        <pt x="1649" y="1556" on="0"/>
        <pt x="1619" y="1512" on="1"/>
        <pt x="1740" y="1488" on="0"/>
        <pt x="1808" y="1457" on="1"/>
        <pt x="1944" y="1396" on="0"/>
        <pt x="2010" y="1321" on="1"/>
        <pt x="1966" y="1315" on="1"/>
        <pt x="1892" y="1382" on="0"/>
        <pt x="1803" y="1418" on="1"/>
        <pt x="1663" y="1476" on="0"/>
        <pt x="1554" y="1488" on="1"/>
        <pt x="1608" y="1532" on="0"/>
        <pt x="1608" y="1602" on="1"/>
        <pt x="1608" y="1662" on="0"/>
        <pt x="1522" y="1748" on="0"/>
        <pt x="1462" y="1748" on="1"/>
        <pt x="1403" y="1748" on="0"/>
        <pt x="1317" y="1662" on="0"/>
        <pt x="1317" y="1602" on="1"/>
        <pt x="1317" y="1547" on="0"/>
        <pt x="1367" y="1505" on="1"/>
        <pt x="1409" y="1469" on="0"/>
        <pt x="1462" y="1461" on="1"/>
        <pt x="1712" y="1423" on="0"/>
        <pt x="1926" y="1202" on="1"/>
        <pt x="2181" y="940" on="0"/>
      </contour>
      <contour>
        <pt x="580" y="1153" on="1"/>
        <pt x="524" y="1105" on="0"/>
        <pt x="525" y="1110" on="1"/>
        <pt x="546" y="1161" on="0"/>
        <pt x="546" y="1249" on="1"/>
        <pt x="546" y="1431" on="0"/>
        <pt x="463" y="1449" on="1"/>
        <pt x="456" y="1333" on="0"/>
        <pt x="378" y="1226" on="1"/>
        <pt x="362" y="1203" on="0"/>
        <pt x="217" y="1081" on="0"/>
        <pt x="198" y="1055" on="1"/>
        <pt x="185" y="1029" on="0"/>
        <pt x="185" y="1018" on="1"/>
        <pt x="146" y="1042" on="1"/>
        <pt x="146" y="1053" on="0"/>
        <pt x="154" y="1063" on="1"/>
        <pt x="167" y="1094" on="0"/>
        <pt x="240" y="1158" on="1"/>
        <pt x="324" y="1230" on="0"/>
        <pt x="341" y="1254" on="1"/>
        <pt x="426" y="1368" on="0"/>
        <pt x="432" y="1523" on="1"/>
        <pt x="503" y="1502" on="0"/>
        <pt x="589" y="1350" on="0"/>
        <pt x="589" y="1247" on="1"/>
        <pt x="589" y="1200" on="0"/>
      </contour>
      <contour>
        <pt x="2546" y="1105" on="1"/>
        <pt x="2478" y="1004" on="0"/>
        <pt x="2485" y="819" on="1"/>
        <pt x="2487" y="784" on="0"/>
        <pt x="2532" y="637" on="0"/>
        <pt x="2533" y="605" on="1"/>
        <pt x="2535" y="569" on="0"/>
        <pt x="2472" y="496" on="0"/>
        <pt x="2439" y="496" on="1"/>
        <pt x="2391" y="496" on="0"/>
        <pt x="2369" y="520" on="1"/>
        <pt x="2369" y="67" on="0"/>
        <pt x="1729" y="-574" on="0"/>
        <pt x="1274" y="-574" on="1"/>
        <pt x="820" y="-574" on="0"/>
        <pt x="179" y="67" on="0"/>
        <pt x="179" y="520" on="1"/>
        <pt x="158" y="496" on="0"/>
        <pt x="111" y="496" on="1"/>
        <pt x="78" y="496" on="0"/>
        <pt x="13" y="569" on="0"/>
        <pt x="15" y="605" on="1"/>
        <pt x="17" y="637" on="0"/>
        <pt x="62" y="785" on="0"/>
        <pt x="63" y="819" on="1"/>
        <pt x="71" y="1004" on="0"/>
        <pt x="2" y="1105" on="1"/>
        <pt x="202" y="1092" on="0"/>
        <pt x="263" y="945" on="1"/>
        <pt x="258" y="822" on="1"/>
        <pt x="253" y="895" on="0"/>
        <pt x="209" y="962" on="1"/>
        <pt x="154" y="1046" on="0"/>
        <pt x="67" y="1049" on="1"/>
        <pt x="105" y="992" on="0"/>
        <pt x="105" y="819" on="1"/>
        <pt x="105" y="787" on="0"/>
        <pt x="85" y="718" on="1"/>
        <pt x="63" y="646" on="0"/>
        <pt x="61" y="618" on="1"/>
        <pt x="58" y="542" on="0"/>
        <pt x="131" y="542" on="1"/>
        <pt x="170" y="542" on="0"/>
        <pt x="204" y="594" on="1"/>
        <pt x="214" y="609" on="0"/>
        <pt x="226" y="623" on="1"/>
        <pt x="220" y="561" on="0"/>
        <pt x="220" y="520" on="1"/>
        <pt x="220" y="91" on="0"/>
        <pt x="842" y="-521" on="0"/>
        <pt x="1274" y="-521" on="1"/>
        <pt x="1707" y="-521" on="0"/>
        <pt x="2330" y="91" on="0"/>
        <pt x="2330" y="520" on="1"/>
        <pt x="2330" y="561" on="0"/>
        <pt x="2324" y="623" on="1"/>
        <pt x="2336" y="609" on="0"/>
        <pt x="2347" y="595" on="1"/>
        <pt x="2380" y="542" on="0"/>
        <pt x="2417" y="542" on="1"/>
        <pt x="2493" y="542" on="0"/>
        <pt x="2489" y="618" on="1"/>
        <pt x="2487" y="646" on="0"/>
        <pt x="2465" y="718" on="1"/>
        <pt x="2442" y="787" on="0"/>
        <pt x="2442" y="819" on="1"/>
        <pt x="2442" y="990" on="0"/>
        <pt x="2483" y="1049" on="1"/>
        <pt x="2397" y="1046" on="0"/>
        <pt x="2340" y="962" on="1"/>
        <pt x="2295" y="895" on="0"/>
        <pt x="2290" y="822" on="1"/>
        <pt x="2288" y="945" on="1"/>
        <pt x="2348" y="1092" on="0"/>
      </contour>
      <contour>
        <pt x="2135" y="576" on="1"/>
        <pt x="2135" y="930" on="0"/>
        <pt x="1895" y="1173" on="1"/>
        <pt x="1708" y="1362" on="0"/>
        <pt x="1466" y="1418" on="1"/>
        <pt x="1386" y="1437" on="0"/>
        <pt x="1274" y="1437" on="1"/>
        <pt x="1164" y="1437" on="0"/>
        <pt x="1084" y="1418" on="1"/>
        <pt x="841" y="1362" on="0"/>
        <pt x="654" y="1173" on="1"/>
        <pt x="415" y="931" on="0"/>
        <pt x="415" y="576" on="1"/>
        <pt x="415" y="218" on="0"/>
        <pt x="916" y="-285" on="0"/>
        <pt x="1274" y="-285" on="1"/>
        <pt x="1633" y="-285" on="0"/>
        <pt x="2135" y="218" on="0"/>
      </contour>
      <contour>
        <pt x="1789" y="351" on="1"/>
        <pt x="1789" y="297" on="0"/>
        <pt x="1767" y="245" on="1"/>
        <pt x="1761" y="244" on="0"/>
        <pt x="1744" y="233" on="1"/>
        <pt x="1736" y="239" on="0"/>
        <pt x="1722" y="247" on="1"/>
        <pt x="1690" y="383" on="0"/>
        <pt x="1632" y="544" on="1"/>
        <pt x="1625" y="564" on="0"/>
        <pt x="1572" y="655" on="1"/>
        <pt x="1523" y="736" on="0"/>
        <pt x="1523" y="750" on="1"/>
        <pt x="1523" y="768" on="0"/>
        <pt x="1572" y="856" on="0"/>
        <pt x="1588" y="868" on="1"/>
        <pt x="1620" y="868" on="0"/>
        <pt x="1641" y="824" on="1"/>
        <pt x="1789" y="529" on="0"/>
      </contour>
      <contour>
        <pt x="1482" y="300" on="1"/>
        <pt x="1482" y="257" on="0"/>
        <pt x="1438" y="193" on="1"/>
        <pt x="1403" y="193" on="1"/>
        <pt x="1337" y="298" on="0"/>
        <pt x="1321" y="370" on="1"/>
        <pt x="1313" y="445" on="0"/>
        <pt x="1305" y="520" on="1"/>
        <pt x="1284" y="653" on="0"/>
        <pt x="1241" y="653" on="1"/>
        <pt x="1231" y="653" on="0"/>
        <pt x="1200" y="643" on="0"/>
        <pt x="1185" y="643" on="1"/>
        <pt x="1135" y="643" on="0"/>
        <pt x="1090" y="677" on="1"/>
        <pt x="1042" y="713" on="0"/>
        <pt x="1042" y="760" on="1"/>
        <pt x="1042" y="790" on="0"/>
        <pt x="1065" y="837" on="1"/>
        <pt x="1207" y="796" on="0"/>
        <pt x="1237" y="796" on="1"/>
        <pt x="1249" y="796" on="0"/>
        <pt x="1269" y="807" on="0"/>
        <pt x="1282" y="807" on="1"/>
        <pt x="1303" y="807" on="0"/>
        <pt x="1332" y="794" on="1"/>
        <pt x="1370" y="777" on="0"/>
        <pt x="1376" y="751" on="1"/>
        <pt x="1382" y="654" on="0"/>
        <pt x="1413" y="455" on="1"/>
        <pt x="1418" y="435" on="0"/>
        <pt x="1451" y="372" on="1"/>
        <pt x="1482" y="315" on="0"/>
      </contour>
      <contour>
        <pt x="1021" y="330" on="1"/>
        <pt x="1021" y="268" on="0"/>
        <pt x="999" y="234" on="1"/>
        <pt x="992" y="234" on="0"/>
        <pt x="975" y="223" on="1"/>
        <pt x="947" y="246" on="0"/>
        <pt x="938" y="287" on="1"/>
        <pt x="932" y="318" on="0"/>
        <pt x="925" y="350" on="1"/>
        <pt x="914" y="395" on="0"/>
        <pt x="885" y="472" on="1"/>
        <pt x="867" y="519" on="0"/>
        <pt x="807" y="633" on="1"/>
        <pt x="755" y="732" on="0"/>
        <pt x="755" y="745" on="1"/>
        <pt x="755" y="803" on="0"/>
        <pt x="810" y="858" on="1"/>
        <pt x="845" y="858" on="0"/>
        <pt x="863" y="824" on="1"/>
        <pt x="1021" y="536" on="0"/>
      </contour>
    </TTGlyph>
    <TTGlyph name="uniE000" xMin="0" yMin="0" xMax="1870" yMax="1870">
      <contour>
        <pt x="0" y="1870" on="1"/>
        <pt x="1870" y="1870" on="1"/>
        <pt x="1870" y="0" on="1"/>
        <pt x="0" y="0" on="1"/>
      </contour>
    </TTGlyph>
    <TTGlyph name="uniFB51" xMin="218" yMin="-229" xMax="3484" yMax="1736">
      <contour>
        <pt x="2983" y="1639" on="1"/>
        <pt x="2983" y="1593" on="0"/>
        <pt x="2773" y="1463" on="1"/>
        <pt x="2620" y="1368" on="0"/>
        <pt x="2514" y="1317" on="1"/>
        <pt x="2514" y="1321" on="0"/>
        <pt x="2501" y="1338" on="0"/>
        <pt x="2501" y="1352" on="1"/>
        <pt x="2501" y="1411" on="0"/>
        <pt x="2555" y="1445" on="1"/>
        <pt x="2679" y="1519" on="0"/>
        <pt x="2925" y="1674" on="1"/>
        <pt x="2959" y="1674" on="1"/>
        <pt x="2983" y="1651" on="0"/>
      </contour>
      <contour>
        <pt x="2266" y="1711" on="1"/>
        <pt x="2256" y="1684" on="0"/>
        <pt x="2229" y="1647" on="1"/>
        <pt x="2116" y="1579" on="0"/>
        <pt x="1717" y="1368" on="1"/>
        <pt x="1703" y="1382" on="0"/>
        <pt x="1703" y="1409" on="1"/>
        <pt x="1703" y="1465" on="0"/>
        <pt x="1736" y="1486" on="1"/>
        <pt x="1847" y="1556" on="0"/>
        <pt x="2182" y="1736" on="0"/>
        <pt x="2200" y="1736" on="1"/>
        <pt x="2243" y="1736" on="1"/>
      </contour>
      <contour>
        <pt x="3484" y="1480" on="1"/>
        <pt x="3484" y="1415" on="0"/>
        <pt x="3447" y="1389" on="1"/>
        <pt x="3187" y="1210" on="0"/>
        <pt x="2877" y="1063" on="1"/>
        <pt x="2716" y="987" on="0"/>
        <pt x="2624" y="881" on="1"/>
        <pt x="2829" y="686" on="0"/>
        <pt x="2914" y="575" on="1"/>
        <pt x="3044" y="405" on="0"/>
        <pt x="3044" y="267" on="1"/>
        <pt x="3044" y="231" on="0"/>
        <pt x="3009" y="91" on="1"/>
        <pt x="2999" y="75" on="0"/>
        <pt x="2980" y="61" on="1"/>
        <pt x="2931" y="41" on="0"/>
        <pt x="2810" y="22" on="1"/>
        <pt x="2706" y="6" on="0"/>
        <pt x="2676" y="6" on="1"/>
        <pt x="2468" y="6" on="0"/>
        <pt x="2372" y="180" on="1"/>
        <pt x="2300" y="106" on="0"/>
        <pt x="2281" y="90" on="1"/>
        <pt x="2229" y="44" on="0"/>
        <pt x="2191" y="29" on="1"/>
        <pt x="2105" y="-4" on="0"/>
        <pt x="1979" y="-4" on="1"/>
        <pt x="1939" y="-4" on="0"/>
        <pt x="1882" y="26" on="1"/>
        <pt x="1815" y="61" on="0"/>
        <pt x="1815" y="98" on="1"/>
        <pt x="1815" y="125" on="0"/>
        <pt x="1839" y="166" on="1"/>
        <pt x="1864" y="211" on="0"/>
        <pt x="1888" y="211" on="1"/>
        <pt x="1889" y="211" on="0"/>
        <pt x="1967" y="160" on="0"/>
        <pt x="2041" y="160" on="1"/>
        <pt x="2106" y="160" on="0"/>
        <pt x="2205" y="195" on="1"/>
        <pt x="2337" y="243" on="0"/>
        <pt x="2337" y="319" on="1"/>
        <pt x="2337" y="331" on="0"/>
        <pt x="2286" y="551" on="0"/>
        <pt x="2286" y="564" on="1"/>
        <pt x="2286" y="647" on="0"/>
        <pt x="2323" y="672" on="1"/>
        <pt x="2364" y="630" on="0"/>
        <pt x="2390" y="529" on="1"/>
        <pt x="2406" y="450" on="0"/>
        <pt x="2422" y="370" on="1"/>
        <pt x="2445" y="275" on="0"/>
        <pt x="2519" y="216" on="1"/>
        <pt x="2590" y="160" on="0"/>
        <pt x="2676" y="160" on="1"/>
        <pt x="2764" y="160" on="0"/>
        <pt x="2963" y="219" on="1"/>
        <pt x="2953" y="311" on="0"/>
        <pt x="2855" y="437" on="1"/>
        <pt x="2773" y="542" on="0"/>
        <pt x="2667" y="628" on="1"/>
        <pt x="2656" y="637" on="0"/>
        <pt x="2626" y="637" on="1"/>
        <pt x="2591" y="637" on="0"/>
        <pt x="2576" y="644" on="1"/>
        <pt x="2529" y="665" on="0"/>
        <pt x="2517" y="694" on="1"/>
        <pt x="2512" y="709" on="0"/>
        <pt x="2512" y="759" on="1"/>
        <pt x="2512" y="1036" on="0"/>
        <pt x="3078" y="1319" on="1"/>
        <pt x="3302" y="1430" on="0"/>
        <pt x="3437" y="1521" on="1"/>
        <pt x="3471" y="1521" on="1"/>
        <pt x="3484" y="1507" on="0"/>
      </contour>
      <contour>
        <pt x="2246" y="1337" on="1"/>
        <pt x="2246" y="1245" on="0"/>
        <pt x="2184" y="1203" on="1"/>
        <pt x="2147" y="1178" on="0"/>
        <pt x="2057" y="1159" on="1"/>
        <pt x="2052" y="1158" on="0"/>
        <pt x="2007" y="1132" on="0"/>
        <pt x="1990" y="1132" on="1"/>
        <pt x="1960" y="1132" on="0"/>
        <pt x="1933" y="1167" on="1"/>
        <pt x="1908" y="1197" on="0"/>
        <pt x="1908" y="1219" on="1"/>
        <pt x="1908" y="1242" on="0"/>
        <pt x="1971" y="1339" on="0"/>
        <pt x="1996" y="1347" on="1"/>
        <pt x="2017" y="1312" on="0"/>
        <pt x="2010" y="1282" on="1"/>
        <pt x="2026" y="1266" on="1"/>
        <pt x="2037" y="1280" on="0"/>
        <pt x="2051" y="1325" on="1"/>
        <pt x="2060" y="1362" on="0"/>
        <pt x="2097" y="1389" on="1"/>
        <pt x="2115" y="1376" on="0"/>
        <pt x="2118" y="1361" on="1"/>
        <pt x="2118" y="1344" on="0"/>
        <pt x="2119" y="1328" on="1"/>
        <pt x="2121" y="1307" on="0"/>
        <pt x="2148" y="1296" on="1"/>
        <pt x="2171" y="1307" on="0"/>
        <pt x="2168" y="1334" on="1"/>
        <pt x="2164" y="1369" on="0"/>
        <pt x="2167" y="1375" on="1"/>
        <pt x="2177" y="1392" on="0"/>
        <pt x="2197" y="1429" on="1"/>
        <pt x="2246" y="1419" on="0"/>
      </contour>
      <contour>
        <pt x="2307" y="861" on="1"/>
        <pt x="2307" y="837" on="0"/>
        <pt x="2280" y="798" on="1"/>
        <pt x="2250" y="754" on="0"/>
        <pt x="2220" y="754" on="1"/>
        <pt x="2192" y="754" on="0"/>
        <pt x="2123" y="818" on="0"/>
        <pt x="2123" y="836" on="1"/>
        <pt x="2123" y="853" on="0"/>
        <pt x="2189" y="938" on="0"/>
        <pt x="2205" y="938" on="1"/>
        <pt x="2224" y="938" on="0"/>
        <pt x="2263" y="915" on="1"/>
        <pt x="2307" y="888" on="0"/>
      </contour>
      <contour>
        <pt x="1519" y="1614" on="1"/>
        <pt x="1519" y="1568" on="0"/>
        <pt x="1315" y="1460" on="1"/>
        <pt x="1179" y="1393" on="0"/>
        <pt x="1044" y="1327" on="1"/>
        <pt x="1009" y="1327" on="1"/>
        <pt x="996" y="1340" on="0"/>
        <pt x="996" y="1362" on="1"/>
        <pt x="996" y="1412" on="0"/>
        <pt x="1040" y="1435" on="1"/>
        <pt x="1448" y="1644" on="0"/>
        <pt x="1453" y="1644" on="1"/>
        <pt x="1506" y="1644" on="1"/>
        <pt x="1519" y="1630" on="0"/>
      </contour>
      <contour>
        <pt x="791" y="1423" on="1"/>
        <pt x="791" y="1407" on="0"/>
        <pt x="749" y="1371" on="1"/>
        <pt x="711" y="1340" on="0"/>
        <pt x="641" y="1310" on="1"/>
        <pt x="564" y="1275" on="0"/>
        <pt x="515" y="1275" on="1"/>
        <pt x="490" y="1275" on="0"/>
        <pt x="444" y="1298" on="1"/>
        <pt x="444" y="1345" on="1"/>
        <pt x="491" y="1355" on="0"/>
        <pt x="588" y="1397" on="1"/>
        <pt x="593" y="1419" on="0"/>
        <pt x="556" y="1419" on="1"/>
        <pt x="541" y="1419" on="0"/>
        <pt x="491" y="1396" on="1"/>
        <pt x="414" y="1361" on="0"/>
        <pt x="406" y="1357" on="1"/>
        <pt x="392" y="1372" on="0"/>
        <pt x="392" y="1389" on="1"/>
        <pt x="392" y="1432" on="0"/>
        <pt x="467" y="1488" on="1"/>
        <pt x="537" y="1542" on="0"/>
        <pt x="577" y="1542" on="1"/>
        <pt x="618" y="1542" on="0"/>
        <pt x="791" y="1468" on="1"/>
      </contour>
      <contour>
        <pt x="1048" y="636" on="1"/>
        <pt x="1048" y="609" on="0"/>
        <pt x="981" y="538" on="0"/>
        <pt x="960" y="538" on="1"/>
        <pt x="948" y="538" on="0"/>
        <pt x="882" y="590" on="0"/>
        <pt x="868" y="590" on="1"/>
        <pt x="855" y="590" on="0"/>
        <pt x="759" y="518" on="0"/>
        <pt x="746" y="518" on="1"/>
        <pt x="729" y="518" on="0"/>
        <pt x="648" y="587" on="0"/>
        <pt x="648" y="605" on="1"/>
        <pt x="648" y="623" on="0"/>
        <pt x="721" y="713" on="0"/>
        <pt x="741" y="713" on="1"/>
        <pt x="755" y="713" on="0"/>
        <pt x="791" y="691" on="1"/>
        <pt x="835" y="665" on="0"/>
        <pt x="847" y="661" on="1"/>
        <pt x="917" y="733" on="0"/>
        <pt x="935" y="733" on="1"/>
        <pt x="972" y="733" on="0"/>
        <pt x="1013" y="690" on="1"/>
        <pt x="1048" y="653" on="0"/>
      </contour>
      <contour>
        <pt x="1693" y="-142" on="1"/>
        <pt x="1693" y="-174" on="0"/>
        <pt x="1649" y="-204" on="1"/>
        <pt x="1613" y="-229" on="0"/>
        <pt x="1595" y="-229" on="1"/>
        <pt x="1569" y="-229" on="0"/>
        <pt x="1531" y="-208" on="1"/>
        <pt x="1488" y="-182" on="0"/>
        <pt x="1488" y="-152" on="1"/>
        <pt x="1488" y="-128" on="0"/>
        <pt x="1556" y="-55" on="0"/>
        <pt x="1580" y="-55" on="1"/>
        <pt x="1607" y="-55" on="0"/>
        <pt x="1693" y="-117" on="0"/>
      </contour>
      <contour>
        <pt x="1652" y="292" on="1"/>
        <pt x="1652" y="207" on="0"/>
        <pt x="1615" y="142" on="1"/>
        <pt x="1574" y="67" on="0"/>
        <pt x="1507" y="67" on="1"/>
        <pt x="1433" y="67" on="1"/>
        <pt x="1421" y="67" on="0"/>
        <pt x="1330" y="119" on="0"/>
        <pt x="1319" y="119" on="1"/>
        <pt x="1304" y="119" on="0"/>
        <pt x="1302" y="110" on="1"/>
        <pt x="1236" y="57" on="0"/>
        <pt x="1147" y="19" on="1"/>
        <pt x="1086" y="-6" on="0"/>
        <pt x="984" y="-31" on="1"/>
        <pt x="892" y="-55" on="0"/>
        <pt x="868" y="-55" on="1"/>
        <pt x="858" y="-55" on="0"/>
        <pt x="697" y="-65" on="0"/>
        <pt x="684" y="-65" on="1"/>
        <pt x="516" y="-65" on="0"/>
        <pt x="388" y="-7" on="1"/>
        <pt x="218" y="68" on="0"/>
        <pt x="218" y="216" on="1"/>
        <pt x="218" y="242" on="0"/>
        <pt x="266" y="329" on="1"/>
        <pt x="317" y="424" on="0"/>
        <pt x="348" y="425" on="1"/>
        <pt x="364" y="412" on="1"/>
        <pt x="364" y="394" on="0"/>
        <pt x="341" y="294" on="0"/>
        <pt x="341" y="283" on="1"/>
        <pt x="341" y="165" on="0"/>
        <pt x="515" y="116" on="1"/>
        <pt x="615" y="88" on="0"/>
        <pt x="736" y="88" on="1"/>
        <pt x="928" y="88" on="0"/>
        <pt x="1204" y="183" on="1"/>
        <pt x="1258" y="201" on="0"/>
        <pt x="1281" y="259" on="1"/>
        <pt x="1308" y="330" on="0"/>
        <pt x="1338" y="354" on="1"/>
        <pt x="1381" y="349" on="0"/>
        <pt x="1385" y="282" on="0"/>
        <pt x="1387" y="250" on="1"/>
        <pt x="1441" y="221" on="0"/>
        <pt x="1503" y="221" on="1"/>
        <pt x="1518" y="221" on="0"/>
        <pt x="1538" y="230" on="0"/>
        <pt x="1541" y="230" on="1"/>
        <pt x="1544" y="248" on="0"/>
        <pt x="1543" y="338" on="1"/>
        <pt x="1542" y="399" on="0"/>
        <pt x="1572" y="446" on="1"/>
        <pt x="1590" y="446" on="0"/>
        <pt x="1627" y="409" on="1"/>
        <pt x="1629" y="391" on="0"/>
        <pt x="1641" y="347" on="1"/>
        <pt x="1652" y="306" on="0"/>
      </contour>
    </TTGlyph>
    <TTGlyph name="uniFB52" xMin="163" yMin="-792" xMax="1792" yMax="1605">
      <contour>
        <pt x="1679" y="1516" on="1"/>
        <pt x="1679" y="1502" on="0"/>
        <pt x="1626" y="1424" on="0"/>
        <pt x="1611" y="1411" on="1"/>
        <pt x="1546" y="1407" on="0"/>
        <pt x="1393" y="1328" on="1"/>
        <pt x="1198" y="1228" on="0"/>
        <pt x="1130" y="1204" on="1"/>
        <pt x="1106" y="1229" on="0"/>
        <pt x="1106" y="1239" on="1"/>
        <pt x="1106" y="1254" on="0"/>
        <pt x="1136" y="1305" on="0"/>
        <pt x="1149" y="1312" on="1"/>
        <pt x="1572" y="1542" on="0"/>
        <pt x="1603" y="1541" on="1"/>
        <pt x="1666" y="1541" on="1"/>
        <pt x="1679" y="1540" on="0"/>
      </contour>
      <contour>
        <pt x="1648" y="1025" on="1"/>
        <pt x="1648" y="1004" on="0"/>
        <pt x="1588" y="918" on="0"/>
        <pt x="1571" y="918" on="1"/>
        <pt x="1556" y="918" on="0"/>
        <pt x="1521" y="940" on="1"/>
        <pt x="1470" y="973" on="0"/>
        <pt x="1459" y="979" on="1"/>
        <pt x="1457" y="977" on="0"/>
        <pt x="1406" y="936" on="1"/>
        <pt x="1372" y="907" on="0"/>
        <pt x="1357" y="907" on="1"/>
        <pt x="1325" y="907" on="0"/>
        <pt x="1285" y="947" on="1"/>
        <pt x="1249" y="983" on="0"/>
        <pt x="1249" y="999" on="1"/>
        <pt x="1249" y="1032" on="0"/>
        <pt x="1282" y="1068" on="1"/>
        <pt x="1312" y="1102" on="0"/>
        <pt x="1331" y="1102" on="1"/>
        <pt x="1343" y="1102" on="0"/>
        <pt x="1410" y="1061" on="0"/>
        <pt x="1423" y="1061" on="1"/>
        <pt x="1434" y="1061" on="0"/>
        <pt x="1502" y="1132" on="0"/>
        <pt x="1515" y="1132" on="1"/>
        <pt x="1541" y="1132" on="0"/>
        <pt x="1648" y="1051" on="0"/>
      </contour>
      <contour>
        <pt x="736" y="1236" on="1"/>
        <pt x="732" y="1236" on="0"/>
        <pt x="705" y="1225" on="0"/>
        <pt x="691" y="1225" on="1"/>
        <pt x="679" y="1225" on="0"/>
        <pt x="641" y="1255" on="0"/>
        <pt x="630" y="1255" on="1"/>
        <pt x="620" y="1255" on="0"/>
        <pt x="573" y="1204" on="1"/>
        <pt x="519" y="1144" on="0"/>
        <pt x="489" y="1126" on="1"/>
        <pt x="309" y="1009" on="0"/>
        <pt x="198" y="1010" on="1"/>
        <pt x="163" y="1010" on="1"/>
        <pt x="163" y="1033" on="1"/>
        <pt x="209" y="1071" on="0"/>
        <pt x="347" y="1152" on="1"/>
        <pt x="453" y="1216" on="0"/>
        <pt x="522" y="1291" on="1"/>
        <pt x="512" y="1303" on="0"/>
        <pt x="454" y="1358" on="1"/>
        <pt x="430" y="1380" on="0"/>
        <pt x="430" y="1419" on="1"/>
        <pt x="430" y="1475" on="0"/>
        <pt x="483" y="1537" on="1"/>
        <pt x="542" y="1605" on="0"/>
        <pt x="611" y="1602" on="1"/>
        <pt x="672" y="1536" on="0"/>
        <pt x="647" y="1394" on="1"/>
        <pt x="677" y="1369" on="0"/>
        <pt x="736" y="1313" on="1"/>
      </contour>
      <contour>
        <pt x="1792" y="267" on="1"/>
        <pt x="1792" y="229" on="0"/>
        <pt x="1709" y="94" on="0"/>
        <pt x="1676" y="80" on="1"/>
        <pt x="1583" y="43" on="0"/>
        <pt x="1476" y="31" on="1"/>
        <pt x="1402" y="23" on="0"/>
        <pt x="1362" y="-13" on="1"/>
        <pt x="1357" y="-33" on="0"/>
        <pt x="1336" y="-73" on="1"/>
        <pt x="1335" y="-74" on="0"/>
        <pt x="1259" y="-206" on="1"/>
        <pt x="1218" y="-278" on="0"/>
        <pt x="1154" y="-318" on="1"/>
        <pt x="1002" y="-413" on="0"/>
        <pt x="783" y="-413" on="1"/>
        <pt x="759" y="-413" on="0"/>
        <pt x="557" y="-370" on="1"/>
        <pt x="528" y="-363" on="0"/>
        <pt x="491" y="-327" on="1"/>
        <pt x="518" y="-280" on="0"/>
        <pt x="548" y="-280" on="1"/>
        <pt x="560" y="-280" on="0"/>
        <pt x="699" y="-311" on="0"/>
        <pt x="711" y="-311" on="1"/>
        <pt x="786" y="-311" on="0"/>
        <pt x="822" y="-299" on="1"/>
        <pt x="1197" y="-169" on="0"/>
        <pt x="1259" y="-18" on="1"/>
        <pt x="1253" y="8" on="0"/>
        <pt x="1183" y="13" on="1"/>
        <pt x="1096" y="19" on="0"/>
        <pt x="1077" y="29" on="1"/>
        <pt x="1070" y="34" on="0"/>
        <pt x="1024" y="135" on="0"/>
        <pt x="1024" y="149" on="1"/>
        <pt x="1024" y="214" on="0"/>
        <pt x="1146" y="395" on="0"/>
        <pt x="1198" y="395" on="1"/>
        <pt x="1259" y="395" on="0"/>
        <pt x="1313" y="295" on="1"/>
        <pt x="1341" y="232" on="0"/>
        <pt x="1370" y="169" on="1"/>
        <pt x="1393" y="167" on="0"/>
        <pt x="1416" y="167" on="1"/>
        <pt x="1583" y="167" on="0"/>
        <pt x="1701" y="258" on="1"/>
        <pt x="1705" y="273" on="0"/>
        <pt x="1680" y="339" on="0"/>
        <pt x="1664" y="354" on="1"/>
        <pt x="1633" y="323" on="0"/>
        <pt x="1574" y="275" on="1"/>
        <pt x="1561" y="272" on="0"/>
        <pt x="1530" y="272" on="1"/>
        <pt x="1464" y="272" on="0"/>
        <pt x="1429" y="329" on="1"/>
        <pt x="1402" y="371" on="0"/>
        <pt x="1402" y="420" on="1"/>
        <pt x="1402" y="473" on="0"/>
        <pt x="1446" y="574" on="1"/>
        <pt x="1501" y="702" on="0"/>
        <pt x="1566" y="702" on="1"/>
        <pt x="1660" y="702" on="0"/>
        <pt x="1734" y="494" on="1"/>
        <pt x="1792" y="333" on="0"/>
      </contour>
      <contour>
        <pt x="717" y="278" on="1"/>
        <pt x="717" y="149" on="0"/>
        <pt x="573" y="149" on="1"/>
        <pt x="563" y="149" on="0"/>
        <pt x="493" y="160" on="0"/>
        <pt x="481" y="160" on="1"/>
        <pt x="426" y="160" on="0"/>
        <pt x="352" y="120" on="1"/>
        <pt x="302" y="94" on="0"/>
        <pt x="288" y="80" on="1"/>
        <pt x="287" y="75" on="0"/>
        <pt x="287" y="37" on="1"/>
        <pt x="378" y="-686" on="1"/>
        <pt x="375" y="-690" on="0"/>
        <pt x="360" y="-739" on="1"/>
        <pt x="347" y="-781" on="0"/>
        <pt x="319" y="-792" on="1"/>
        <pt x="194" y="-24" on="1"/>
        <pt x="197" y="13" on="0"/>
        <pt x="207" y="74" on="1"/>
        <pt x="260" y="256" on="0"/>
        <pt x="362" y="279" on="1"/>
        <pt x="401" y="290" on="0"/>
        <pt x="487" y="305" on="1"/>
        <pt x="501" y="320" on="0"/>
        <pt x="501" y="328" on="1"/>
        <pt x="501" y="338" on="0"/>
        <pt x="465" y="374" on="1"/>
        <pt x="445" y="365" on="0"/>
        <pt x="363" y="303" on="0"/>
        <pt x="342" y="292" on="1"/>
        <pt x="328" y="307" on="0"/>
        <pt x="328" y="324" on="1"/>
        <pt x="328" y="365" on="0"/>
        <pt x="387" y="454" on="1"/>
        <pt x="451" y="549" on="0"/>
        <pt x="491" y="549" on="1"/>
        <pt x="546" y="549" on="0"/>
        <pt x="635" y="424" on="1"/>
        <pt x="717" y="310" on="0"/>
      </contour>
      <contour>
        <pt x="1232" y="206" on="1"/>
        <pt x="1214" y="242" on="0"/>
        <pt x="1176" y="261" on="1"/>
        <pt x="1130" y="238" on="0"/>
        <pt x="1130" y="210" on="1"/>
        <pt x="1130" y="195" on="0"/>
        <pt x="1142" y="174" on="0"/>
        <pt x="1142" y="170" on="1"/>
        <pt x="1209" y="170" on="1"/>
        <pt x="1232" y="192" on="0"/>
      </contour>
      <contour>
        <pt x="571" y="1430" on="1"/>
        <pt x="571" y="1457" on="0"/>
        <pt x="558" y="1470" on="1"/>
        <pt x="548" y="1461" on="0"/>
        <pt x="542" y="1443" on="1"/>
        <pt x="552" y="1434" on="0"/>
      </contour>
      <contour>
        <pt x="1101" y="994" on="1"/>
        <pt x="1101" y="945" on="0"/>
        <pt x="963" y="866" on="1"/>
        <pt x="838" y="795" on="0"/>
        <pt x="799" y="795" on="1"/>
        <pt x="753" y="795" on="0"/>
        <pt x="753" y="836" on="1"/>
        <pt x="753" y="861" on="0"/>
        <pt x="803" y="895" on="1"/>
        <pt x="834" y="915" on="0"/>
        <pt x="865" y="934" on="1"/>
        <pt x="859" y="958" on="0"/>
        <pt x="824" y="958" on="1"/>
        <pt x="817" y="958" on="0"/>
        <pt x="739" y="908" on="1"/>
        <pt x="702" y="908" on="1"/>
        <pt x="702" y="962" on="1"/>
        <pt x="701" y="995" on="0"/>
        <pt x="763" y="1044" on="1"/>
        <pt x="823" y="1091" on="0"/>
        <pt x="855" y="1091" on="1"/>
        <pt x="864" y="1091" on="0"/>
        <pt x="940" y="1072" on="1"/>
        <pt x="1022" y="1050" on="0"/>
        <pt x="1055" y="1046" on="1"/>
        <pt x="1101" y="1041" on="0"/>
      </contour>
      <contour>
        <pt x="1597" y="473" on="1"/>
        <pt x="1579" y="509" on="0"/>
        <pt x="1541" y="528" on="1"/>
        <pt x="1495" y="505" on="0"/>
        <pt x="1495" y="477" on="1"/>
        <pt x="1495" y="462" on="0"/>
        <pt x="1506" y="441" on="0"/>
        <pt x="1506" y="437" on="1"/>
        <pt x="1574" y="437" on="1"/>
        <pt x="1597" y="459" on="0"/>
      </contour>
    </TTGlyph>
    <TTGlyph name="uniFB53" xMin="406" yMin="-535" xMax="2432" yMax="1767">
      <contour>
        <pt x="2402" y="1434" on="1"/>
        <pt x="2402" y="1403" on="0"/>
        <pt x="2366" y="1368" on="1"/>
        <pt x="2289" y="1419" on="0"/>
        <pt x="2268" y="1419" on="1"/>
        <pt x="1993" y="1184" on="0"/>
        <pt x="1873" y="1185" on="1"/>
        <pt x="1799" y="1185" on="1"/>
        <pt x="1799" y="1222" on="1"/>
        <pt x="1890" y="1271" on="0"/>
        <pt x="1983" y="1319" on="1"/>
        <pt x="2116" y="1396" on="0"/>
        <pt x="2166" y="1465" on="1"/>
        <pt x="2074" y="1549" on="0"/>
        <pt x="2074" y="1567" on="1"/>
        <pt x="2074" y="1602" on="0"/>
        <pt x="2128" y="1679" on="1"/>
        <pt x="2189" y="1767" on="0"/>
        <pt x="2243" y="1767" on="1"/>
        <pt x="2284" y="1767" on="0"/>
        <pt x="2305" y="1733" on="1"/>
        <pt x="2313" y="1703" on="0"/>
        <pt x="2310" y="1642" on="1"/>
        <pt x="2307" y="1576" on="0"/>
        <pt x="2311" y="1547" on="1"/>
        <pt x="2316" y="1522" on="0"/>
        <pt x="2402" y="1445" on="0"/>
      </contour>
      <contour>
        <pt x="2432" y="298" on="1"/>
        <pt x="2420" y="210" on="0"/>
        <pt x="2403" y="168" on="1"/>
        <pt x="2372" y="91" on="0"/>
        <pt x="2306" y="70" on="1"/>
        <pt x="2261" y="63" on="0"/>
        <pt x="2216" y="56" on="1"/>
        <pt x="2155" y="44" on="0"/>
        <pt x="2124" y="14" on="1"/>
        <pt x="2077" y="-76" on="0"/>
        <pt x="1946" y="-266" on="1"/>
        <pt x="1872" y="-353" on="0"/>
        <pt x="1785" y="-400" on="1"/>
        <pt x="1722" y="-434" on="0"/>
        <pt x="1587" y="-434" on="1"/>
        <pt x="1576" y="-434" on="0"/>
        <pt x="1463" y="-412" on="1"/>
        <pt x="1327" y="-387" on="0"/>
        <pt x="1279" y="-380" on="1"/>
        <pt x="1256" y="-376" on="0"/>
        <pt x="1183" y="-327" on="1"/>
        <pt x="1205" y="-285" on="0"/>
        <pt x="1239" y="-280" on="1"/>
        <pt x="1252" y="-280" on="0"/>
        <pt x="1432" y="-321" on="0"/>
        <pt x="1444" y="-321" on="1"/>
        <pt x="1602" y="-321" on="0"/>
        <pt x="1751" y="-241" on="1"/>
        <pt x="1911" y="-156" on="0"/>
        <pt x="1992" y="-10" on="1"/>
        <pt x="1956" y="12" on="0"/>
        <pt x="1917" y="14" on="1"/>
        <pt x="1854" y="16" on="0"/>
        <pt x="1842" y="19" on="1"/>
        <pt x="1809" y="26" on="0"/>
        <pt x="1746" y="112" on="0"/>
        <pt x="1746" y="149" on="1"/>
        <pt x="1746" y="195" on="0"/>
        <pt x="1811" y="300" on="1"/>
        <pt x="1881" y="415" on="0"/>
        <pt x="1935" y="415" on="1"/>
        <pt x="1990" y="415" on="0"/>
        <pt x="2037" y="333" on="1"/>
        <pt x="2114" y="199" on="0"/>
        <pt x="2122" y="190" on="1"/>
        <pt x="2135" y="192" on="0"/>
        <pt x="2162" y="192" on="1"/>
        <pt x="2175" y="192" on="1"/>
        <pt x="2334" y="192" on="0"/>
        <pt x="2330" y="282" on="1"/>
        <pt x="2197" y="1030" on="1"/>
        <pt x="2210" y="1079" on="0"/>
        <pt x="2223" y="1127" on="1"/>
        <pt x="2243" y="1184" on="0"/>
        <pt x="2284" y="1225" on="1"/>
        <pt x="2301" y="1212" on="1"/>
        <pt x="2309" y="1196" on="0"/>
        <pt x="2309" y="1137" on="1"/>
        <pt x="2309" y="1103" on="0"/>
        <pt x="2350" y="1086" on="1"/>
        <pt x="2408" y="1063" on="0"/>
        <pt x="2411" y="1059" on="1"/>
        <pt x="2415" y="1022" on="0"/>
        <pt x="2379" y="964" on="1"/>
        <pt x="2337" y="895" on="0"/>
        <pt x="2329" y="866" on="1"/>
      </contour>
      <contour>
        <pt x="1623" y="308" on="1"/>
        <pt x="1623" y="256" on="0"/>
        <pt x="1555" y="161" on="1"/>
        <pt x="1488" y="71" on="0"/>
        <pt x="1432" y="40" on="1"/>
        <pt x="1321" y="-22" on="0"/>
        <pt x="1199" y="-42" on="1"/>
        <pt x="992" y="-76" on="0"/>
        <pt x="876" y="-76" on="1"/>
        <pt x="748" y="-76" on="0"/>
        <pt x="649" y="-27" on="1"/>
        <pt x="637" y="-21" on="0"/>
        <pt x="406" y="121" on="1"/>
        <pt x="406" y="156" on="1"/>
        <pt x="418" y="170" on="0"/>
        <pt x="435" y="170" on="1"/>
        <pt x="441" y="170" on="0"/>
        <pt x="680" y="88" on="0"/>
        <pt x="763" y="88" on="1"/>
        <pt x="812" y="88" on="0"/>
        <pt x="818" y="90" on="1"/>
        <pt x="918" y="131" on="0"/>
        <pt x="986" y="199" on="1"/>
        <pt x="999" y="211" on="0"/>
        <pt x="999" y="292" on="1"/>
        <pt x="999" y="301" on="0"/>
        <pt x="924" y="922" on="1"/>
        <pt x="922" y="934" on="0"/>
        <pt x="897" y="1001" on="0"/>
        <pt x="897" y="1014" on="1"/>
        <pt x="897" y="1040" on="0"/>
        <pt x="927" y="1108" on="1"/>
        <pt x="960" y="1180" on="0"/>
        <pt x="984" y="1194" on="1"/>
        <pt x="1004" y="1180" on="0"/>
        <pt x="1006" y="1149" on="1"/>
        <pt x="1009" y="1104" on="0"/>
        <pt x="1011" y="1099" on="1"/>
        <pt x="1022" y="1071" on="0"/>
        <pt x="1091" y="1028" on="1"/>
        <pt x="1086" y="1003" on="0"/>
        <pt x="1061" y="929" on="1"/>
        <pt x="1040" y="864" on="0"/>
        <pt x="1040" y="850" on="1"/>
        <pt x="1040" y="840" on="0"/>
        <pt x="1061" y="680" on="1"/>
        <pt x="1083" y="505" on="0"/>
        <pt x="1087" y="452" on="1"/>
        <pt x="1088" y="436" on="0"/>
        <pt x="1088" y="271" on="1"/>
        <pt x="1093" y="274" on="0"/>
        <pt x="1257" y="372" on="1"/>
        <pt x="1330" y="415" on="0"/>
        <pt x="1409" y="415" on="1"/>
        <pt x="1448" y="415" on="0"/>
        <pt x="1529" y="383" on="1"/>
        <pt x="1623" y="345" on="0"/>
      </contour>
      <contour>
        <pt x="1020" y="-167" on="1"/>
        <pt x="1020" y="-220" on="0"/>
        <pt x="840" y="-303" on="1"/>
        <pt x="685" y="-375" on="0"/>
        <pt x="624" y="-382" on="1"/>
        <pt x="599" y="-358" on="0"/>
        <pt x="599" y="-347" on="1"/>
        <pt x="599" y="-332" on="0"/>
        <pt x="630" y="-280" on="0"/>
        <pt x="644" y="-274" on="1"/>
        <pt x="781" y="-209" on="0"/>
        <pt x="962" y="-137" on="1"/>
        <pt x="996" y="-137" on="1"/>
        <pt x="1004" y="-142" on="0"/>
        <pt x="1020" y="-152" on="0"/>
      </contour>
      <contour>
        <pt x="1020" y="-311" on="1"/>
        <pt x="1020" y="-324" on="0"/>
        <pt x="1003" y="-352" on="1"/>
        <pt x="985" y="-382" on="0"/>
        <pt x="984" y="-389" on="1"/>
        <pt x="798" y="-472" on="0"/>
        <pt x="606" y="-535" on="1"/>
        <pt x="571" y="-535" on="1"/>
        <pt x="558" y="-534" on="0"/>
        <pt x="558" y="-511" on="1"/>
        <pt x="558" y="-484" on="0"/>
        <pt x="594" y="-439" on="1"/>
        <pt x="721" y="-380" on="0"/>
        <pt x="962" y="-280" on="1"/>
        <pt x="1006" y="-280" on="1"/>
        <pt x="1020" y="-294" on="0"/>
      </contour>
      <contour>
        <pt x="1961" y="171" on="1"/>
        <pt x="1947" y="201" on="0"/>
        <pt x="1940" y="211" on="1"/>
        <pt x="1926" y="231" on="0"/>
        <pt x="1904" y="242" on="1"/>
        <pt x="1880" y="217" on="0"/>
        <pt x="1880" y="204" on="1"/>
        <pt x="1913" y="170" on="0"/>
        <pt x="1926" y="171" on="1"/>
      </contour>
      <contour>
        <pt x="1470" y="216" on="1"/>
        <pt x="1410" y="262" on="0"/>
        <pt x="1337" y="262" on="1"/>
        <pt x="1271" y="262" on="0"/>
        <pt x="1207" y="224" on="1"/>
        <pt x="1197" y="218" on="0"/>
        <pt x="1029" y="100" on="1"/>
        <pt x="1156" y="100" on="1"/>
        <pt x="1208" y="96" on="0"/>
        <pt x="1333" y="132" on="1"/>
        <pt x="1410" y="153" on="0"/>
      </contour>
    </TTGlyph>
</ttFont>
